<svg xmlns="http://www.w3.org/2000/svg" viewBox="0 0 1135.459 203" fill="none">
  <defs>
    <clipPath id="blk_mark_clip">
      <rect width="228" height="203" fill="white" />
    </clipPath>
  </defs>
  <g clip-path="url(#blk_mark_clip)">
    <path d="M20.4546 3.48801C21.0372 1.43791 23.0058 -0.0393684 25.105 0.000829607L223.827 3.87994C225.163 3.91009 226.358 4.54321 227.071 5.60845C227.784 6.6737 227.925 8.04043 227.453 9.32677L158.5 199.815C157.767 201.845 155.698 203.182 153.619 202.981C151.53 202.78 150.023 201.101 150.053 199.011L151.017 106.174L148.667 68.3576C148.285 62.1671 144.569 56.9313 138.924 54.6098L108.451 42.058L108.501 42.0379L22.7447 8.35197C20.8363 7.59826 19.8721 5.54816 20.4546 3.49806V3.48801Z" fill="#00031A" />
    <path d="M143.389 108.545L143.269 106.655L140.918 68.8391C140.727 65.7238 138.94 63.1813 136.137 62.0256L105.664 49.4737L103.665 48.6497L98.4218 46.5895C96.6541 45.8961 94.7056 45.8459 92.9077 46.4589L3.34484 76.8285C1.25567 77.532 -0.140451 79.5821 0.0102099 81.6824C0.170915 83.7827 1.84827 85.3404 3.98766 85.3706L95.5191 86.8076C102.952 86.9282 107.652 93.993 105.041 101.118L72.8999 188.549C72.1466 190.599 72.9401 192.76 74.7882 193.684C76.6363 194.609 78.9966 194.036 80.4129 192.327L141.491 118.393C142.656 116.976 143.309 115.208 143.329 113.368L143.389 108.545Z" fill="#00031A" />
  </g>
  <g transform="translate(296,32.235)">
    <path d="M11.5375 118.539L53.4059 0H81.1519L123.25 118.539H134.548V136.175H81.621V118.539H100.205L91.4917 92.2003H41.8684L32.9259 118.539H52.1484V136.175H0V118.539H11.5276H11.5375ZM86.3218 76.6706L66.5803 17.8752L47.0483 76.6706H86.3318H86.3218Z" fill="#00031A" />
    <path d="M192.864 138.291C175.458 138.291 158.521 135.466 144.638 129.118V103.718H163.212V118.06C170.987 121.593 180.159 123.24 192.146 123.24C210.719 123.24 220.6 117.83 220.6 107.95C220.6 100.893 215.43 97.3603 203.194 95.4839L177.095 91.9508C154.998 88.8968 144.399 79.4851 144.399 63.4963C144.399 44.4434 163.451 31.7481 193.792 31.7481C209.302 31.7481 223.894 33.874 238.246 39.0439V60.6318H219.672V51.0405C212.855 48.6851 203.204 47.0383 193.573 47.0383C176.626 47.0383 167.224 52.2083 167.224 61.1508C167.224 67.9775 172.394 72.2093 183.922 73.8561L211.208 77.6187C233.305 80.9123 243.905 90.0845 243.905 105.604C243.905 125.356 224.143 138.3 192.864 138.3V138.291Z" fill="#00031A" />
    <path d="M325.875 120.186C333.859 120.186 342.802 119.008 360.218 113.13L365.138 129.827C345.397 136.883 333.151 138.53 322.102 138.53C294.816 138.53 281.881 126.773 281.881 106.073V51.5096H247.059V34.3431H281.881V4.94037H303.748V34.3431H359.499V51.5096H303.748V102.78C303.748 114.068 310.565 120.186 325.865 120.186H325.875Z" fill="#00031A" />
    <path d="M474.226 85.3736C474.226 54.3241 498.678 32.2172 530.436 32.2172C562.194 32.2172 586.667 54.3241 586.667 85.3736C586.667 116.423 562.194 138.53 530.436 138.53C498.678 138.53 474.226 116.423 474.226 85.3736ZM565.248 85.3736C565.248 65.1431 550.198 50.5615 530.426 50.5615C510.655 50.5615 495.624 65.1431 495.624 85.3736C495.624 105.604 510.675 120.186 530.426 120.186C550.178 120.186 565.248 105.604 565.248 85.3736Z" fill="#00031A" />
    <path d="M440.292 63.9654C448.297 55.0328 454.634 51.9787 464.285 51.9787C467.569 51.9787 471.282 52.6873 476.212 54.2743C479.436 47.9067 483.528 42.1179 488.568 37.1576C480.604 33.9039 473.448 31.9777 466.631 31.9777C453.227 31.9777 443.576 38.3253 434.883 53.1365L424.523 69.1253V34.3231H370.438V51.4797H402.655V118.988H370.438V136.155H458.397V118.988H424.523V81.3515L440.282 63.9454L440.292 63.9654Z" fill="#00031A" />
  </g>
  <g transform="translate(919.57,33.313)">
    <path d="M168.611 118.948V19.2625H144.109V1.83642H215.889V19.2625H191.158V118.948H215.889V136.374H144.109V118.948H168.611Z" fill="#00031A" />
    <path d="M11.5375 118.539L53.4059 0H81.1519L123.25 118.539H134.548V136.175H81.6209V118.539H100.205L91.4917 92.2003H41.8684L32.9258 118.539H52.1484V136.175H0V118.539H11.5275H11.5375ZM86.3218 76.6706L66.5802 17.8752L47.0483 76.6706H86.3318H86.3218Z" fill="#00031A" />
  </g>
</svg>