<svg viewBox="0 0 524 358" fill="none" xmlns="http://www.w3.org/2000/svg">
  <!-- Mark (228×203), centered: translate(148, 0) -->
  <g transform="translate(148, 0)">
    <path d="M20.7182 3.49069C21.3028 1.43271 23.2679 -0.0399188 25.3756 0.00082497L224.102 3.87721C225.438 3.90327 226.634 4.54013 227.344 5.60456C228.053 6.66903 228.196 8.04134 227.731 9.32427L158.776 199.818C158.042 201.845 155.979 203.18 153.891 202.98C151.803 202.779 150.297 201.102 150.322 199.007L151.452 105.964L151.287 106.162L148.939 68.3484C148.554 62.1604 144.845 56.926 139.2 54.6009L108.727 42.0511L108.782 42.033L23.007 8.3485C21.1 7.59958 20.1339 5.549 20.7182 3.49069Z" fill="url(#sc_g1)"/>
    <path d="M0.0123822 81.683C-0.147477 79.5798 1.25574 77.5338 3.34218 76.8265L107.481 41.5369L139.2 54.6009C144.845 56.926 148.553 62.1592 148.938 68.3472L151.33 106.839L151.188 107.088L151.194 106.641L80.4052 192.334C78.9895 194.047 76.6214 194.618 74.7778 193.691C72.9344 192.763 72.1415 190.602 72.8937 188.555L105.04 101.121C107.659 93.9978 102.955 86.9264 95.5203 86.8099L3.99248 85.3758C1.84976 85.3421 0.17256 83.786 0.0123822 81.683Z" fill="url(#sc_g2)"/>
  </g>
  <!-- "Astro" wordmark (366.45×86.53), black, at translate(0, 271) -->
  <g transform="translate(0, 271)">
    <path d="M7.2067 74.043L33.359 0H50.6899L76.9856 74.043H84.0426V85.0588H50.9829V74.043H62.5909L57.1485 57.5911H26.1523L20.5665 74.043H32.5734V85.0588H0V74.043H7.20046H7.2067ZM53.9192 47.8908L41.588 11.1654L29.3878 47.8908H53.9254H53.9192Z" fill="#00031A"/>
    <path d="M120.469 86.3804C109.596 86.3804 99.017 84.6161 90.3453 80.6512V64.7853H101.947V73.7437C106.803 75.9506 112.533 76.9793 120.02 76.9793C131.622 76.9793 137.793 73.6003 137.793 67.4285C137.793 63.021 134.564 60.8141 126.921 59.6421L110.619 57.4352C96.8164 55.5275 90.1957 49.6487 90.1957 39.6616C90.1957 27.7606 102.097 19.8308 121.049 19.8308C130.736 19.8308 139.851 21.1587 148.815 24.3879V37.8724H137.214V31.8814C132.956 30.4101 126.927 29.3815 120.911 29.3815C110.326 29.3815 104.453 32.6108 104.453 38.1966C104.453 42.4608 107.683 45.104 114.883 46.1327L131.927 48.4829C145.73 50.5402 152.35 56.2694 152.35 65.9635C152.35 78.3009 140.007 86.3866 120.469 86.3866V86.3804Z" fill="#00031A"/>
    <path d="M203.551 75.0717C208.539 75.0717 214.124 74.3361 225.003 70.6642L228.076 81.0939C215.745 85.5015 208.096 86.5301 201.195 86.5301C184.151 86.5301 176.071 79.1863 176.071 66.2566V32.1745H154.32V21.4518H176.071V3.08594H189.73V21.4518H224.554V32.1745H189.73V64.1993C189.73 71.2502 193.988 75.0717 203.545 75.0717H203.551Z" fill="#00031A"/>
    <path d="M296.216 53.327C296.216 33.9325 311.489 20.1239 331.326 20.1239C351.164 20.1239 366.45 33.9325 366.45 53.327C366.45 72.7214 351.164 86.5301 331.326 86.5301C311.489 86.5301 296.216 72.7214 296.216 53.327ZM353.071 53.327C353.071 40.6904 343.67 31.5823 331.32 31.5823C318.97 31.5823 309.582 40.6904 309.582 53.327C309.582 65.9636 318.983 75.0717 331.32 75.0717C343.658 75.0717 353.071 65.9636 353.071 53.327Z" fill="#00031A"/>
    <path d="M275.02 39.9547C280.02 34.3752 283.978 32.4675 290.007 32.4675C292.058 32.4675 294.377 32.9102 297.456 33.9014C299.47 29.924 302.026 26.3082 305.174 23.2098C300.199 21.1775 295.73 19.9743 291.472 19.9743C283.099 19.9743 277.071 23.9392 271.641 33.1907L265.17 43.1778V21.4393H231.387V32.1558H251.511V74.3236H231.387V85.0464H286.328V74.3236H265.17V50.8146L275.013 39.9423L275.02 39.9547Z" fill="#00031A"/>
  </g>
  <!-- "AI" wordmark (134.851×85.18), black, at translate(389.5, 271) -->
  <g transform="translate(389.5, 271)">
    <path d="M105.32 74.2986V12.0319H90.015V1.14709H134.851V12.0319H119.403V74.2986H134.851V85.1835H90.015V74.2986H105.32Z" fill="#00031A"/>
    <path d="M7.20668 74.043L33.3589 0H50.6899L76.9855 74.043H84.0426V85.0588H50.9829V74.043H62.5909L57.1485 57.5911H26.1522L20.5665 74.043H32.5734V85.0588H0V74.043H7.20044H7.20668ZM53.9192 47.8908L41.588 11.1654L29.3878 47.8908H53.9254H53.9192Z" fill="#00031A"/>
  </g>
  <defs>
    <linearGradient id="sc_g1" x1="140.905" y1="223.272" x2="97.903" y2="117.516" gradientUnits="userSpaceOnUse">
      <stop stop-color="#6D5BD0"/><stop offset="1" stop-color="#A1D1A8"/>
    </linearGradient>
    <linearGradient id="sc_g2" x1="135.423" y1="112.14" x2="55.5118" y2="108.647" gradientUnits="userSpaceOnUse">
      <stop stop-color="#6D5BD0"/><stop offset="1" stop-color="#A1D1A8"/>
    </linearGradient>
  </defs>
</svg>
