<svg viewBox="0 0 524 357" fill="none" xmlns="http://www.w3.org/2000/svg">
  <!-- Mark (228×202), black, centered: translate(148, 0) -->
  <g transform="translate(148, 0)">
    <g clip-path="url(#stk_b_clip)">
      <path d="M20.4546 3.47083C21.0372 1.43083 23.0058 -0.0391745 25.105 0.000825468L223.827 3.86083C225.163 3.89083 226.358 4.52083 227.071 5.58083C227.784 6.64083 227.925 8.00083 227.453 9.28083L158.5 198.831C157.767 200.851 155.698 202.181 153.619 201.981C151.53 201.781 150.023 200.111 150.053 198.031L151.017 105.651L148.667 68.0208C148.285 61.8608 144.569 56.6508 138.924 54.3408L108.451 41.8508L108.501 41.8308L22.7447 8.31083C20.8363 7.56083 19.8721 5.52083 20.4546 3.48083V3.47083Z" fill="#00031A"/>
      <path d="M143.389 108.01L143.269 106.13L140.918 68.5C140.727 65.4 138.94 62.87 136.137 61.72L105.664 49.23L103.665 48.41L98.4218 46.36C96.6541 45.67 94.7056 45.62 92.9077 46.23L3.34484 76.45C1.25567 77.15 -0.140451 79.19 0.0102099 81.28C0.170915 83.37 1.84827 84.92 3.98766 84.95L95.5191 86.38C102.952 86.5 107.652 93.53 105.041 100.62L72.8999 187.62C72.1466 189.66 72.9401 191.81 74.7882 192.73C76.6363 193.65 78.9966 193.08 80.4129 191.38L141.491 117.81C142.656 116.4 143.309 114.64 143.329 112.81L143.389 108.01Z" fill="#00031A"/>
    </g>
  </g>
  <!-- "Astro" wordmark (366.45×86.53), black, at translate(0, 270) -->
  <g transform="translate(0, 270)">
    <path d="M7.2067 74.043L33.359 0H50.6899L76.9856 74.043H84.0426V85.0588H50.9829V74.043H62.5909L57.1485 57.5911H26.1523L20.5665 74.043H32.5734V85.0588H0V74.043H7.20046H7.2067ZM53.9192 47.8908L41.588 11.1654L29.3878 47.8908H53.9254H53.9192Z" fill="#00031A"/>
    <path d="M120.469 86.3804C109.596 86.3804 99.017 84.6161 90.3453 80.6512V64.7853H101.947V73.7437C106.803 75.9506 112.533 76.9793 120.02 76.9793C131.622 76.9793 137.793 73.6003 137.793 67.4285C137.793 63.021 134.564 60.8141 126.921 59.6421L110.619 57.4352C96.8164 55.5275 90.1957 49.6487 90.1957 39.6616C90.1957 27.7606 102.097 19.8308 121.049 19.8308C130.736 19.8308 139.851 21.1587 148.815 24.3879V37.8724H137.214V31.8814C132.956 30.4101 126.927 29.3815 120.911 29.3815C110.326 29.3815 104.453 32.6108 104.453 38.1966C104.453 42.4608 107.683 45.104 114.883 46.1327L131.927 48.4829C145.73 50.5402 152.35 56.2694 152.35 65.9635C152.35 78.3009 140.007 86.3866 120.469 86.3866V86.3804Z" fill="#00031A"/>
    <path d="M203.551 75.0717C208.539 75.0717 214.124 74.3361 225.003 70.6642L228.076 81.0939C215.745 85.5015 208.096 86.5301 201.195 86.5301C184.151 86.5301 176.071 79.1863 176.071 66.2566V32.1745H154.32V21.4518H176.071V3.08594H189.73V21.4518H224.554V32.1745H189.73V64.1993C189.73 71.2502 193.988 75.0717 203.545 75.0717H203.551Z" fill="#00031A"/>
    <path d="M296.216 53.327C296.216 33.9325 311.489 20.1239 331.326 20.1239C351.164 20.1239 366.45 33.9325 366.45 53.327C366.45 72.7214 351.164 86.5301 331.326 86.5301C311.489 86.5301 296.216 72.7214 296.216 53.327ZM353.071 53.327C353.071 40.6904 343.67 31.5823 331.32 31.5823C318.97 31.5823 309.582 40.6904 309.582 53.327C309.582 65.9636 318.983 75.0717 331.32 75.0717C343.658 75.0717 353.071 65.9636 353.071 53.327Z" fill="#00031A"/>
    <path d="M275.02 39.9547C280.02 34.3752 283.978 32.4675 290.007 32.4675C292.058 32.4675 294.377 32.9102 297.456 33.9014C299.47 29.924 302.026 26.3082 305.174 23.2098C300.199 21.1775 295.73 19.9743 291.472 19.9743C283.099 19.9743 277.071 23.9392 271.641 33.1907L265.17 43.1778V21.4393H231.387V32.1558H251.511V74.3236H231.387V85.0464H286.328V74.3236H265.17V50.8146L275.013 39.9423L275.02 39.9547Z" fill="#00031A"/>
  </g>
  <!-- "AI" wordmark (134.851×85.18), black, at translate(389.5, 270) -->
  <g transform="translate(389.5, 270)">
    <path d="M105.32 74.2986V12.0319H90.015V1.14709H134.851V12.0319H119.403V74.2986H134.851V85.1835H90.015V74.2986H105.32Z" fill="#00031A"/>
    <path d="M7.20668 74.043L33.3589 0H50.6899L76.9855 74.043H84.0426V85.0588H50.9829V74.043H62.5909L57.1485 57.5911H26.1522L20.5665 74.043H32.5734V85.0588H0V74.043H7.20044H7.20668ZM53.9192 47.8908L41.588 11.1654L29.3878 47.8908H53.9254H53.9192Z" fill="#00031A"/>
  </g>
  <defs>
    <clipPath id="stk_b_clip">
      <rect width="228" height="202" fill="white"/>
    </clipPath>
  </defs>
</svg>
