<svg preserveAspectRatio="none" width="100%" height="100%" overflow="visible" style="display: block;" viewBox="0 0 24 22.75" fill="none" xmlns="http://www.w3.org/2000/svg">
<g id="Frame">
<path id="Vector" d="M20 9.5C20 16.642 12.5 20.75 12.5 20.75C12.5 20.75 5 16.642 5 9.5C5 7.51088 5.79018 5.60322 7.1967 4.1967C8.60322 2.79018 10.5109 2 12.5 2C14.4891 2 16.3968 2.79018 17.8033 4.1967C19.2098 5.60322 20 7.51088 20 9.5Z" stroke="#4948DE" stroke-width="1.5" stroke-linecap="round" stroke-linejoin="round"/>
<path id="Vector_2" d="M15.5 10.2188C15.5 10.973 15.1839 11.6963 14.6213 12.2296C14.0587 12.7629 13.2956 13.0625 12.5 13.0625C11.7044 13.0625 10.9413 12.7629 10.3787 12.2296C9.81607 11.6963 9.5 10.973 9.5 10.2188C9.5 9.46454 9.81607 8.74122 10.3787 8.20791C10.9413 7.67461 11.7044 7.375 12.5 7.375C13.2956 7.375 14.0587 7.67461 14.6213 8.20791C15.1839 8.74122 15.5 9.46454 15.5 10.2188Z" stroke="#4948DE" stroke-width="1.5" stroke-linecap="round" stroke-linejoin="round"/>
</g>
</svg>
