<svg preserveAspectRatio="none" width="100%" height="100%" overflow="visible" style="display: block;" viewBox="0 0 168.288 33.5949" fill="none" xmlns="http://www.w3.org/2000/svg">
<g id="vercel-logotype-dark 1" clip-path="url(#clip0_219_1001)">
<path id="Vector" fill-rule="evenodd" clip-rule="evenodd" d="M38.4109 33.5792L19.2054 0.027832L0 33.5792H38.4109ZM57.7823 32.0519L73.8325 1.55298H66.8901L55.8184 23.7024L44.7466 1.55298H37.8042L53.8544 32.0519H57.7823ZM167.164 1.55298V32.052H161.416V1.55298H167.164ZM135.171 20.6684C135.171 18.2915 135.665 16.2009 136.653 14.3968C137.641 12.5926 139.018 11.2037 140.784 10.23C142.55 9.25636 144.616 8.76953 146.98 8.76953C149.076 8.76953 150.962 9.22772 152.638 10.1441C154.314 11.0605 155.646 12.4208 156.634 14.2249C157.622 16.0292 158.131 18.2342 158.161 20.8403V22.1719H141.233C141.352 24.062 141.906 25.5511 142.894 26.6394C143.912 27.699 145.275 28.2287 146.98 28.2287C148.058 28.2287 149.046 27.9424 149.944 27.3696C150.842 26.7969 151.516 26.0237 151.964 25.05L157.847 25.4796C157.128 27.6273 155.781 29.3456 153.806 30.6343C151.829 31.923 149.555 32.5673 146.98 32.5673C144.616 32.5673 142.55 32.0805 140.784 31.1068C139.018 30.1332 137.641 28.7442 136.653 26.9401C135.665 25.1359 135.171 23.0454 135.171 20.6684ZM152.234 18.5206C152.024 16.6591 151.441 15.2989 150.483 14.4397C149.524 13.552 148.358 13.1081 146.98 13.1081C145.394 13.1081 144.107 13.5806 143.119 14.5256C142.131 15.4707 141.518 16.8023 141.278 18.5206H152.234ZM125.474 14.4397C126.432 15.213 127.03 16.2869 127.27 17.6614L133.196 17.3607C132.987 15.6139 132.374 14.0961 131.355 12.8074C130.337 11.5187 129.021 10.5307 127.404 9.84341C125.818 9.12743 124.067 8.76953 122.15 8.76953C119.786 8.76953 117.721 9.25636 115.954 10.23C114.188 11.2037 112.811 12.5926 111.823 14.3968C110.835 16.2009 110.342 18.2915 110.342 20.6684C110.342 23.0454 110.835 25.1359 111.823 26.9401C112.811 28.7442 114.188 30.1332 115.954 31.1068C117.721 32.0805 119.786 32.5673 122.15 32.5673C124.126 32.5673 125.922 32.2094 127.539 31.4935C129.156 30.7488 130.472 29.7036 131.49 28.3576C132.508 27.0116 133.121 25.4366 133.331 23.6324L127.359 23.3746C127.15 24.8924 126.566 26.0666 125.608 26.8971C124.65 27.699 123.497 28.0999 122.15 28.0999C120.295 28.0999 118.858 27.4556 117.84 26.1668C116.822 24.8782 116.314 23.0454 116.314 20.6684C116.314 18.2915 116.822 16.4587 117.84 15.17C118.858 13.8813 120.295 13.237 122.15 13.237C123.438 13.237 124.545 13.6379 125.474 14.4397ZM96.3181 9.28393H101.667L101.821 13.6658C102.201 12.4255 102.728 11.4623 103.405 10.7762C104.385 9.78142 105.752 9.28393 107.505 9.28393H109.689V13.974H107.461C106.212 13.974 105.188 14.1445 104.385 14.4856C103.612 14.8268 103.018 15.3668 102.603 16.1058C102.216 16.8449 102.023 17.7829 102.023 18.9198V32.0519H96.3181V9.28393ZM71.6479 14.3968C70.6601 16.2009 70.1662 18.2915 70.1662 20.6684C70.1662 23.0454 70.6601 25.1359 71.6479 26.9401C72.6358 28.7442 74.0128 30.1332 75.779 31.1068C77.5451 32.0805 79.6106 32.5673 81.9754 32.5673C84.5494 32.5673 86.8247 31.923 88.8001 30.6343C90.7764 29.3456 92.1232 27.6273 92.8413 25.4796L86.9595 25.05C86.5108 26.0237 85.837 26.7969 84.9389 27.3696C84.0407 27.9424 83.053 28.2287 81.9754 28.2287C80.2691 28.2287 78.9071 27.699 77.8893 26.6394C76.9014 25.5511 76.3477 24.062 76.228 22.1719H93.1561V20.8403C93.1257 18.2342 92.617 16.0292 91.6293 14.2249C90.6416 12.4208 89.3096 11.0605 87.6333 10.1441C85.957 9.22772 84.0711 8.76953 81.9754 8.76953C79.6106 8.76953 77.5451 9.25636 75.779 10.23C74.0128 11.2037 72.6358 12.5926 71.6479 14.3968ZM85.4779 14.4397C86.4352 15.2989 87.0195 16.6591 87.229 18.5206H76.2728C76.5123 16.8023 77.126 15.4707 78.1138 14.5256C79.1017 13.5806 80.3888 13.1081 81.9754 13.1081C83.3521 13.1081 84.5198 13.552 85.4779 14.4397Z" fill="var(--fill-0, #101729)"/>
</g>
<defs>
<clipPath id="clip0_219_1001">
<rect width="168.288" height="33.5949" fill="white"/>
</clipPath>
</defs>
</svg>
