<svg preserveAspectRatio="none" width="100%" height="100%" overflow="visible" style="display: block;" viewBox="0 0 97.0116 28.6369" fill="none" xmlns="http://www.w3.org/2000/svg">
<path id="Vector" d="M96.869 5.19274V5.19784C96.409 7.04511 95.0858 8.38329 94.1342 9.22762L94.1109 9.24803C93.963 9.37692 93.8073 9.49734 93.6458 9.60879C93.7156 9.75247 93.775 9.90126 93.8222 10.054L93.8299 10.0822C94.0115 10.6907 94.0573 11.3318 93.9656 11.9602C93.7924 13.0106 93.5082 14.0398 93.1186 15.0304C92.9468 15.5114 92.7833 15.9669 92.658 16.4146C92.3123 17.612 91.9182 19.0294 91.601 20.4776C91.3755 21.5338 91.2961 22.616 91.3659 23.6937C91.4072 24.1699 91.3219 24.6485 91.1184 25.0809C90.9149 25.5133 90.6003 25.8839 90.2068 26.1551C89.4425 26.7448 88.5859 27.2039 87.6711 27.5137C86.1645 27.9717 85.1127 27.5725 84.4963 27.1555C84.3949 27.0873 84.2986 27.013 84.2069 26.9329C83.4452 27.4096 82.5937 27.7233 81.7047 27.854C81.3494 27.9069 80.9915 27.9342 80.6323 27.9358C79.9352 27.9557 79.242 27.8278 78.5978 27.5605C77.9531 27.2933 77.3729 26.8928 76.8942 26.3854C76.7682 26.2529 76.65 26.1137 76.5389 25.9683C76.2049 26.2091 75.8534 26.4246 75.4871 26.613C74.4553 27.1597 73.2763 27.364 72.1205 27.1964C71.1443 27.0889 70.2211 26.7005 69.462 26.0783C68.5904 25.3054 68.02 24.2499 67.8501 23.0976C67.7958 22.8109 67.759 22.5213 67.7402 22.2303C67.226 22.9646 66.6704 23.6528 66.1354 24.3001C65.1437 25.5551 63.8852 26.5741 62.4514 27.2834C60.963 28.0101 59.2571 28.1561 57.6669 27.6928C56.7899 27.4761 55.953 27.1212 55.1876 26.6412C54.7813 26.3768 54.4151 26.0554 54.1002 25.6869C53.7881 26.0092 53.4759 26.306 53.1766 26.5926C52.9949 26.7666 52.8107 26.9406 52.6316 27.1171C52.352 27.3936 52.0197 27.6112 51.6545 27.7571C51.2893 27.903 50.8986 27.9742 50.5054 27.9665C50.2963 27.9663 50.0875 27.9492 49.8811 27.9154C48.9714 27.7806 48.0835 27.5259 47.2407 27.1581L47.2151 27.1453C46.3623 26.7658 45.6334 26.154 45.1119 25.3799C44.3219 26.0256 43.4516 26.5666 42.5227 26.9892C41.6 27.4353 40.6072 27.7184 39.588 27.8258C38.692 27.9259 37.7899 27.961 36.8888 27.9307C35.3788 27.8755 33.9127 27.4083 32.6492 26.5798C31.3284 25.6807 30.3856 24.3261 30.0011 22.7752C29.9934 22.7419 29.9831 22.7087 29.9754 22.6755C29.5411 22.877 29.0841 23.0256 28.6143 23.1181C27.3911 23.3874 26.1162 23.2976 24.9428 22.8597C24.3258 22.6256 23.7784 22.2388 23.3519 21.7353C22.9254 21.2318 22.6338 20.6283 22.5044 19.9813C21.5478 21.3489 20.6762 22.7742 19.8947 24.2489C19.8129 24.3999 19.7309 24.5841 19.6414 24.776C19.4659 25.1785 19.2642 25.5691 19.0376 25.9453C18.651 26.5886 18.1011 27.1182 17.4436 27.4804C16.7863 27.8426 16.0448 28.0244 15.2944 28.0075H15.2816C14.4827 28.0306 13.6903 27.8575 12.9738 27.5034C12.8919 27.46 12.8126 27.4139 12.7358 27.3653C12.6258 27.4216 12.5158 27.4753 12.4007 27.529C11.3723 28.0475 10.2615 28.3825 9.11798 28.5192L8.93379 28.5396C8.46049 28.5857 7.94106 28.6369 7.39353 28.6369C7.23744 28.6369 7.07883 28.6318 6.92023 28.6241C5.34495 28.5573 3.83205 27.99 2.60134 27.0046C1.35812 25.9871 0.507793 24.5687 0.196278 22.9927C-0.0260232 21.9271 -0.0597925 20.8308 0.0964949 19.7535C0.325974 18.1842 0.834633 16.6686 1.59837 15.2786C2.18001 14.1678 2.87357 13.1193 3.66826 12.1495C4.53421 11.0943 5.55983 10.1809 6.70787 9.44249C7.63767 8.8363 8.67724 8.41817 9.76791 8.21182C11.2544 7.9355 12.6821 8.29116 14.1431 9.30178C14.8995 9.81934 15.5499 10.4768 16.0594 11.2386C17.0572 9.84421 18.3059 9.03826 19.7719 8.8489C20.5119 8.72815 21.2713 8.83494 21.9493 9.15519C22.6273 9.47551 23.192 9.99416 23.5688 10.6425C23.9902 10.3531 24.4353 10.0998 24.8992 9.88517C25.8734 9.40476 26.9504 9.17025 28.036 9.20203C29.7119 9.2762 30.9861 9.83142 31.9276 10.9009C32.3021 11.3275 32.5867 11.8253 32.7643 12.3644C33.141 11.9077 33.5534 11.4816 33.9975 11.0903C35.1804 9.99377 36.6524 9.25869 38.2397 8.97171C38.8217 8.88824 39.4112 8.86938 39.9974 8.91544C40.1202 8.92055 40.2456 8.92565 40.3684 8.92823C41.2556 8.96215 42.1272 9.17264 42.9321 9.54741C43.9539 9.9866 44.8222 10.7195 45.4267 11.6531C45.5546 11.4407 45.6927 11.231 45.8386 11.0288C46.7085 9.82373 47.7984 9.11242 49.0778 8.91286C49.6446 8.80606 50.2275 8.8175 50.7897 8.94652C51.3519 9.07547 51.8814 9.31929 52.3451 9.66254C52.8923 10.0868 53.3046 10.6607 53.5321 11.3147C53.7597 11.9686 53.7926 12.6746 53.6269 13.3469C53.5782 13.5772 53.5271 13.81 53.4759 14.0403C53.6832 13.5976 53.8955 13.1499 54.1182 12.7073C54.7885 11.3563 55.6737 10.4327 56.8225 9.88769C57.524 9.5383 58.3074 9.38654 59.0885 9.4487C59.8697 9.51091 60.6192 9.78477 61.2566 10.2408C61.8348 10.6348 62.5435 11.405 62.6407 12.8377C62.6726 13.7026 62.5397 14.5657 62.2493 15.381C62.1929 15.5652 62.1367 15.7519 62.0778 15.9387L62.1853 15.6931C62.4028 15.1967 62.6228 14.7004 62.8457 14.2091C63.526 12.6996 64.2244 11.1567 66.0896 10.0028C66.5024 9.73593 66.943 9.51621 67.4049 9.34785C68.8502 8.85659 71.8336 8.97688 72.888 10.8906C73.4494 10.3775 74.0839 9.95074 74.7706 9.62416C75.7068 9.15991 76.7379 8.91906 77.7825 8.92054L77.8794 8.92313C78.6773 8.90116 79.4739 9.00208 80.2414 9.22245C80.7344 9.37401 81.195 9.61609 81.5994 9.93634C82.7462 9.52952 84.2069 9.5551 85.2839 10.402C85.4964 10.5719 85.6857 10.7689 85.8472 10.9879C86.1741 10.4727 86.5456 9.98725 86.9572 9.5372C87.4191 9.02372 87.976 8.60488 88.5975 8.30395C88.3656 7.75235 88.1931 7.17774 88.0832 6.5897C87.9644 6.02893 87.8959 5.45865 87.8784 4.88567V4.83967C87.85 3.76437 88.1705 2.70881 88.792 1.83076C89.1751 1.2823 89.6816 0.831485 90.2708 0.514627C90.86 0.197769 91.5157 0.0237217 92.1844 0.00650428C93.1328 -0.0402249 94.0767 0.165486 94.9198 0.602652C95.7132 1.037 96.3379 1.72629 96.6913 2.55916C97.0453 3.39204 97.108 4.31985 96.869 5.19274Z" fill="var(--fill-0, #101729)"/>
</svg>
