<svg preserveAspectRatio="none" width="100%" height="100%" overflow="visible" style="display: block;" viewBox="0 0 25.6827 22.8542" fill="none" xmlns="http://www.w3.org/2000/svg">
<g id="Vector">
<path d="M2.33376 0.39299C2.39962 0.161298 2.62097 -0.00449415 2.85839 9.28769e-05L25.2435 0.436505C25.3941 0.439439 25.5289 0.511138 25.6088 0.630973C25.6886 0.750814 25.7047 0.905311 25.6524 1.04975L17.8851 22.4959C17.8024 22.7241 17.57 22.8745 17.3347 22.852C17.0996 22.8294 16.93 22.6405 16.9328 22.4047L17.06 11.9297L17.0414 11.952L16.777 7.69481C16.7337 6.99815 16.3159 6.40885 15.6799 6.14709L12.2474 4.73421L12.2535 4.73217L2.59158 0.939892C2.37678 0.855578 2.26795 0.624719 2.33376 0.39299Z" fill="url(#paint0_linear_219_775)"/>
<path d="M0.00139477 9.19605C-0.0166123 8.95927 0.14145 8.72892 0.376474 8.6493L12.107 4.67631L15.6799 6.14709C16.3159 6.40885 16.7337 6.99815 16.777 7.69481L17.0463 12.0282L17.0303 12.0562L17.031 12.0059L9.05711 21.6534C8.89764 21.8463 8.63089 21.9106 8.42322 21.8061C8.21557 21.7017 8.12626 21.4584 8.21099 21.2279L11.832 11.3844C12.127 10.5825 11.5971 9.78636 10.7597 9.77325L0.449726 9.61179C0.208363 9.608 0.0194378 9.43282 0.00139477 9.19605Z" fill="url(#paint1_linear_219_775)"/>
</g>
<defs>
<linearGradient id="paint0_linear_219_775" x1="15.872" y1="25.1364" x2="11.0326" y2="13.2284" gradientUnits="userSpaceOnUse">
<stop stop-color="#6D5BD0"/>
<stop offset="1" stop-color="#A1D1A8"/>
</linearGradient>
<linearGradient id="paint1_linear_219_775" x1="15.2545" y1="12.625" x2="6.25306" y2="12.2313" gradientUnits="userSpaceOnUse">
<stop stop-color="#6D5BD0"/>
<stop offset="1" stop-color="#A1D1A8"/>
</linearGradient>
</defs>
</svg>
