<svg preserveAspectRatio="none" width="100%" height="100%" overflow="visible" style="display: block;" viewBox="0 0 333.745 127.545" fill="none" xmlns="http://www.w3.org/2000/svg">
<g id="Group 2147203581">
<g id="Rectangle 1134259174" filter="url(#filter0_dd_219_860)">
<path d="M12 60.394C12 40.4567 12 30.4881 16.5722 23.2099C18.9579 19.4123 22.1689 16.2013 25.9665 13.8156C33.2447 9.24333 43.2134 9.24333 63.1506 9.24333H270.595C290.532 9.24333 300.501 9.24333 307.779 13.8156C311.576 16.2013 314.787 19.4123 317.173 23.2099C321.745 30.4881 321.745 40.4567 321.745 60.394V60.394C321.745 80.3312 321.745 90.2998 317.173 97.578C314.787 101.376 311.576 104.587 307.779 106.972C300.501 111.545 290.532 111.545 270.595 111.545H63.1507C43.2134 111.545 33.2447 111.545 25.9665 106.972C22.1689 104.587 18.9579 101.376 16.5722 97.578C12 90.2998 12 80.3312 12 60.394V60.394Z" fill="var(--fill-0, #101729)"/>
<path d="M12 39.0833C12 21.9165 25.9165 8 43.0833 8H290.662C307.829 8 321.745 21.9165 321.745 39.0833V39.0833C321.745 23.2898 308.386 10.4867 291.905 10.4867H41.84C25.3598 10.4867 12 23.2898 12 39.0833V39.0833ZM12 39.0833M321.745 111.545H12H321.745M321.745 111.545M12 111.545V9.24333V111.545M12 111.545M321.745 9.24333V111.545V9.24333" fill="var(--stroke-0, #4C5774)"/>
</g>
<g id="Vector" filter="url(#filter1_d_219_860)">
<path d="M38.9949 87.39C42.1337 87.39 44.6783 84.8455 44.6783 81.7066C44.6783 78.5678 42.1337 76.0232 38.9949 76.0232C35.856 76.0232 33.3115 78.5678 33.3115 81.7066C33.3115 84.8455 35.856 87.39 38.9949 87.39Z" fill="var(--fill-0, #22C55E)"/>
</g>
<g id="Group">
<path id="Vector_2" d="M41.8359 34.2642L47.5193 37.8164V44.9206L41.8359 48.4728L36.1525 44.9206V37.8164L41.8359 34.2642Z" stroke="var(--stroke-0, #9CA3AF)" stroke-width="1.865" stroke-linecap="round" stroke-linejoin="round"/>
<path id="Vector_3" d="M41.8349 34.2645V48.4731" stroke="var(--stroke-0, #9CA3AF)" stroke-width="1.865" stroke-linecap="round" stroke-linejoin="round"/>
<path id="Vector_4" d="M36.1525 37.8167H47.5193" stroke="var(--stroke-0, #9CA3AF)" stroke-width="1.865" stroke-linecap="round" stroke-linejoin="round"/>
</g>
<g id="Group_2">
<path id="Vector_5" d="M68.8622 35.5007V33.3978H71.0502V35.5007H68.8622ZM68.9048 47.6205V37.0352H71.0076V47.6205H68.9048Z" fill="var(--fill-0, #E2E8F0)"/>
<path id="Vector_6" d="M74.1803 47.6201V37.0348H76.1127L76.1979 39.8623L75.9422 39.7202C76.0558 39.024 76.2832 38.4698 76.6242 38.0436C76.951 37.6173 77.363 37.3047 77.8319 37.0916C78.315 36.8927 78.8265 36.779 79.3806 36.779C80.1763 36.779 80.8299 36.9495 81.3556 37.3047C81.8813 37.6599 82.2791 38.1288 82.5491 38.7398C82.8191 39.3366 82.9612 40.0328 82.9612 40.8V47.6059H80.8583V41.4394C80.8583 40.8142 80.7873 40.2885 80.6594 39.8623C80.5315 39.436 80.3042 39.1092 80.0058 38.8819C79.7074 38.6545 79.2954 38.5409 78.8123 38.5409C78.0735 38.5409 77.4625 38.7824 77.0078 39.2797C76.5389 39.7628 76.3116 40.4874 76.3116 41.4252V47.5917H74.2087L74.1803 47.6201Z" fill="var(--fill-0, #E2E8F0)"/>
<path id="Vector_7" d="M89.9514 50.8458C89.113 50.8458 88.3742 50.7179 87.749 50.4622C87.1096 50.2064 86.5839 49.8512 86.1719 49.3965C85.7598 48.9419 85.4757 48.4019 85.3336 47.791L87.5217 47.6489C87.6638 48.0894 87.9195 48.4304 88.2889 48.6861C88.6584 48.9419 89.2125 49.0697 89.9514 49.0697C90.8323 49.0697 91.5001 48.885 91.9689 48.5156C92.4378 48.1462 92.6794 47.5779 92.6794 46.8248V45.2903C92.4236 45.8302 92.0258 46.2707 91.4716 46.5833C90.9175 46.8958 90.2924 47.0663 89.5961 47.0663C88.7152 47.0663 87.9195 46.8532 87.2233 46.4128C86.5271 45.9723 86.0014 45.3755 85.6177 44.6083C85.2341 43.841 85.0352 42.9459 85.0352 41.9371C85.0352 40.9283 85.2199 40.0189 85.6036 39.2517C85.9872 38.4844 86.5129 37.8734 87.1949 37.4472C87.8769 37.0067 88.6442 36.7936 89.5109 36.7936C90.2639 36.7936 90.9317 36.9641 91.5143 37.3051C92.0968 37.6461 92.5089 38.115 92.7646 38.6975V37.0209H94.7965V46.768C94.7965 47.6489 94.5975 48.3877 94.2139 48.9845C93.8303 49.5813 93.2619 50.0501 92.5373 50.3627C91.8126 50.6753 90.9601 50.8316 89.9655 50.8316L89.9514 50.8458ZM89.9371 45.2903C90.7612 45.2903 91.4148 44.9919 91.9121 44.3951C92.4094 43.7984 92.6652 42.9743 92.6794 41.9229C92.6794 41.2266 92.5799 40.6441 92.3668 40.1468C92.1394 39.6495 91.8269 39.2659 91.4006 38.9959C90.9886 38.726 90.4913 38.5839 89.9371 38.5839C89.0704 38.5839 88.4026 38.8822 87.9337 39.4932C87.4648 40.1042 87.2233 40.9141 87.2233 41.9229C87.2233 42.9317 87.4649 43.77 87.9479 44.3809C88.431 44.9777 89.0846 45.2903 89.9229 45.2903H89.9371Z" fill="var(--fill-0, #E2E8F0)"/>
<path id="Vector_8" d="M101.926 47.862C100.888 47.862 99.9932 47.6347 99.2544 47.18C98.5013 46.7253 97.933 46.086 97.5209 45.2477C97.1089 44.4094 96.91 43.4432 96.91 42.3207C96.91 41.1982 97.1089 40.2321 97.5209 39.408C97.933 38.5839 98.5013 37.9303 99.2401 37.4756C99.979 37.0209 100.86 36.7936 101.869 36.7936C102.821 36.7936 103.659 37.0209 104.398 37.4614C105.122 37.9019 105.691 38.5412 106.103 39.3795C106.501 40.2178 106.714 41.2266 106.714 42.406V42.9459H99.1123C99.1691 43.9831 99.4391 44.7504 99.9364 45.2761C100.434 45.7876 101.101 46.0575 101.954 46.0575C102.579 46.0575 103.091 45.9155 103.503 45.6171C103.915 45.3187 104.199 44.9351 104.355 44.4378L106.543 44.5799C106.259 45.5602 105.719 46.3559 104.909 46.9527C104.099 47.5494 103.105 47.862 101.94 47.862H101.926ZM99.0981 41.3545H104.469C104.398 40.4168 104.128 39.7205 103.659 39.2659C103.19 38.8112 102.593 38.5839 101.855 38.5839C101.116 38.5839 100.476 38.8254 99.9932 39.2943C99.5101 39.7632 99.2117 40.4452 99.0839 41.3545H99.0981Z" fill="var(--fill-0, #E2E8F0)"/>
<path id="Vector_9" d="M112.909 47.8615C111.915 47.8615 111.076 47.7052 110.394 47.4068C109.712 47.1084 109.186 46.6822 108.817 46.1422C108.448 45.6023 108.234 44.9914 108.178 44.2809L110.352 44.1815C110.465 44.764 110.707 45.2329 111.105 45.5739C111.502 45.9149 112.113 46.0854 112.909 46.0854C113.577 46.0854 114.088 45.9859 114.486 45.7728C114.884 45.5597 115.069 45.2187 115.069 44.764C115.069 44.5083 115.012 44.2951 114.884 44.1104C114.756 43.9257 114.515 43.7836 114.159 43.6558C113.804 43.5279 113.264 43.4142 112.568 43.2863C111.517 43.0874 110.693 42.8601 110.096 42.5901C109.499 42.3202 109.073 41.9934 108.817 41.5813C108.561 41.1693 108.433 40.672 108.433 40.0894C108.433 39.1232 108.789 38.3276 109.513 37.7166C110.238 37.1056 111.275 36.8073 112.639 36.8073C113.548 36.8073 114.33 36.9635 114.941 37.2761C115.566 37.5887 116.049 38.0008 116.404 38.5265C116.76 39.0522 116.973 39.6347 117.072 40.2883L114.898 40.402C114.827 40.0326 114.699 39.7058 114.515 39.4358C114.33 39.1659 114.074 38.9527 113.747 38.7964C113.435 38.6401 113.051 38.5691 112.611 38.5691C111.929 38.5691 111.431 38.697 111.105 38.9669C110.778 39.2369 110.607 39.5779 110.607 40.0042C110.607 40.3168 110.678 40.5867 110.835 40.7856C110.991 40.9846 111.232 41.1408 111.588 41.2687C111.929 41.3966 112.383 41.5103 112.966 41.5955C114.06 41.7802 114.927 42.0076 115.552 42.2775C116.177 42.5475 116.618 42.8885 116.859 43.2863C117.115 43.6842 117.243 44.1673 117.243 44.7356C117.243 45.4034 117.058 45.9575 116.689 46.4264C116.319 46.8953 115.808 47.2505 115.154 47.4921C114.5 47.7336 113.747 47.8615 112.909 47.8615Z" fill="var(--fill-0, #E2E8F0)"/>
<path id="Vector_10" d="M118.493 38.7685V37.035H125.015V38.7685H118.493ZM123.054 47.6204C122.046 47.6204 121.307 47.393 120.824 46.9242C120.341 46.4553 120.113 45.7449 120.113 44.7503V34.5486H122.216V44.594C122.216 45.0913 122.316 45.4181 122.529 45.6028C122.742 45.7875 123.069 45.8869 123.509 45.8869H125.015V47.6204H123.04H123.054Z" fill="var(--fill-0, #E2E8F0)"/>
<path id="Vector_11" d="M126.988 35.5007V33.3978H129.176V35.5007H126.988ZM127.031 47.6205V37.0352H129.133V47.6205H127.031Z" fill="var(--fill-0, #E2E8F0)"/>
<path id="Vector_12" d="M136.283 47.862C135.274 47.862 134.393 47.6347 133.64 47.18C132.887 46.7253 132.304 46.086 131.892 45.2477C131.48 44.4094 131.281 43.4432 131.281 42.3207C131.281 41.1982 131.48 40.2178 131.892 39.3938C132.304 38.5697 132.887 37.9303 133.64 37.4756C134.393 37.0209 135.274 36.7936 136.283 36.7936C137.291 36.7936 138.172 37.0209 138.925 37.4756C139.679 37.9303 140.261 38.5697 140.673 39.3938C141.085 40.2178 141.284 41.184 141.284 42.3207C141.284 43.4574 141.085 44.4094 140.673 45.2477C140.261 46.086 139.679 46.7253 138.925 47.18C138.172 47.6347 137.291 47.862 136.283 47.862ZM136.283 46.0291C137.178 46.0291 137.874 45.7023 138.371 45.0487C138.854 44.3951 139.11 43.4858 139.11 42.3349C139.11 41.184 138.869 40.2747 138.371 39.6211C137.874 38.9675 137.178 38.6407 136.283 38.6407C135.388 38.6407 134.706 38.9675 134.208 39.6211C133.711 40.2747 133.469 41.184 133.469 42.3349C133.469 43.4858 133.711 44.3951 134.208 45.0487C134.706 45.7023 135.402 46.0291 136.283 46.0291Z" fill="var(--fill-0, #E2E8F0)"/>
<path id="Vector_13" d="M143.413 47.6201V37.0348H145.346L145.431 39.8623L145.175 39.7202C145.289 39.024 145.516 38.4698 145.857 38.0436C146.184 37.6173 146.596 37.3047 147.065 37.0916C147.548 36.8927 148.06 36.779 148.614 36.779C149.409 36.779 150.063 36.9495 150.589 37.3047C151.114 37.6599 151.512 38.1288 151.782 38.7398C152.052 39.3366 152.194 40.0328 152.194 40.8V47.6059H150.091V41.4394C150.091 40.8142 150.02 40.2885 149.893 39.8623C149.765 39.436 149.537 39.1092 149.239 38.8819C148.941 38.6545 148.529 38.5409 148.045 38.5409C147.307 38.5409 146.696 38.7824 146.241 39.2797C145.772 39.7628 145.545 40.4874 145.545 41.4252V47.5917H143.442L143.413 47.6201Z" fill="var(--fill-0, #E2E8F0)"/>
<path id="Vector_14" d="M154.511 42.7465V40.8994H161.175V42.7465H154.511Z" fill="var(--fill-0, #E2E8F0)"/>
<path id="Vector_15" d="M165.468 47.6206L162.243 37.0352H164.445L166.719 45.3046L169.049 37.0352H171.038L173.368 45.3046L175.656 37.0352H177.858L174.633 47.6206H172.26L170.029 40.0616L167.799 47.6206H165.454H165.468Z" fill="var(--fill-0, #E2E8F0)"/>
<path id="Vector_16" d="M183.597 47.862C182.56 47.862 181.665 47.6347 180.926 47.18C180.173 46.7253 179.604 46.086 179.192 45.2477C178.78 44.4094 178.581 43.4432 178.581 42.3207C178.581 41.1982 178.78 40.2321 179.192 39.408C179.59 38.5839 180.173 37.9303 180.911 37.4756C181.65 37.0209 182.531 36.7936 183.54 36.7936C184.492 36.7936 185.33 37.0209 186.069 37.4614C186.794 37.9019 187.362 38.5412 187.774 39.3795C188.186 40.2178 188.385 41.2266 188.385 42.406V42.9459H180.784C180.84 43.9831 181.11 44.7504 181.608 45.2761C182.105 45.7876 182.773 46.0575 183.625 46.0575C184.25 46.0575 184.762 45.9155 185.174 45.6171C185.586 45.3187 185.87 44.9351 186.027 44.4378L188.215 44.5799C187.93 45.5602 187.391 46.3559 186.566 46.9527C185.742 47.5494 184.762 47.862 183.597 47.862ZM180.784 41.3545H186.154C186.083 40.4168 185.813 39.7205 185.345 39.2659C184.876 38.8112 184.279 38.5839 183.54 38.5839C182.801 38.5839 182.162 38.8254 181.679 39.2943C181.196 39.7632 180.897 40.4452 180.769 41.3545H180.784Z" fill="var(--fill-0, #E2E8F0)"/>
<path id="Vector_17" d="M195.771 47.8616C195.047 47.8616 194.393 47.7053 193.839 47.3785C193.27 47.0517 192.844 46.6112 192.532 46.0287L192.475 47.62H190.5V33.4968H192.603V38.5266C192.887 38.0577 193.299 37.6599 193.853 37.3189C194.407 36.9778 195.047 36.8073 195.771 36.8073C196.68 36.8073 197.476 37.0347 198.158 37.4894C198.84 37.944 199.352 38.5834 199.721 39.4075C200.091 40.2316 200.261 41.212 200.261 42.3487C200.261 43.4853 200.076 44.4515 199.721 45.2756C199.352 46.0997 198.84 46.7391 198.158 47.1938C197.476 47.6484 196.68 47.8758 195.771 47.8758V47.8616ZM195.43 46.0287C196.24 46.0287 196.879 45.7019 197.362 45.0483C197.846 44.3947 198.073 43.4853 198.073 42.3345C198.073 41.1836 197.831 40.2742 197.362 39.6206C196.894 38.967 196.254 38.6402 195.459 38.6402C194.862 38.6402 194.35 38.7823 193.924 39.0807C193.498 39.3791 193.171 39.7911 192.944 40.3453C192.716 40.8994 192.603 41.5672 192.603 42.3487C192.603 43.1301 192.716 43.7553 192.944 44.3236C193.171 44.8778 193.498 45.304 193.924 45.6024C194.35 45.9008 194.848 46.0429 195.43 46.0429V46.0287Z" fill="var(--fill-0, #E2E8F0)"/>
<path id="Vector_18" d="M202.394 47.62V33.4968H204.497V39.4217L204.241 39.3791C204.355 38.7823 204.582 38.2992 204.895 37.9156C205.207 37.532 205.605 37.262 206.074 37.0773C206.543 36.8926 207.054 36.7931 207.609 36.7931C208.376 36.7931 209.029 36.9636 209.555 37.3046C210.081 37.6456 210.493 38.1145 210.763 38.7255C211.033 39.3365 211.175 40.0327 211.175 40.8141V47.62H209.072V41.3683C209.072 40.4163 208.902 39.7059 208.589 39.2512C208.262 38.7965 207.751 38.5692 207.069 38.5692C206.301 38.5692 205.676 38.8107 205.222 39.2938C204.753 39.7769 204.525 40.4873 204.525 41.4109V47.62H202.422H202.394Z" fill="var(--fill-0, #E2E8F0)"/>
<path id="Vector_19" d="M218.279 47.862C217.271 47.862 216.39 47.6347 215.637 47.18C214.884 46.7253 214.301 46.086 213.889 45.2477C213.477 44.4094 213.278 43.4432 213.278 42.3207C213.278 41.1982 213.477 40.2178 213.889 39.3938C214.301 38.5697 214.884 37.9303 215.637 37.4756C216.39 37.0209 217.271 36.7936 218.279 36.7936C219.288 36.7936 220.169 37.0209 220.922 37.4756C221.675 37.9303 222.258 38.5697 222.67 39.3938C223.082 40.2178 223.281 41.184 223.281 42.3207C223.281 43.4574 223.068 44.4094 222.67 45.2477C222.272 46.086 221.675 46.7253 220.922 47.18C220.169 47.6347 219.288 47.862 218.279 47.862ZM218.279 46.0291C219.175 46.0291 219.871 45.7023 220.368 45.0487C220.865 44.3951 221.107 43.4858 221.107 42.3349C221.107 41.184 220.865 40.2747 220.368 39.6211C219.885 38.9675 219.189 38.6407 218.279 38.6407C217.37 38.6407 216.702 38.9675 216.205 39.6211C215.708 40.2747 215.452 41.184 215.452 42.3349C215.452 43.4858 215.708 44.3951 216.205 45.0487C216.702 45.7023 217.398 46.0291 218.279 46.0291Z" fill="var(--fill-0, #E2E8F0)"/>
<path id="Vector_20" d="M229.775 47.862C228.767 47.862 227.886 47.6347 227.133 47.18C226.38 46.7253 225.797 46.086 225.385 45.2477C224.973 44.4094 224.774 43.4432 224.774 42.3207C224.774 41.1982 224.973 40.2178 225.385 39.3938C225.797 38.5697 226.38 37.9303 227.133 37.4756C227.886 37.0209 228.767 36.7936 229.775 36.7936C230.784 36.7936 231.665 37.0209 232.418 37.4756C233.171 37.9303 233.754 38.5697 234.166 39.3938C234.578 40.2178 234.777 41.184 234.777 42.3207C234.777 43.4574 234.578 44.4094 234.166 45.2477C233.754 46.086 233.171 46.7253 232.418 47.18C231.665 47.6347 230.784 47.862 229.775 47.862ZM229.775 46.0291C230.671 46.0291 231.367 45.7023 231.864 45.0487C232.347 44.3951 232.603 43.4858 232.603 42.3349C232.603 41.184 232.361 40.2747 231.864 39.6211C231.367 38.9675 230.671 38.6407 229.775 38.6407C228.88 38.6407 228.198 38.9675 227.701 39.6211C227.204 40.2747 226.962 41.184 226.962 42.3349C226.962 43.4858 227.204 44.3951 227.701 45.0487C228.198 45.7023 228.894 46.0291 229.775 46.0291Z" fill="var(--fill-0, #E2E8F0)"/>
<path id="Vector_21" d="M236.906 47.62V33.4968H239.009V42.2634L243.769 37.0347H246.44L242.305 41.4962L246.596 47.62H244.167L240.885 42.8033L239.009 44.7925V47.62H236.906Z" fill="var(--fill-0, #E2E8F0)"/>
</g>
<g id="Group_3">
<path id="Vector_22" d="M269.999 47.6207C269.999 46.3704 270.17 45.12 270.525 43.8839C270.88 42.6477 271.363 41.4258 272.017 40.2607C272.67 39.0956 273.438 37.9873 274.333 36.9501H267.754V35.5151H275.938V36.8507C275.171 37.7174 274.517 38.5699 273.963 39.4224C273.409 40.2749 272.954 41.1416 272.613 42.0083C272.272 42.8751 272.002 43.7702 271.832 44.708C271.661 45.6315 271.576 46.6119 271.576 47.6349H270.013L269.999 47.6207Z" fill="var(--fill-0, #6B7280)"/>
<path id="Vector_23" d="M281.507 47.8193C280.711 47.8193 280.029 47.6204 279.447 47.2368C278.864 46.8531 278.424 46.299 278.111 45.6028C277.799 44.8924 277.642 44.0683 277.642 43.1021C277.642 42.1359 277.799 41.2976 278.111 40.6014C278.424 39.891 278.864 39.351 279.447 38.9674C280.029 38.5838 280.711 38.3849 281.507 38.3849C282.147 38.3849 282.701 38.5412 283.184 38.8395C283.667 39.1379 284.008 39.4789 284.221 39.8483V35.5147H285.656V47.6204H284.363L284.306 46.2564C284.051 46.7395 283.681 47.1231 283.198 47.4073C282.715 47.6914 282.147 47.8193 281.507 47.8193ZM281.592 46.4553C282.132 46.4553 282.601 46.3132 282.999 46.0433C283.397 45.7733 283.695 45.3755 283.908 44.8782C284.122 44.3666 284.221 43.7841 284.221 43.1021C284.221 42.4201 284.122 41.7949 283.908 41.2976C283.695 40.8003 283.397 40.4167 282.999 40.1467C282.601 39.8768 282.118 39.7489 281.564 39.7489C280.825 39.7489 280.243 40.0473 279.802 40.644C279.362 41.2408 279.149 42.0649 279.149 43.1021C279.149 44.1393 279.362 44.9492 279.802 45.5602C280.243 46.1711 280.839 46.4695 281.607 46.4695L281.592 46.4553Z" fill="var(--fill-0, #6B7280)"/>
</g>
<g id="Group_4">
<path id="Vector_24" d="M59.4984 87.6738C58.3475 87.6738 57.3671 87.4181 56.543 86.9208C55.7189 86.4093 55.0795 85.6846 54.6391 84.7469C54.1986 83.8091 53.9713 82.6724 53.9713 81.3652C53.9713 80.0581 54.1986 78.9356 54.6391 77.9836C55.0795 77.0317 55.7189 76.307 56.543 75.7955C57.3671 75.284 58.3475 75.0283 59.4984 75.0283C60.6492 75.0283 61.6439 75.284 62.468 75.7955C63.2921 76.307 63.9314 77.0317 64.3719 77.9836C64.8124 78.9356 65.0397 80.0581 65.0397 81.3652C65.0397 82.6724 64.8124 83.7949 64.3719 84.7469C63.9314 85.6846 63.2921 86.4093 62.468 86.9208C61.6439 87.4323 60.6492 87.6738 59.4984 87.6738ZM59.4984 86.2388C60.3367 86.2388 61.0613 86.0398 61.6581 85.6562C62.2548 85.2726 62.7095 84.7185 63.0363 83.9796C63.3489 83.255 63.5194 82.3741 63.5194 81.351C63.5194 80.328 63.3631 79.4471 63.0363 78.7225C62.7237 77.9836 62.2548 77.4295 61.6581 77.0317C61.0613 76.6338 60.3367 76.4491 59.4984 76.4491C58.6601 76.4491 57.9497 76.648 57.3529 77.0317C56.7561 77.4153 56.3015 77.9836 55.9747 78.7225C55.6621 79.4613 55.4916 80.328 55.4916 81.351C55.4916 82.3741 55.6479 83.255 55.9747 83.9796C56.2873 84.7042 56.7561 85.2584 57.3529 85.6562C57.9497 86.0398 58.6601 86.2388 59.4984 86.2388Z" fill="var(--fill-0, #9CA3AF)"/>
<path id="Vector_25" d="M67.1718 87.4041V78.3675H68.4789L68.5358 80.6693L68.3653 80.513C68.479 79.9731 68.6779 79.5326 68.962 79.1916C69.2462 78.8506 69.5872 78.5806 69.9993 78.4101C70.3971 78.2396 70.8376 78.1544 71.3065 78.1544C72.0027 78.1544 72.571 78.3107 73.0257 78.6091C73.4804 78.9216 73.8071 79.3337 74.0345 79.8452C74.2618 80.3567 74.3613 80.9393 74.3613 81.5786V87.3899H72.9262V81.9907C72.9262 81.4366 72.8552 80.9677 72.7273 80.584C72.5994 80.2004 72.3863 79.9162 72.1021 79.7173C71.818 79.5184 71.4486 79.4189 70.9939 79.4189C70.2977 79.4189 69.7293 79.6321 69.2746 80.0725C68.8199 80.513 68.6068 81.1524 68.6068 81.9907V87.3899H67.1718V87.4041Z" fill="var(--fill-0, #9CA3AF)"/>
<path id="Vector_26" d="M78.5982 87.4037C78.0725 87.4037 77.6463 87.2616 77.3195 86.9916C76.9927 86.7216 76.8222 86.2812 76.8222 85.6986V75.298H78.2573V85.585C78.2573 85.7697 78.2999 85.9118 78.3993 85.997C78.4988 86.0823 78.6409 86.1391 78.8114 86.1391H79.5929V87.4037H78.5841H78.5982Z" fill="var(--fill-0, #9CA3AF)"/>
<path id="Vector_27" d="M81.1933 76.9464V75.2698H82.6994V76.9464H81.1933ZM81.2359 87.4038V78.3672H82.671V87.4038H81.2359Z" fill="var(--fill-0, #9CA3AF)"/>
<path id="Vector_28" d="M85.5741 87.4041V78.3675H86.8813L86.9381 80.6693L86.7676 80.513C86.8812 79.9731 87.0802 79.5326 87.3644 79.1916C87.6485 78.8506 87.9895 78.5806 88.4016 78.4101C88.8136 78.2396 89.2399 78.1544 89.7088 78.1544C90.405 78.1544 90.9733 78.3107 91.428 78.6091C91.8826 78.9216 92.2095 79.3337 92.4368 79.8452C92.6641 80.3567 92.7636 80.9393 92.7636 81.5786V87.3899H91.3285V81.9907C91.3285 81.4366 91.2575 80.9677 91.1296 80.584C91.0017 80.2004 90.7886 79.9162 90.5044 79.7173C90.2203 79.5184 89.8508 79.4189 89.3962 79.4189C88.6999 79.4189 88.1316 79.6321 87.6769 80.0725C87.2223 80.513 87.0091 81.1524 87.0091 81.9907V87.3899H85.5741V87.4041Z" fill="var(--fill-0, #9CA3AF)"/>
<path id="Vector_29" d="M98.8006 87.603C97.9481 87.603 97.2093 87.4041 96.5983 87.0205C95.9731 86.6369 95.5042 86.0827 95.1632 85.3723C94.8222 84.6619 94.6659 83.8236 94.6659 82.8716C94.6659 81.9196 94.8364 81.0813 95.1632 80.3851C95.5042 79.6747 95.9731 79.1348 96.5841 78.7369C97.1951 78.3391 97.9055 78.1544 98.7438 78.1544C99.5253 78.1544 100.221 78.3391 100.818 78.7085C101.415 79.0779 101.884 79.6179 102.225 80.3141C102.566 81.0245 102.722 81.877 102.722 82.8858V83.3121H96.1578C96.2147 84.2783 96.4704 85.0029 96.9393 85.5002C97.4082 85.9975 98.0191 86.239 98.8006 86.239C99.3974 86.239 99.8805 86.0969 100.264 85.827C100.648 85.5428 100.903 85.1876 101.06 84.7329L102.594 84.8466C102.353 85.6565 101.898 86.3101 101.244 86.8358C100.577 87.3473 99.7668 87.6173 98.8148 87.6173L98.8006 87.603ZM96.1578 82.0617H101.159C101.088 81.1808 100.832 80.5414 100.406 80.1294C99.9657 79.7173 99.4116 79.5184 98.7438 79.5184C98.076 79.5184 97.4792 79.7315 97.0245 80.1578C96.5699 80.584 96.2857 81.2234 96.1578 82.0617Z" fill="var(--fill-0, #9CA3AF)"/>
</g>
</g>
<defs>
<filter id="filter0_dd_219_860" x="-1.56229e-07" y="3.57628e-07" width="333.745" height="127.545" filterUnits="userSpaceOnUse" color-interpolation-filters="sRGB">
<feFlood flood-opacity="0" result="BackgroundImageFix"/>
<feColorMatrix in="SourceAlpha" type="matrix" values="0 0 0 0 0 0 0 0 0 0 0 0 0 0 0 0 0 0 127 0" result="hardAlpha"/>
<feOffset dy="4"/>
<feGaussianBlur stdDeviation="2"/>
<feComposite in2="hardAlpha" operator="out"/>
<feColorMatrix type="matrix" values="0 0 0 0 0 0 0 0 0 0 0 0 0 0 0 0 0 0 0.25 0"/>
<feBlend mode="normal" in2="BackgroundImageFix" result="effect1_dropShadow_219_860"/>
<feColorMatrix in="SourceAlpha" type="matrix" values="0 0 0 0 0 0 0 0 0 0 0 0 0 0 0 0 0 0 127 0" result="hardAlpha"/>
<feOffset dy="4"/>
<feGaussianBlur stdDeviation="6"/>
<feComposite in2="hardAlpha" operator="out"/>
<feColorMatrix type="matrix" values="0 0 0 0 0.596078 0 0 0 0 0.541176 0 0 0 0 0.87451 0 0 0 1 0"/>
<feBlend mode="normal" in2="effect1_dropShadow_219_860" result="effect2_dropShadow_219_860"/>
<feBlend mode="normal" in="SourceGraphic" in2="effect2_dropShadow_219_860" result="shape"/>
</filter>
<filter id="filter1_d_219_860" x="17.1482" y="59.8599" width="43.6934" height="43.6934" filterUnits="userSpaceOnUse" color-interpolation-filters="sRGB">
<feFlood flood-opacity="0" result="BackgroundImageFix"/>
<feColorMatrix in="SourceAlpha" type="matrix" values="0 0 0 0 0 0 0 0 0 0 0 0 0 0 0 0 0 0 127 0" result="hardAlpha"/>
<feOffset/>
<feGaussianBlur stdDeviation="8.08166"/>
<feComposite in2="hardAlpha" operator="out"/>
<feColorMatrix type="matrix" values="0 0 0 0 0.631373 0 0 0 0 0.819608 0 0 0 0 0.658824 0 0 0 1 0"/>
<feBlend mode="normal" in2="BackgroundImageFix" result="effect1_dropShadow_219_860"/>
<feBlend mode="normal" in="SourceGraphic" in2="effect1_dropShadow_219_860" result="shape"/>
</filter>
</defs>
</svg>
