<svg preserveAspectRatio="none" width="100%" height="100%" overflow="visible" style="display: block;" viewBox="0 0 36 36" fill="none" xmlns="http://www.w3.org/2000/svg">
<g id="Group 2147203522">
<path id="Union" d="M20.62 7.55526C20.8894 8.34574 21.8352 8.66564 22.5291 8.20096L26.1774 5.75776C27.1959 5.07573 28.4941 6.08933 28.0795 7.2428L26.823 10.7386C26.5255 11.5662 27.1388 12.4384 28.0183 12.4384H31.936C33.181 12.4384 33.6828 14.0437 32.6593 14.7527L29.344 17.0494C28.6219 17.5497 28.6135 18.6145 29.3277 19.1261L32.6035 21.4728C33.6154 22.1977 33.089 23.7945 31.8444 23.7754L27.9207 23.7154C27.0421 23.7019 26.4156 24.5633 26.699 25.3951L27.8985 28.9152C28.2937 30.0749 26.98 31.0667 25.9729 30.369L22.3635 27.8683C21.6774 27.393 20.7271 27.6973 20.4448 28.4828L19.0037 32.492C18.5937 33.6327 16.9712 33.6056 16.5995 32.4519L15.393 28.7079C15.1316 27.8967 14.1612 27.5681 13.4607 28.0534L10.118 30.3692C9.1109 31.0668 7.7972 30.0751 8.19235 28.9154L9.49396 25.0954C9.7721 24.2791 9.17333 23.4289 8.31106 23.4157L4.06668 23.3509C2.82149 23.3318 2.34455 21.7185 3.37926 21.0255L6.46045 18.9618C7.20451 18.4635 7.21309 17.3724 6.47696 16.8624L3.4317 14.7527C2.40826 14.0437 2.90998 12.4384 4.15503 12.4384H8.4063C9.26793 12.4384 9.87954 11.5988 9.61526 10.7786L8.3764 6.93433C8.00078 5.76875 9.32961 4.79899 10.3251 5.51219L13.6302 7.88009C14.3227 8.37616 15.2975 8.06353 15.5723 7.25728L16.8432 3.52808C17.2342 2.38079 18.8568 2.38082 19.2478 3.52813L20.62 7.55526Z" fill="var(--fill-0, #56C4C2)"/>
<path id="Ellipse 125" d="M13.5595 16.0505C14.8005 16.0505 15.7069 16.9952 15.707 18.0407C15.707 19.0863 14.8006 20.0319 13.5595 20.0319C12.3187 20.0318 11.4131 19.0862 11.4131 18.0407C11.4132 16.9953 12.3188 16.0506 13.5595 16.0505Z" stroke="var(--stroke-0, white)" stroke-width="2.43288"/>
<path id="Ellipse 126" d="M22.3955 16.0505C23.6365 16.0505 24.5429 16.9952 24.543 18.0407C24.543 19.0863 23.6365 20.0319 22.3955 20.0319C21.1547 20.0318 20.249 19.0862 20.249 18.0407C20.2492 16.9953 21.1547 16.0506 22.3955 16.0505Z" stroke="var(--stroke-0, white)" stroke-width="2.43288"/>
</g>
</svg>
