<svg preserveAspectRatio="none" width="100%" height="100%" overflow="visible" style="display: block;" viewBox="0 0 16.83 16.8301" fill="none" xmlns="http://www.w3.org/2000/svg">
<g id="icons">
<path id="linkedin-[#161]" fill-rule="evenodd" clip-rule="evenodd" d="M16.8299 16.8301H13.464V10.9404C13.464 9.32476 12.7512 8.42334 11.473 8.42334C10.082 8.42334 9.25647 9.36263 9.25647 10.9404V16.8301H5.89048V5.89063H9.25647V7.12083C9.25647 7.12083 10.3125 5.26773 12.6923 5.26773C15.0729 5.26773 16.8299 6.72044 16.8299 9.72626V16.8301ZM2.05494 4.14108C0.919757 4.14108 0 3.2138 0 2.0702C0 0.927451 0.919757 0.000154212 2.05494 0.000154212C3.18927 0.000154212 4.10903 0.927451 4.10903 2.0702C4.10987 3.2138 3.18927 4.14108 2.05494 4.14108ZM0 16.8301H4.20748V5.89063H0V16.8301Z" fill="var(--fill-0, white)"/>
</g>
</svg>
