<svg preserveAspectRatio="none" width="100%" height="100%" overflow="visible" style="display: block;" viewBox="0 0 137.434 33.595" fill="none" xmlns="http://www.w3.org/2000/svg">
<g id="Group 2147203460">
<path id="Vector" d="M98.0104 13.0846C95.9871 13.0846 94.5431 13.7711 93.8343 15.0711L93.4535 15.7751V13.4235H90.1611V27.7173H93.624V19.2135C93.624 17.1817 94.7357 16.0161 96.6723 16.0161C98.5192 16.0161 99.578 17.1511 99.578 19.1288V27.7173H103.042V18.5153C103.042 15.112 101.162 13.0846 98.0104 13.0846ZM81.2162 13.0846C77.1298 13.0846 74.5991 15.6174 74.5991 19.694V21.7009C74.5991 25.6213 77.1592 28.0562 81.2809 28.0562C84.0381 28.0562 85.9702 27.0527 87.1863 24.9888L85.0394 23.7619C84.141 24.9523 82.7058 25.6899 81.2824 25.6899C79.1958 25.6899 77.9503 24.4104 77.9503 22.2662V21.698H87.6157V19.3274C87.6157 15.5297 85.1056 13.0846 81.2192 13.0846H81.2162ZM84.4645 19.3873H77.9386V19.044C77.9386 16.691 79.1017 15.3924 81.2133 15.3924C83.2469 15.3924 84.4615 16.672 84.4615 18.8162L84.4645 19.3873ZM137.434 11.0704V8.33611H125.455V11.0704H129.655V24.9771H125.455V27.7115H137.434V24.9771H133.233V11.0704H137.434ZM46.6088 7.94174C41.2592 7.94174 37.933 11.253 37.933 16.5858V19.4691C37.933 24.8004 41.2577 28.1131 46.6088 28.1131C51.9598 28.1131 55.2845 24.8004 55.2845 19.4691V16.5858C55.2831 11.2472 51.9539 7.94174 46.6088 7.94174ZM51.7054 19.6663C51.7054 23.2069 49.8482 25.2371 46.6088 25.2371C43.3693 25.2371 41.5136 23.2069 41.5136 19.6663V16.3871C41.5136 12.8466 43.3723 10.8163 46.6102 10.8163C49.8482 10.8163 51.7069 12.8466 51.7069 16.3871L51.7054 19.6663ZM66.1616 13.0846C64.3441 13.0846 62.7707 13.8325 61.9502 15.0843L61.5781 15.6539V13.4235H58.2843V32.6353H61.7487V25.6768L62.1193 26.2231C62.8986 27.3711 64.4205 28.0562 66.191 28.0562C69.1775 28.0562 72.1905 26.1179 72.1905 21.7857V19.3552C72.1905 16.2338 70.3333 13.0846 66.1616 13.0846ZM68.7261 21.6177C68.7261 23.9211 67.3732 25.3525 65.1969 25.3525C63.1677 25.3525 61.7516 23.8393 61.7516 21.6746V19.5246C61.7516 17.3336 63.1795 15.7912 65.2264 15.7912C67.3865 15.7912 68.729 17.2212 68.729 19.5246L68.7261 21.6177ZM112.615 8.33757L105.626 27.7173H109.145L110.483 23.5632H118.518L118.531 23.6041L119.854 27.7173H123.372L116.371 8.33611L112.615 8.33757ZM111.342 20.8304L114.494 11.0324L117.615 20.8304H111.342ZM31.16 13.7478C31.5392 12.6172 31.6708 11.4192 31.546 10.234C31.4213 9.04874 31.043 7.90369 30.4366 6.87547C29.5363 5.32147 28.1629 4.09124 26.5141 3.36183C24.8652 2.63242 23.0259 2.44143 21.2608 2.81636C20.4647 1.92455 19.486 1.21196 18.3902 0.726294C17.2944 0.240627 16.1068 -0.00691029 14.9069 0.000254144C13.1016 -0.00382845 11.3417 0.561805 9.88098 1.61557C8.42026 2.66932 7.33427 4.15674 6.77966 5.86325C5.60435 6.10273 4.49407 6.58873 3.52308 7.28874C2.55208 7.98875 1.74276 8.88665 1.14924 9.92236C0.24426 11.4738 -0.141809 13.2705 0.0465962 15.0537C0.235002 16.837 0.988165 18.5149 2.19768 19.8459C1.81998 20.9755 1.68915 22.1721 1.8139 23.3559C1.93866 24.5397 2.31613 25.6835 2.92115 26.7109C3.82051 28.2679 5.19453 29.5009 6.84501 30.232C8.49549 30.9631 10.3371 31.1546 12.1042 30.7788C12.8996 31.6695 13.8772 32.3815 14.9716 32.8671C16.066 33.3527 17.2521 33.6008 18.4508 33.5949C20.2561 33.599 22.016 33.0334 23.4767 31.9796C24.9374 30.9258 26.0234 29.4384 26.578 27.7319C27.7531 27.4923 28.8631 27.0063 29.8339 26.3063C30.8046 25.6062 31.6137 24.7084 32.207 23.6728C33.1143 22.1219 33.5018 20.3246 33.3137 18.5406C33.1255 16.7566 32.3713 15.0782 31.16 13.7478ZM18.4508 31.4039C16.9682 31.4052 15.5324 30.8881 14.3952 29.9433C14.4452 29.9156 14.5423 29.8674 14.5981 29.8308L21.3329 25.9689C21.5018 25.8736 21.6421 25.7352 21.7393 25.5681C21.8365 25.4009 21.8871 25.2111 21.8858 25.018V15.5852L24.7311 17.2168C24.7465 17.224 24.7597 17.2351 24.7695 17.2489C24.7793 17.2627 24.7853 17.2788 24.787 17.2957V25.1028C24.787 26.7727 24.1197 28.3743 22.9316 29.5558C21.7435 30.7373 20.1319 31.402 18.4508 31.4039ZM4.8357 25.6286C4.09328 24.3541 3.82524 22.8611 4.07841 21.4103C4.1284 21.4409 4.21663 21.4935 4.27839 21.5286L11.0146 25.392C11.1823 25.4895 11.3732 25.541 11.5675 25.541C11.7619 25.541 11.9527 25.4895 12.1204 25.392L20.3388 20.6712V23.9343C20.3404 23.951 20.3375 23.9679 20.3306 23.9832C20.3236 23.9986 20.3128 24.0119 20.2991 24.0219L13.4909 27.9247C12.0351 28.7573 10.3064 28.9824 8.68384 28.5505C7.06127 28.1187 5.67737 27.0653 4.8357 25.6213V25.6286ZM3.07114 11.0222C3.81008 9.74584 4.97772 8.76853 6.3694 8.26162V16.2133C6.36841 16.4063 6.41909 16.596 6.51624 16.7631C6.6134 16.9302 6.75354 17.0686 6.92229 17.1642L15.1422 21.8791L12.2866 23.5165C12.2726 23.5258 12.2566 23.5315 12.2399 23.533C12.2232 23.5346 12.2064 23.5319 12.191 23.5253L5.38418 19.621C3.92977 18.7852 2.8687 17.4103 2.43392 15.7981C1.99915 14.1859 2.22621 12.4683 3.06526 11.0222H3.07114ZM26.4516 16.4266L18.2317 11.7116L21.0741 10.0786C21.088 10.0695 21.1041 10.0639 21.1208 10.0623C21.1374 10.0608 21.1542 10.0634 21.1697 10.0699L27.9765 13.9742C29.019 14.5725 29.8684 15.4535 30.4252 16.514C30.982 17.5745 31.2231 18.7706 31.1203 19.9622C31.0176 21.1539 30.5752 22.2919 29.845 23.2428C29.1148 24.1938 28.1269 24.9185 26.9971 25.3321V17.3818C26.9993 17.1884 26.9496 16.9979 26.8529 16.8299C26.7562 16.662 26.6161 16.5228 26.4472 16.4266H26.4516ZM29.2852 12.1907C29.2352 12.1601 29.1469 12.1075 29.0852 12.0724L22.349 8.20903C22.1813 8.11147 21.9904 8.06004 21.7961 8.06004C21.6017 8.06004 21.4109 8.11147 21.2432 8.20903L13.0233 12.9225V9.66091C13.0227 9.64411 13.0261 9.62741 13.0333 9.61218C13.0404 9.59695 13.0511 9.58362 13.0644 9.57327L19.8712 5.67045C20.9142 5.07327 22.1068 4.7835 23.3095 4.83504C24.5122 4.88659 25.6753 5.27732 26.6626 5.96151C27.6499 6.6457 28.4206 7.59505 28.8845 8.69847C29.3484 9.80189 29.4864 11.0137 29.2822 12.1922L29.2852 12.1907ZM11.4719 18.0099L8.6251 16.3784C8.61047 16.3703 8.59794 16.359 8.58849 16.3453C8.57905 16.3316 8.57295 16.3159 8.57069 16.2995V8.4924C8.56977 7.29582 8.91227 6.12378 9.55803 5.11367C10.2038 4.10355 11.1261 3.29721 12.2167 2.78918C13.3074 2.28114 14.5212 2.09246 15.716 2.24525C16.9108 2.39804 18.0369 2.88597 18.9625 3.65185C18.9125 3.6796 18.8228 3.7278 18.7596 3.76432L12.0248 7.62624C11.8561 7.72181 11.7159 7.86023 11.6188 8.02732C11.5216 8.19441 11.4709 8.38416 11.4719 8.57711V18.0099ZM13.0174 14.6986L16.6789 12.5982L20.3388 14.6986V18.8965L16.6774 20.9969L13.0159 18.8965L13.0174 14.6986Z" fill="var(--fill-0, #101729)"/>
</g>
</svg>
