<svg preserveAspectRatio="none" width="100%" height="100%" overflow="visible" style="display: block;" viewBox="0 0 80.875 14.3644" fill="none" xmlns="http://www.w3.org/2000/svg">
<g id="Group">
<path id="Vector" d="M5.0014 14.3644C3.9926 14.3644 3.11167 14.137 2.35862 13.6823C1.60557 13.2277 1.023 12.5883 0.610955 11.75C0.198909 10.9117 0 9.9455 0 8.82303C0 7.70056 0.198909 6.73437 0.610955 5.91028C1.023 5.08619 1.60557 4.4326 2.35862 3.97792C3.11167 3.52325 3.9926 3.29592 5.0014 3.29592C5.86812 3.29592 6.63537 3.45223 7.30317 3.7506C7.97097 4.04898 8.51089 4.48944 8.93714 5.05778C9.3634 5.62612 9.61916 6.32234 9.74704 7.14644L7.54471 7.26011C7.44525 6.56389 7.16109 6.03817 6.70642 5.68296C6.25175 5.31354 5.69761 5.14303 5.0156 5.14303C4.12047 5.14303 3.43847 5.46983 2.94117 6.12342C2.44387 6.77701 2.20232 7.68634 2.20232 8.83723C2.20232 9.98812 2.44387 10.8975 2.94117 11.5511C3.43847 12.2047 4.13467 12.5315 5.0156 12.5315C5.69761 12.5315 6.25175 12.3467 6.70642 11.9631C7.16109 11.5795 7.43105 11.0111 7.54471 10.2439L9.74704 10.3576C9.63337 11.1674 9.3634 11.8636 8.93714 12.4604C8.51089 13.0572 7.97097 13.5261 7.30317 13.8529C6.63537 14.1796 5.86812 14.3501 5.0014 14.3501V14.3644Z" fill="var(--fill-0, #E2E8F0)"/>
<path id="Vector_2" d="M16.0019 14.3644C14.9931 14.3644 14.1122 14.137 13.3592 13.6823C12.6061 13.2277 12.0236 12.5883 11.6115 11.75C11.1995 10.9117 11.0006 9.9455 11.0006 8.82303C11.0006 7.70056 11.1995 6.72017 11.6115 5.89608C12.0236 5.07199 12.6061 4.4326 13.3592 3.97792C14.1122 3.52325 14.9931 3.29592 16.0019 3.29592C17.0108 3.29592 17.8917 3.52325 18.6447 3.97792C19.3978 4.4326 19.9803 5.07199 20.3924 5.89608C20.8044 6.72017 21.0033 7.68635 21.0033 8.82303C21.0033 9.95971 20.7902 10.9117 20.3924 11.75C19.9946 12.5883 19.3978 13.2277 18.6447 13.6823C17.8917 14.137 17.0108 14.3644 16.0019 14.3644ZM16.0019 12.5315C16.8971 12.5315 17.5933 12.2047 18.0906 11.5511C18.5879 10.8975 18.8294 9.98812 18.8294 8.83723C18.8294 7.68634 18.5879 6.77701 18.0906 6.12342C17.6075 5.46983 16.9113 5.14303 16.0019 5.14303C15.0926 5.14303 14.4248 5.46983 13.9275 6.12342C13.4302 6.77701 13.1745 7.68634 13.1745 8.83723C13.1745 9.98812 13.4302 10.8975 13.9275 11.5511C14.4248 12.2047 15.121 12.5315 16.0019 12.5315Z" fill="var(--fill-0, #E2E8F0)"/>
<path id="Vector_3" d="M25.5459 14.1232C24.8497 14.1232 24.2955 13.9385 23.8693 13.5833C23.443 13.2281 23.2299 12.6598 23.2299 11.8783V0H25.3328V11.6794C25.3328 11.9209 25.3896 12.0914 25.5175 12.2193C25.6453 12.3472 25.83 12.404 26.0574 12.404H26.8957V14.1375H25.5175L25.5459 14.1232Z" fill="var(--fill-0, #E2E8F0)"/>
<path id="Vector_4" d="M30.9612 14.1232C30.2649 14.1232 29.7108 13.9385 29.2846 13.5833C28.8583 13.2281 28.6452 12.6598 28.6452 11.8783V0H30.748V11.6794C30.748 11.9209 30.8049 12.0914 30.9328 12.2193C31.0606 12.333 31.2453 12.404 31.4727 12.404H32.311V14.1375H30.9328L30.9612 14.1232Z" fill="var(--fill-0, #E2E8F0)"/>
<path id="Vector_5" d="M38.4787 14.3644C37.4415 14.3644 36.5463 14.137 35.8075 13.6823C35.0544 13.2277 34.4861 12.5883 34.0741 11.75C33.662 10.9117 33.4631 9.9455 33.4631 8.82303C33.4631 7.70056 33.662 6.73437 34.0741 5.91028C34.4719 5.08619 35.0545 4.4326 35.7933 3.97792C36.5321 3.52325 37.4131 3.29592 38.4219 3.29592C39.3738 3.29592 40.2121 3.52326 40.951 3.96372C41.6756 4.40419 42.244 5.04358 42.656 5.88188C43.0681 6.72018 43.267 7.72897 43.267 8.90828V9.44821H35.6654C35.7223 10.4854 35.9922 11.2527 36.4895 11.7784C36.9868 12.2899 37.6546 12.5599 38.5071 12.5599C39.1323 12.5599 39.6438 12.4178 40.0558 12.1194C40.4679 11.821 40.7521 11.4374 40.9083 10.9401L43.0965 11.0822C42.8123 12.0626 42.2724 12.8582 41.4483 13.455C40.6242 14.0518 39.6438 14.3644 38.4787 14.3644ZM35.6512 7.85686H41.022C40.951 6.9191 40.681 6.22288 40.2121 5.76821C39.7433 5.31354 39.1465 5.08619 38.4077 5.08619C37.6688 5.08619 37.0294 5.32773 36.5463 5.79661C36.0633 6.26549 35.7649 6.94752 35.637 7.85686H35.6512Z" fill="var(--fill-0, #E2E8F0)"/>
<path id="Vector_6" d="M49.7322 14.3644C48.7234 14.3644 47.8425 14.137 47.0894 13.6823C46.3364 13.2277 45.7538 12.5883 45.3418 11.75C44.9297 10.9117 44.7308 9.9455 44.7308 8.82303C44.7308 7.70056 44.9297 6.73437 45.3418 5.91028C45.7538 5.08619 46.3364 4.4326 47.0894 3.97792C47.8425 3.52325 48.7234 3.29592 49.7322 3.29592C50.5989 3.29592 51.3662 3.45223 52.034 3.7506C52.7018 4.04898 53.2417 4.48944 53.668 5.05778C54.0942 5.62612 54.35 6.32234 54.4778 7.14644L52.2755 7.26011C52.176 6.56389 51.8919 6.03817 51.4372 5.68296C50.9825 5.31354 50.4284 5.14303 49.7464 5.14303C48.8513 5.14303 48.1693 5.46983 47.672 6.12342C47.1747 6.77701 46.9331 7.68634 46.9331 8.83723C46.9331 9.98812 47.1747 10.8975 47.672 11.5511C48.1693 12.2047 48.8655 12.5315 49.7464 12.5315C50.4284 12.5315 50.9825 12.3467 51.4372 11.9631C51.8919 11.5795 52.1618 11.0111 52.2755 10.2439L54.4778 10.3576C54.3642 11.1674 54.0942 11.8636 53.668 12.4604C53.2417 13.0572 52.7018 13.5261 52.034 13.8529C51.3662 14.1796 50.5989 14.3501 49.7322 14.3501V14.3644Z" fill="var(--fill-0, #E2E8F0)"/>
<path id="Vector_7" d="M55.4982 5.27142V3.53798H62.0199V5.27142H55.4982ZM60.0592 14.1233C59.0504 14.1233 58.3115 13.896 57.8284 13.4271C57.3453 12.9582 57.118 12.2478 57.118 11.2532V1.05149H59.2209V11.0969C59.2209 11.5942 59.3345 11.921 59.5334 12.1057C59.7324 12.2904 60.0734 12.3899 60.5138 12.3899H62.0199V14.1233H60.045H60.0592Z" fill="var(--fill-0, #E2E8F0)"/>
<path id="Vector_8" d="M68.217 14.3644C67.2082 14.3644 66.3273 14.137 65.5742 13.6823C64.8212 13.2277 64.2386 12.5883 63.8266 11.75C63.4145 10.9117 63.2156 9.9455 63.2156 8.82303C63.2156 7.70056 63.4145 6.72017 63.8266 5.89608C64.2386 5.07199 64.8212 4.4326 65.5742 3.97792C66.3273 3.52325 67.2082 3.29592 68.217 3.29592C69.2258 3.29592 70.1067 3.52325 70.8598 3.97792C71.6128 4.4326 72.1954 5.07199 72.6075 5.89608C73.0195 6.72017 73.2184 7.68635 73.2184 8.82303C73.2184 9.95971 73.0053 10.9117 72.6075 11.75C72.2096 12.5883 71.6128 13.2277 70.8598 13.6823C70.1067 14.137 69.2258 14.3644 68.217 14.3644ZM68.217 12.5315C69.1122 12.5315 69.8084 12.2047 70.3057 11.5511C70.803 10.8975 71.0445 9.98812 71.0445 8.83723C71.0445 7.68634 70.803 6.77701 70.3057 6.12342C69.8226 5.46983 69.1264 5.14303 68.217 5.14303C67.3077 5.14303 66.6399 5.46983 66.1426 6.12342C65.6453 6.77701 65.3895 7.68634 65.3895 8.83723C65.3895 9.98812 65.6453 10.8975 66.1426 11.5511C66.6399 12.2047 67.3361 12.5315 68.217 12.5315Z" fill="var(--fill-0, #E2E8F0)"/>
<path id="Vector_9" d="M75.3478 14.1235V3.53815H77.2802L77.3654 6.33723L77.1807 6.28041C77.3228 5.32844 77.6212 4.63222 78.0617 4.19175C78.5021 3.75129 79.0989 3.53815 79.8662 3.53815H80.8749V5.42789H79.8662C79.3404 5.42789 78.8858 5.51315 78.5305 5.68365C78.1753 5.85415 77.9054 6.12411 77.7207 6.47932C77.5359 6.83454 77.4507 7.30341 77.4507 7.87175V14.1235H75.3478Z" fill="var(--fill-0, #E2E8F0)"/>
</g>
</svg>
