<svg preserveAspectRatio="none" width="100%" height="100%" overflow="visible" style="display: block;" viewBox="0 0 36 36" fill="none" xmlns="http://www.w3.org/2000/svg">
<g id="Group 2147203474">
<path id="Union" d="M18 0C20.7925 1.63308e-06 23.0902 2.11461 23.3812 4.82985C25.5045 3.18147 28.572 3.33101 30.5223 5.28131C32.5256 7.28466 32.6288 10.4665 30.8351 12.5933C33.7094 12.723 36 15.0937 36 18C36 20.8429 33.8083 23.1721 31.0225 23.3939C32.8357 25.5207 32.7385 28.7178 30.7282 30.7282C28.7178 32.7384 25.5207 32.8355 23.3939 31.022C23.1723 33.8081 20.8431 36 18 36C15.1569 36 12.8272 33.8082 12.6056 31.022C10.4789 32.835 7.28256 32.7383 5.27232 30.7282C3.26207 28.7179 3.16443 25.5207 4.9775 23.3939C2.19169 23.1721 6.70832e-08 20.8429 0 18C2.45273e-05 15.1571 2.1917 12.8279 4.9775 12.6061C3.16438 10.4793 3.26164 7.28261 5.27185 5.27232C7.28205 3.26212 10.4788 3.16457 12.6056 4.9775C12.8275 2.19167 15.1571 0 18 0Z" fill="var(--fill-0, #56C4C2)"/>
<circle id="Ellipse 114" cx="12.74" cy="15.9918" r="2.66569" stroke="var(--stroke-0, #0F766E)" stroke-width="2.42211" stroke-linecap="round"/>
<circle id="Ellipse 115" cx="22.9158" cy="15.9918" r="2.66569" stroke="var(--stroke-0, #0F766E)" stroke-width="2.42211" stroke-linecap="round"/>
</g>
</svg>
