<svg preserveAspectRatio="none" width="100%" height="100%" overflow="visible" style="display: block;" viewBox="0 0 134.26 21.8087" fill="none" xmlns="http://www.w3.org/2000/svg">
<path id="Vector" d="M4.70904 12.3267C5.32744 12.3267 5.93978 12.4493 6.51111 12.6875C7.08244 12.9258 7.60156 13.275 8.03883 13.7153C8.47611 14.1555 8.82297 14.6782 9.05963 15.2534C9.29628 15.8286 9.41808 16.4451 9.41808 17.0677C9.41808 17.6903 9.29628 18.3068 9.05963 18.882C8.82297 19.4572 8.47611 19.9798 8.03883 20.4201C7.60156 20.8603 7.08244 21.2096 6.51111 21.4478C5.93978 21.6861 5.32744 21.8087 4.70904 21.8087C3.46013 21.8087 2.26236 21.3092 1.37925 20.4201C0.49613 19.531 0 18.3251 0 17.0677C0 15.8103 0.49613 14.6044 1.37925 13.7153C2.26236 12.8262 3.46013 12.3267 4.70904 12.3267ZM10.8831 0.105356C11.5806 0.106773 12.2691 0.264165 12.8988 0.566159C13.5284 0.868152 14.0836 1.30721 14.5242 1.85159C14.9648 2.39598 15.2798 3.03211 15.4464 3.71401C15.613 4.39591 15.627 5.10655 15.4875 5.79458C15.1736 7.26957 14.8596 8.95527 15.6968 10.2195L17.0572 12.2213L17.3711 12.432L17.6851 12.2213L19.0455 10.2195C19.8826 8.95527 19.5687 7.37492 19.2547 5.89994C19.1156 5.20712 19.132 4.49173 19.3029 3.80614C19.4738 3.12055 19.7948 2.48211 20.2424 1.93754C20.69 1.39297 21.2529 0.956064 21.8899 0.65879C22.5269 0.361517 23.2218 0.211403 23.9238 0.219435C24.6259 0.227467 25.3173 0.393441 25.9473 0.705211C26.5774 1.01698 27.1303 1.46665 27.5655 2.02132C28.0007 2.57599 28.3072 3.22161 28.4626 3.91093C28.618 4.60026 28.6183 5.31584 28.4635 6.0053C28.1496 7.37492 27.8357 8.84991 28.4635 10.1142L29.8239 12.2213V12.3267C30.8076 12.3127 31.7709 12.6092 32.5786 13.1746C33.3863 13.74 33.9979 14.5458 34.3274 15.479C34.657 16.4123 34.688 17.4259 34.416 18.3778C34.1441 19.3296 33.5829 20.1718 32.8112 20.7861C32.0395 21.4004 31.0961 21.756 30.1135 21.8029C29.1308 21.8498 28.1582 21.5857 27.3323 21.0476C26.5064 20.5096 25.8685 19.7246 25.5084 18.803C25.1482 17.8813 25.0838 16.8692 25.3242 15.9088C25.6381 14.5391 25.952 13.0642 25.3242 11.7999L24.0684 9.69276H23.8591L22.4987 11.4838C21.6616 12.7481 21.9755 14.4338 22.2895 15.9088C22.4579 16.594 22.4722 17.3084 22.3313 17.9999C22.1905 18.6914 21.898 19.3425 21.4754 19.9057C21.0527 20.4689 20.5104 20.9299 19.8882 21.2552C19.266 21.5805 18.5794 21.7617 17.8787 21.7858C17.178 21.8098 16.4808 21.676 15.838 21.3942C15.1952 21.1123 14.623 20.6895 14.1632 20.1566C13.7034 19.6238 13.3676 18.9942 13.1804 18.314C12.9931 17.6338 12.959 16.92 13.0807 16.2248C13.4295 14.8201 13.29 13.4856 12.6621 12.2213L11.7203 10.8517C11.0924 10.0088 10.2552 9.44693 9.20879 9.16598C8.18362 8.76899 7.32855 8.02368 6.79151 7.05903C6.25448 6.09438 6.06927 4.97107 6.26794 3.88346C6.46661 2.79586 7.03666 1.81239 7.87945 1.10322C8.72223 0.394052 9.78474 0.00380416 10.8831 0M58.706 17.2784V10.0088C58.706 9.30645 58.4619 8.70943 57.9735 8.21777C57.4852 7.72611 56.8922 7.48028 56.1945 7.48028C55.2876 7.48028 54.5551 7.83147 53.997 8.53384C53.4389 9.23622 53.0552 10.0439 52.8459 10.957V17.2784H49.9158V5.2678H52.9505V7.58564C53.3691 6.88326 53.9272 6.25113 54.6249 5.68923C55.3225 5.2678 56.1945 5.02197 57.241 4.95174C58.0782 4.95174 58.8804 5.19757 59.6478 5.68923C60.4152 6.18089 60.9385 6.81303 61.2175 7.58564C61.6361 6.74279 62.2291 6.11065 62.9965 5.68923C63.7888 5.21578 64.6913 4.96137 65.6126 4.95174C67.0079 4.95174 68.0892 5.37316 68.8566 6.21601C69.7636 7.05886 70.217 8.18265 70.217 9.5874V17.2784H67.0777V10.3249C67.0777 9.34157 66.8684 8.6392 66.4498 8.21777C66.0312 7.79635 65.4382 7.55052 64.6708 7.48028C63.8337 7.48028 63.1011 7.79635 62.4733 8.42848C61.8454 9.06062 61.5315 9.86835 61.5315 10.8517V17.2784H58.706ZM78.1701 17.5945C77.1236 17.5945 76.0772 17.3486 75.0307 16.857C74.151 16.2734 73.4312 15.4763 72.9378 14.5391C72.4495 13.4856 72.2053 12.432 72.2053 11.3785C72.2053 10.1142 72.4495 8.99038 72.9378 8.00706C73.4711 7.0758 74.2314 6.29683 75.1469 5.74377C76.0625 5.19072 77.103 4.88186 78.1701 4.84638C79.1468 4.84638 80.0537 5.09221 80.8908 5.58387C81.728 6.07553 82.3559 6.63743 82.7745 7.26957V5.2678H85.9138V17.2784H82.7745V15.1713C82.3559 16.0141 81.728 16.6463 80.8908 17.0677C80.0537 17.4189 79.1468 17.5945 78.1701 17.5945ZM79.0072 15.1713C80.1234 15.1713 81.0304 14.8201 81.728 14.1177C82.4256 13.4153 82.7745 12.4671 82.7745 11.2731C82.7745 10.0791 82.4256 9.13086 81.728 8.42848C81.0304 7.72611 80.1234 7.37492 79.0072 7.37492C77.891 7.37492 76.9841 7.72611 76.2865 8.42848C75.5888 9.13086 75.24 10.0791 75.24 11.2731C75.24 12.4671 75.5888 13.4153 76.2865 14.1177C76.9841 14.8201 77.891 15.1713 79.0072 15.1713ZM93.6576 17.5945C92.1538 17.696 90.6556 17.3281 89.3671 16.5409C88.3207 15.6981 87.7626 14.6445 87.6928 13.3802L90.5182 13.0642C90.5182 13.7665 90.7973 14.3284 91.3554 14.7498C91.9135 15.1713 92.6809 15.4171 93.6576 15.4873C94.2897 15.4961 94.9098 15.3125 95.4365 14.9606C95.9249 14.6796 96.1691 14.3284 96.1691 13.907C96.187 13.6873 96.1361 13.4675 96.0235 13.2785C95.9108 13.0895 95.7422 12.9409 95.5412 12.8534L94.0762 12.2213L90.0996 11.2731C89.5415 11.0624 89.0532 10.7463 88.6346 10.3249C88.216 9.90347 88.0067 9.30645 88.0067 8.53384C88.0067 7.41004 88.4951 6.49696 89.4718 5.79458C90.4485 5.09221 91.774 4.74102 93.4483 4.74102C95.1226 4.74102 96.3784 5.09221 97.2155 5.79458C97.6975 6.0497 98.1053 6.42667 98.3989 6.88845C98.6924 7.35024 98.8616 7.88096 98.8898 8.42848L95.9598 8.53384C95.9598 8.11242 95.7505 7.69099 95.3319 7.26957C94.9133 6.84814 94.2855 6.67255 93.4483 6.74279C92.7507 6.74279 92.1577 6.88326 91.6693 7.16421C91.181 7.44516 90.9717 7.79635 91.0414 8.21777C91.1112 8.6392 91.3205 8.99038 91.6693 9.27133L93.239 9.69276L97.1109 10.641C97.669 10.8517 98.1922 11.2029 98.6806 11.6945C99.0294 12.1159 99.2038 12.713 99.2038 13.4856C99.2038 14.7498 98.7154 15.7332 97.7387 16.4355C96.6923 17.1379 95.297 17.4891 93.5529 17.4891M106.738 17.4891C105.413 17.4891 104.366 17.1379 103.599 16.4355C102.81 15.6575 102.359 14.5972 102.343 13.4856V7.48028H99.727V5.16245H102.343V1.6857H105.378V5.2678H109.25V7.58564H105.378V13.0642C105.378 13.7665 105.517 14.2582 105.796 14.5391C106.145 14.8903 106.599 15.0659 107.157 15.0659L108.203 14.8552L109.145 14.2231L109.564 16.7516C109.354 16.9623 108.971 17.1379 108.413 17.2784C107.924 17.4189 107.366 17.4891 106.738 17.4891ZM111.238 17.173V5.2678H114.273V7.79635C114.622 6.9535 115.145 6.25113 115.842 5.68923C116.463 5.21362 117.204 4.92215 117.98 4.84768C118.757 4.77322 119.539 4.91873 120.237 5.2678L119.924 8.21777L118.982 7.79635L117.935 7.58564L116.889 7.79635C116.4 7.93682 115.982 8.14754 115.633 8.42848C115.284 8.70943 114.935 9.13086 114.587 9.69276C114.377 10.1844 114.273 10.8868 114.273 11.7999V17.2784L111.238 17.173ZM126.621 17.4891C125.505 17.4891 124.458 17.2433 123.481 16.7516C122.602 16.168 121.882 15.3709 121.389 14.4338C120.83 13.3802 120.551 12.3267 120.551 11.2731C120.551 10.0088 120.796 8.88503 121.284 7.90171C121.817 6.97044 122.578 6.19147 123.493 5.63842C124.409 5.08537 125.449 4.7765 126.516 4.74102C127.563 4.74102 128.47 4.98685 129.237 5.47852C130.004 5.97018 130.667 6.53208 131.225 7.16421V5.16245H134.26V17.2784H131.121V15.1713C130.702 16.0141 130.074 16.6463 129.237 17.0677C128.47 17.4189 127.598 17.5945 126.621 17.5945M127.353 15.1713C128.47 15.1713 129.377 14.8201 130.074 14.1177C130.772 13.4153 131.121 12.4671 131.121 11.2731C131.121 10.0791 130.772 9.13086 130.074 8.42848C129.377 7.72611 128.47 7.37492 127.353 7.37492C126.237 7.37492 125.33 7.72611 124.633 8.42848C123.935 9.13086 123.586 10.0791 123.586 11.2731C123.586 12.4671 123.935 13.4153 124.633 14.1177C125.33 14.8201 126.237 15.1713 127.353 15.1713Z" fill="var(--fill-0, #101729)"/>
</svg>
