<svg preserveAspectRatio="none" width="100%" height="100%" overflow="visible" style="display: block;" viewBox="0 0 66.2773 15.7038" fill="none" xmlns="http://www.w3.org/2000/svg">
<g id="Group">
<g id="Group_2">
<path id="Vector" d="M1.3079 13.4376L6.0541 0H9.19938L13.9716 13.4376H15.2523V15.4368H9.25255V13.4376H11.3592L10.3715 10.4518H4.74621L3.73248 13.4376H5.91154V15.4368H0V13.4376H1.30676H1.3079ZM9.78544 8.69138L7.54754 2.02633L5.3334 8.69138H9.78657H9.78544Z" fill="var(--fill-0, white)"/>
<path id="Vector_2" d="M21.8633 15.6766C19.8902 15.6766 17.9702 15.3564 16.3964 14.6369V11.7575H18.5019V13.3833C19.3833 13.7838 20.423 13.9705 21.7819 13.9705C23.8874 13.9705 25.0075 13.3573 25.0075 12.2372C25.0075 11.4373 24.4214 11.0368 23.0343 10.8241L20.0757 10.4235C17.5708 10.0773 16.3693 9.01044 16.3693 7.19794C16.3693 5.03811 18.5291 3.59897 21.9685 3.59897C23.7267 3.59897 25.3808 3.83996 27.0078 4.42602V6.87323H24.9022V5.78596C24.1295 5.51895 23.0354 5.33227 21.9436 5.33227C20.0225 5.33227 18.9568 5.91833 18.9568 6.93206C18.9568 7.70594 19.5428 8.18565 20.8496 8.37233L23.9428 8.79887C26.4477 9.17223 27.6493 10.212 27.6493 11.9713C27.6493 14.2103 25.4091 15.6778 21.8633 15.6778V15.6766Z" fill="var(--fill-0, white)"/>
<path id="Vector_3" d="M36.9402 13.6243C37.8453 13.6243 38.8591 13.4908 40.8333 12.8244L41.3911 14.7172C39.1532 15.5171 37.765 15.7038 36.5125 15.7038C33.4193 15.7038 31.953 14.371 31.953 12.0245V5.83913H28.0056V3.89313H31.953V0.560034H34.4319V3.89313H40.7519V5.83913H34.4319V11.6511C34.4319 12.9307 35.2047 13.6243 36.9391 13.6243H36.9402Z" fill="var(--fill-0, white)"/>
<path id="Vector_4" d="M53.531 9.67795C53.531 6.15817 56.3029 3.65213 59.903 3.65213C63.5031 3.65213 66.2773 6.15817 66.2773 9.67795C66.2773 13.1977 63.5031 15.7038 59.903 15.7038C56.3029 15.7038 53.531 13.1977 53.531 9.67795ZM63.8493 9.67795C63.8493 7.38461 62.1432 5.73164 59.9019 5.73164C57.6606 5.73164 55.9567 7.38461 55.9567 9.67795C55.9567 11.9713 57.6629 13.6243 59.9019 13.6243C62.1409 13.6243 63.8493 11.9713 63.8493 9.67795Z" fill="var(--fill-0, white)"/>
</g>
<path id="Vector_5" d="M49.686 7.25111C50.5933 6.23851 51.3118 5.8923 52.4058 5.8923C52.7781 5.8923 53.1989 5.97263 53.7579 6.15252C54.1233 5.43069 54.5872 4.77448 55.1585 4.21218C54.2557 3.84335 53.4445 3.62499 52.6717 3.62499C51.1522 3.62499 50.0582 4.34455 49.0727 6.02355L47.8984 7.83604V3.89086H41.7673V5.83573H45.4195V13.4885H41.7673V15.4345H51.7383V13.4885H47.8984V9.222L49.6848 7.24885L49.686 7.25111Z" fill="var(--fill-0, white)"/>
</g>
</svg>
