<svg preserveAspectRatio="none" width="100%" height="100%" overflow="visible" style="display: block;" viewBox="0 0 106.747 25.5926" fill="none" xmlns="http://www.w3.org/2000/svg">
<g id="Group">
<path id="Vector" d="M25.7275 25.1233V7.54019H30.7394V25.1233H25.7275ZM40.4568 25.1233C37.1261 25.1233 35.8253 23.7154 35.8253 20.7432V11.67H32.6531V7.54019H35.8253V4.03607L40.8376 2.87846V7.54019H44.549V11.67H40.8376V19.6481C40.8376 20.6181 41.2818 20.9935 42.265 20.9935H44.549V25.1233H40.4568ZM75.4 25.4362C71.4981 25.4362 69.3726 23.3087 69.3726 19.4291V7.54019H74.4168V18.1151C74.4168 20.2739 75.4 21.4628 77.2717 21.4628C79.4288 21.4628 81.0785 19.4917 81.0785 16.8011V7.54019H86.1224V25.1233H81.0785V22.1511C80.1269 24.0596 77.8429 25.4362 75.4 25.4362ZM99.4749 25.4362C97.0434 25.4362 94.8229 24.0596 93.7644 22.0885V25.1233H88.7524V0.594534H93.7963V10.7627C94.8229 8.63521 97.1388 7.13345 99.4749 7.13345C104.34 7.13345 106.91 10.4499 106.739 16.3005C106.91 22.0885 104.245 25.4362 99.4749 25.4362ZM97.6982 21.2751C100.311 21.2751 101.738 19.3666 101.568 16.3005C101.738 13.2031 100.311 11.2946 97.6982 11.2946C95.616 11.2946 93.9666 13.2969 93.7963 16.0502V16.3318C93.9666 19.1788 95.616 21.2751 97.6982 21.2751ZM61.5108 0.594534V10.5437H52.0573V0.594534H46.6646V25.1233H52.0573V15.2993H61.5108V25.1233H66.9039V0.594534H61.5108ZM11.9914 25.5926C4.63154 25.5926 0 20.6181 0 12.8276C0 5.03723 4.72691 0.125231 12.2133 0.125231C18.3042 0.125231 21.9841 2.69072 23.1577 7.0083L17.7014 8.29105C17.0352 5.94454 15.132 4.66178 12.2133 4.66178C7.86718 4.66178 5.51969 7.4776 5.51969 12.8276C5.51969 18.1777 7.80372 21.0561 12.0864 21.0561C16.0201 21.0561 18.3676 18.6783 18.3676 14.6423V13.7037L19.7635 15.6122H11.6425V11.1069H23.8239V13.954C23.8239 21.4315 19.4146 25.5926 11.9914 25.5926ZM28.2334 5.88198C29.9147 5.88198 31.2156 4.59922 31.2156 2.94101C31.2156 1.28284 29.9147 8.09853e-05 28.2334 8.09853e-05C26.5522 8.09853e-05 25.2517 1.28284 25.2517 2.94101C25.2517 4.59922 26.5522 5.88198 28.2334 5.88198Z" fill="var(--fill-0, #101729)"/>
</g>
</svg>
