<svg preserveAspectRatio="none" width="100%" height="100%" overflow="visible" style="display: block;" viewBox="0 0 14 14" fill="none" xmlns="http://www.w3.org/2000/svg">
<g id="Union">
<path d="M1 8.5C1 8.77614 1.22386 9 1.5 9H2V10H1.5C0.671573 10 0 9.32843 0 8.5V1.5C0 0.671573 0.671573 0 1.5 0H8.5C9.32843 0 10 0.671574 10 1.5V2H9V1.5C9 1.22386 8.77614 1 8.5 1H1.5C1.22386 1 1 1.22386 1 1.5V8.5Z" fill="var(--fill-0, #686868)"/>
<path fill-rule="evenodd" clip-rule="evenodd" d="M5.5 4C4.67157 4 4 4.67157 4 5.5V12.5C4 13.3284 4.67157 14 5.5 14H12.5C13.3284 14 14 13.3284 14 12.5V5.5C14 4.67157 13.3284 4 12.5 4H5.5ZM5 5.5C5 5.22386 5.22386 5 5.5 5H12.5C12.7761 5 13 5.22386 13 5.5V12.5C13 12.7761 12.7761 13 12.5 13H5.5C5.22386 13 5 12.7761 5 12.5V5.5Z" fill="var(--fill-0, #686868)"/>
</g>
</svg>
