<svg preserveAspectRatio="none" width="100%" height="100%" overflow="visible" style="display: block;" viewBox="0 0 36.0004 36.0007" fill="none" xmlns="http://www.w3.org/2000/svg">
<g id="Group 2147203519">
<path id="Subtract" d="M9.80454 0.981534C10.0083 0.167419 11.0418 -0.260663 11.7616 0.170868C13.5853 1.26426 15.7195 1.89313 18.0006 1.89313C20.2815 1.89309 22.4152 1.26436 24.2388 0.171171C24.9585 -0.26032 25.9919 0.167734 26.1958 0.981796C26.7123 3.04456 27.7769 4.99835 29.3898 6.61133C31.0027 8.22414 32.9563 9.28818 35.0188 9.8045C35.8329 10.0083 36.261 11.0417 35.8295 11.7615C34.7362 13.5853 34.1076 15.7195 34.1076 18.0006C34.1076 20.2814 34.7364 22.4153 35.8296 24.2388C36.2611 24.9586 35.833 25.9919 35.019 26.1958C32.9564 26.7124 31.0028 27.7769 29.3898 29.3898C27.7769 31.0028 26.7123 32.9565 26.1958 35.0193C25.9919 35.8334 24.9585 36.2614 24.2388 35.8299C22.4152 34.7365 20.2815 34.1076 18.0006 34.1075C15.7196 34.1075 13.5856 34.7363 11.7619 35.8295C11.0421 36.261 10.0088 35.833 9.80489 35.0189C9.28833 32.9563 8.22379 31.0027 6.61087 29.3898C4.99787 27.7769 3.04422 26.7126 0.981518 26.1962C0.167414 25.9924 -0.260665 24.9589 0.170872 24.2391C1.26423 22.4155 1.89314 20.2816 1.89315 18.0006C1.89315 15.7196 1.26446 13.5856 0.171218 11.7619C-0.26027 11.0421 0.167781 10.0088 0.981852 9.80492C3.04443 9.28848 4.99796 8.22417 6.61087 6.61133C8.22387 4.99831 9.28815 3.04439 9.80454 0.981534Z" fill="var(--fill-0, #7261D2)"/>
<path id="Ellipse 116" d="M16.7579 18.2373C16.7579 16.0595 14.9924 14.294 12.8147 14.294C10.6369 14.294 8.87143 16.0595 8.87143 18.2373" stroke="var(--stroke-0, white)" stroke-width="2.27591"/>
<path id="Ellipse 117" d="M27.1119 18.2373C27.1119 16.0595 25.3464 14.294 23.1687 14.294C20.9909 14.294 19.2254 16.0595 19.2254 18.2373" stroke="var(--stroke-0, white)" stroke-width="2.27591"/>
</g>
</svg>
