<svg preserveAspectRatio="none" width="100%" height="100%" overflow="visible" style="display: block;" viewBox="0 0 20.0873 15.5496" fill="none" xmlns="http://www.w3.org/2000/svg">
<path id="Vector" d="M17.0159 1.30227C15.7156 0.693899 14.3253 0.251759 12.8717 0C12.6932 0.322746 12.4846 0.756846 12.3409 1.10217C10.7957 0.869797 9.26474 0.869797 7.74799 1.10217C7.60423 0.756846 7.39093 0.322746 7.21082 0C5.7557 0.251759 4.36377 0.695524 3.06348 1.30549C0.440786 5.26873 -0.270184 9.13353 0.0853015 12.9434C1.82481 14.2425 3.51061 15.0316 5.16795 15.548C5.57716 14.9848 5.94212 14.3861 6.25652 13.7551C5.65773 13.5276 5.08422 13.2468 4.54231 12.9209C4.68608 12.8144 4.8267 12.703 4.96256 12.5884C8.26778 14.1344 11.859 14.1344 15.1247 12.5884C15.2622 12.703 15.4028 12.8144 15.545 12.9209C15.0015 13.2484 14.4264 13.5292 13.8276 13.7568C14.142 14.3861 14.5054 14.9864 14.9162 15.5496C16.5751 15.0332 18.2625 14.2441 20.002 12.9434C20.4191 8.52678 19.2894 4.69748 17.0159 1.30227ZM6.70681 10.6004C5.71462 10.6004 4.90094 9.67411 4.90094 8.54614C4.90094 7.41817 5.69724 6.4903 6.70681 6.4903C7.71641 6.4903 8.53006 7.41654 8.51268 8.54614C8.51425 9.67411 7.71641 10.6004 6.70681 10.6004ZM13.3805 10.6004C12.3883 10.6004 11.5746 9.67411 11.5746 8.54614C11.5746 7.41817 12.3709 6.4903 13.3805 6.4903C14.39 6.4903 15.2037 7.41654 15.1863 8.54614C15.1863 9.67411 14.39 10.6004 13.3805 10.6004Z" fill="var(--fill-0, white)"/>
</svg>
