<svg preserveAspectRatio="none" width="100%" height="100%" overflow="visible" style="display: block;" viewBox="0 0 36 36" fill="none" xmlns="http://www.w3.org/2000/svg">
<g id="Group 2147203515">
<path id="Union" d="M19.2221 3.76321C19.5428 4.74976 20.8416 4.96622 21.4649 4.13696L21.5618 4.00801C22.2769 3.05653 23.7917 3.57579 23.7727 4.76587C23.7567 5.76964 24.8877 6.36671 25.7093 5.78985C26.6859 5.10418 27.9723 6.06671 27.5853 7.19545L27.5302 7.35601C27.1931 8.33901 28.1031 9.29408 29.1013 9.00488L29.5814 8.86576C30.6243 8.56359 31.4446 9.77247 30.7786 10.63C30.2066 11.3663 30.7328 12.4384 31.6652 12.4384C32.7528 12.4384 33.2072 13.8303 32.3271 14.4695L31.9193 14.7656C31.0774 15.3771 31.2736 16.6834 32.2579 17.0206L32.4244 17.0776C33.5496 17.4631 33.524 19.0632 32.3871 19.4125C31.4282 19.7071 31.2083 20.9651 32.0104 21.5676C32.9614 22.2819 32.4426 23.7959 31.2534 23.7768L31.0772 23.774C30.0368 23.7572 29.409 24.9195 29.9935 25.7804L30.2764 26.197C30.8874 27.097 29.9875 28.2523 28.9642 27.8833C28.0871 27.5669 27.2282 28.3969 27.5164 29.2837C27.8521 30.3164 26.6701 31.1753 25.7916 30.5371L25.3871 30.2433C24.5463 29.6325 23.3661 30.2221 23.3496 31.2612L23.3469 31.4322C23.3279 32.6253 21.7913 33.094 21.1053 32.1177C20.5283 31.2964 19.2619 31.4742 18.9364 32.4237C18.5504 33.5496 16.9493 33.5239 16.5996 32.3863L16.5522 32.2318C16.2474 31.2402 14.952 31.003 14.3157 31.8223L14.0146 32.2099C13.345 33.072 11.9635 32.5702 11.9984 31.4792C12.0284 30.5447 10.9708 29.982 10.2143 30.5315C9.3333 31.1715 8.14804 30.3102 8.48458 29.2746L8.63231 28.82C8.9525 27.8347 8.03 26.8973 7.03968 27.2016L6.89382 27.2464C5.75081 27.5977 4.82743 26.2793 5.54574 25.3233C6.1507 24.5182 5.58792 23.3656 4.58099 23.3495C3.38714 23.3304 2.91529 21.7947 3.89242 21.1085L4.0095 21.0263C4.85714 20.4311 4.68266 19.1278 3.7083 18.7765L3.26513 18.6167C2.23754 18.2462 2.28469 16.7771 3.33385 16.4729C4.2346 16.2118 4.44142 15.0291 3.68262 14.478C2.79892 13.8361 3.25295 12.4384 4.34514 12.4384H4.81686C5.8526 12.4384 6.45877 11.2716 5.8633 10.4242L5.78163 10.308C5.09502 9.3308 6.05998 8.04591 7.1898 8.43292C8.14265 8.75931 9.06321 7.86604 8.76732 6.90328C8.41602 5.76024 9.73202 4.83355 10.6881 5.55175L10.8096 5.64302C11.638 6.26528 12.8238 5.69648 12.857 4.66095L12.8723 4.18305C12.9072 3.09471 14.3143 2.68674 14.926 3.58763C15.4511 4.36114 16.6368 4.19055 16.9259 3.3014C17.2634 2.26311 18.7335 2.25966 19.0709 3.29798L19.2221 3.76321Z" fill="var(--fill-0, #80B0FF)"/>
<rect id="Rectangle 303" x="13.1338" y="13.9318" width="2.20556" height="7.81715" rx="1.10278" stroke="var(--stroke-0, #0F766E)" stroke-width="2.20556"/>
<rect id="Rectangle 304" x="19.1936" y="13.8412" width="2.20556" height="7.81715" rx="1.10278" stroke="var(--stroke-0, #0F766E)" stroke-width="2.20556"/>
</g>
</svg>
