<svg preserveAspectRatio="none" width="100%" height="100%" overflow="visible" style="display: block;" viewBox="0 0 150.579 62.5774" fill="none" xmlns="http://www.w3.org/2000/svg">
<g id="Group 2147203577">
<g id="Group">
<path id="Vector" d="M33.2127 3.77431H21.8459C20.2765 3.77431 19.0042 5.04659 19.0042 6.61601V13.7203C19.0042 15.2897 20.2765 16.562 21.8459 16.562H33.2127C34.7821 16.562 36.0544 15.2897 36.0544 13.7203V6.61601C36.0544 5.04659 34.7821 3.77431 33.2127 3.77431Z" stroke="var(--stroke-0, #9CA3AF)" stroke-width="1.865" stroke-linecap="round" stroke-linejoin="round"/>
<path id="Vector_2" d="M23.2684 3.7742V0.932499H31.7935V3.7742" stroke="var(--stroke-0, #9CA3AF)" stroke-width="1.865" stroke-linecap="round" stroke-linejoin="round"/>
<path id="Vector_3" d="M24.6869 11.873C25.6285 11.873 26.3919 11.1096 26.3919 10.1679C26.3919 9.22627 25.6285 8.46291 24.6869 8.46291C23.7452 8.46291 22.9819 9.22627 22.9819 10.1679C22.9819 11.1096 23.7452 11.873 24.6869 11.873Z" fill="var(--fill-0, #9CA3AF)"/>
<path id="Vector_4" d="M30.3742 11.873C31.3158 11.873 32.0792 11.1096 32.0792 10.1679C32.0792 9.22627 31.3158 8.46291 30.3742 8.46291C29.4325 8.46291 28.6692 9.22627 28.6692 10.1679C28.6692 11.1096 29.4325 11.873 30.3742 11.873Z" fill="var(--fill-0, #9CA3AF)"/>
<path id="Vector_5" d="M17.586 8.03673H19.0069" stroke="var(--stroke-0, #9CA3AF)" stroke-width="1.865" stroke-linecap="round" stroke-linejoin="round"/>
<path id="Vector_6" d="M36.0563 8.03673H37.4772" stroke="var(--stroke-0, #9CA3AF)" stroke-width="1.865" stroke-linecap="round" stroke-linejoin="round"/>
</g>
<g id="Group_2">
<path id="Vector_7" d="M59.5731 15.6672C58.479 15.6672 57.5981 15.4114 56.9303 14.9141C56.2767 14.4168 55.9499 13.7064 55.9499 12.7828C55.9499 11.8593 56.2199 11.1489 56.774 10.6516C57.3282 10.1401 58.1806 9.77063 59.3315 9.5433L62.9689 8.84709C62.9689 8.023 62.7842 7.41202 62.3864 7.01418C62.0027 6.60214 61.4344 6.40323 60.6814 6.40323C59.9994 6.40323 59.4736 6.55951 59.09 6.85789C58.7064 7.15627 58.4364 7.59674 58.2943 8.17929L56.1204 8.0372C56.3193 6.97156 56.8166 6.14747 57.5981 5.53651C58.3796 4.92554 59.4168 4.62716 60.6671 4.62716C62.1022 4.62716 63.1962 5.01079 63.9351 5.77805C64.6881 6.54531 65.0576 7.61094 65.0576 8.98916V13.1096C65.0576 13.3654 65.1002 13.5359 65.1854 13.6354C65.2707 13.7348 65.4128 13.7916 65.6117 13.7916H65.9953V15.4682C65.9953 15.4682 65.8248 15.4967 65.6827 15.5109C65.5407 15.5109 65.3843 15.5251 65.2281 15.5251C64.7734 15.5251 64.3898 15.4541 64.063 15.312C63.7362 15.1699 63.4946 14.9283 63.3383 14.5873C63.182 14.2463 63.0968 13.7917 63.0968 13.2233L63.3099 13.3228C63.1963 13.7916 62.9689 14.2037 62.6279 14.5589C62.2727 14.9141 61.8322 15.1983 61.2923 15.3972C60.7524 15.5961 60.1698 15.7098 59.5589 15.7098L59.5731 15.6672ZM59.8999 13.9906C60.5392 13.9906 61.0792 13.8627 61.5339 13.6212C61.9886 13.3796 62.3295 13.0386 62.5853 12.5981C62.841 12.1577 62.9689 11.6604 62.9689 11.1062V10.4242L59.8715 11.021C59.2321 11.1347 58.7916 11.3336 58.5216 11.5893C58.2659 11.8451 58.138 12.1719 58.138 12.5697C58.138 13.0244 58.2943 13.3654 58.6069 13.6212C58.9195 13.8627 59.3457 13.9906 59.9141 13.9906H59.8999Z" fill="var(--fill-0, #E2E8F0)"/>
<path id="Vector_8" d="M71.9638 18.6511C71.1255 18.6511 70.3866 18.5233 69.7614 18.2675C69.1221 18.0118 68.5964 17.6565 68.1843 17.2019C67.7723 16.7472 67.4881 16.2073 67.346 15.5963L69.5341 15.4542C69.6762 15.8947 69.9319 16.2357 70.3014 16.4914C70.6708 16.7472 71.2249 16.8751 71.9638 16.8751C72.8447 16.8751 73.5125 16.6904 73.9814 16.321C74.4502 15.9515 74.6918 15.3832 74.6918 14.6301V13.0956C74.436 13.6355 74.0382 14.076 73.4841 14.3886C72.9299 14.7012 72.3048 14.8717 71.6086 14.8717C70.7276 14.8717 69.9319 14.6586 69.2357 14.2181C68.5395 13.7776 68.0138 13.1809 67.6302 12.4136C67.2465 11.6464 67.0476 10.7512 67.0476 9.74241C67.0476 8.7336 67.2324 7.82426 67.616 7.057C67.9996 6.28974 68.5253 5.67879 69.2073 5.25254C69.8893 4.81207 70.6566 4.59894 71.5233 4.59894C72.2764 4.59894 72.9441 4.76944 73.5267 5.11044C74.1092 5.45145 74.5213 5.92032 74.777 6.50287V4.82628H76.8089V14.5733C76.8089 15.4542 76.61 16.1931 76.2263 16.7898C75.8427 17.3866 75.2743 17.8555 74.5497 18.1681C73.8251 18.4806 72.9726 18.6369 71.978 18.6369L71.9638 18.6511ZM71.9353 13.0956C72.7594 13.0956 73.413 12.7973 73.9103 12.2005C74.4076 11.6037 74.6634 10.7796 74.6776 9.72821C74.6776 9.03199 74.5782 8.44944 74.365 7.95214C74.1377 7.45485 73.8251 7.07122 73.3988 6.80126C72.9868 6.5313 72.4895 6.3892 71.9353 6.3892C71.0686 6.3892 70.4008 6.68758 69.9319 7.29854C69.4631 7.90951 69.2215 8.7194 69.2215 9.72821C69.2215 10.737 69.4631 11.5753 69.9462 12.1863C70.4292 12.783 71.0829 13.0956 71.9212 13.0956H71.9353Z" fill="var(--fill-0, #E2E8F0)"/>
<path id="Vector_9" d="M83.938 15.6674C82.9008 15.6674 82.0056 15.44 81.2668 14.9853C80.5137 14.5307 79.9454 13.8913 79.5334 13.053C79.1213 12.2147 78.9224 11.2485 78.9224 10.126C78.9224 9.00357 79.1213 8.03739 79.5334 7.2133C79.9454 6.3892 80.5137 5.73561 81.2526 5.28094C81.9914 4.82627 82.8723 4.59894 83.8812 4.59894C84.8331 4.59894 85.6714 4.82627 86.4103 5.26674C87.1349 5.7072 87.7033 6.34659 88.1153 7.18489C88.5131 8.0232 88.7263 9.03198 88.7263 10.2113V10.7512H81.1247C81.1815 11.7884 81.4515 12.5557 81.9488 13.0814C82.4461 13.5929 83.1139 13.8629 83.9664 13.8629C84.5916 13.8629 85.1031 13.7208 85.5151 13.4224C85.9272 13.124 86.2113 12.7404 86.3676 12.2431L88.5558 12.3852C88.2716 13.3656 87.7317 14.1613 86.9218 14.758C86.1119 15.3548 85.1173 15.6674 83.9522 15.6674H83.938ZM81.1105 9.15988H86.4813C86.4103 8.22211 86.1403 7.5259 85.6714 7.07122C85.2026 6.61655 84.6058 6.3892 83.867 6.3892C83.1281 6.3892 82.4887 6.63074 82.0056 7.09962C81.5225 7.56851 81.2242 8.25053 81.0963 9.15988H81.1105Z" fill="var(--fill-0, #E2E8F0)"/>
<path id="Vector_10" d="M90.836 15.4254V4.84011H92.7684L92.8536 7.66761L92.5979 7.52551C92.7116 6.8293 92.9389 6.27518 93.2799 5.84892C93.6067 5.42267 94.0187 5.11008 94.4876 4.89695C94.9707 4.69803 95.4822 4.58436 96.0364 4.58436C96.832 4.58436 97.4856 4.75486 98.0113 5.11007C98.537 5.46528 98.9349 5.93416 99.2048 6.54512C99.4748 7.14188 99.6169 7.83811 99.6169 8.60537V15.4112H97.514V9.24475C97.514 8.61958 97.443 8.09386 97.3151 7.66761C97.1872 7.24135 96.9599 6.91455 96.6615 6.68722C96.3632 6.45988 95.9511 6.34621 95.468 6.34621C94.7291 6.34621 94.1182 6.58776 93.6635 7.08505C93.1946 7.56814 92.9673 8.29277 92.9673 9.23053V15.397H90.8644L90.836 15.4254Z" fill="var(--fill-0, #E2E8F0)"/>
<path id="Vector_11" d="M101.346 6.57382V4.84038H107.868V6.57382H101.346ZM105.893 15.4257C104.884 15.4257 104.145 15.1984 103.662 14.7295C103.179 14.2606 102.952 13.5502 102.952 12.5556V2.3539H105.054V12.3993C105.054 12.8966 105.168 13.2234 105.367 13.4081C105.566 13.5928 105.907 13.6923 106.347 13.6923H107.854V15.4257H105.879H105.893Z" fill="var(--fill-0, #E2E8F0)"/>
</g>
<g id="Group_3">
<path id="Vector_12" d="M136.735 16.1498C135.954 16.1498 135.272 16.0077 134.675 15.7235C134.093 15.4393 133.624 15.0415 133.283 14.53C132.942 14.0185 132.729 13.4217 132.672 12.7539L134.206 12.6545C134.292 13.3365 134.562 13.848 135.016 14.2032C135.471 14.5442 136.039 14.7289 136.735 14.7289C137.517 14.7289 138.142 14.4874 138.625 14.0043C139.108 13.5212 139.336 12.8534 139.336 12.0009C139.336 11.4325 139.236 10.9352 139.023 10.5232C138.824 10.1111 138.526 9.78434 138.142 9.57121C137.758 9.34388 137.304 9.24442 136.764 9.24442C136.281 9.24442 135.826 9.35809 135.386 9.59963C134.945 9.84118 134.633 10.168 134.434 10.5942H132.871L133.666 3.78835H140.117V5.22341H135.016L134.476 9.68488L134.206 9.41492C134.391 9.05971 134.633 8.77554 134.917 8.5482C135.201 8.32087 135.542 8.15037 135.897 8.02249C136.252 7.89461 136.608 7.83778 136.963 7.83778C137.73 7.83778 138.412 8.02249 138.995 8.3777C139.577 8.73291 140.032 9.23021 140.359 9.85539C140.685 10.4806 140.842 11.191 140.842 12.0009C140.842 12.8108 140.671 13.5212 140.316 14.1606C139.961 14.7857 139.478 15.283 138.853 15.6382C138.227 15.9935 137.517 16.164 136.707 16.164L136.735 16.1498Z" fill="var(--fill-0, #6B7280)"/>
<path id="Vector_13" d="M146.43 16.0793C145.634 16.0793 144.952 15.8803 144.37 15.4967C143.787 15.1131 143.347 14.5589 143.034 13.8627C142.721 13.1523 142.565 12.3282 142.565 11.362C142.565 10.3959 142.721 9.55755 143.034 8.86134C143.347 8.15091 143.787 7.61099 144.37 7.22736C144.952 6.84373 145.634 6.64481 146.43 6.64481C147.069 6.64481 147.623 6.8011 148.106 7.09948C148.589 7.39786 148.93 7.73887 149.144 8.10829V3.77469H150.579V15.8803H149.286L149.229 14.5163C148.973 14.9994 148.604 15.383 148.121 15.6672C147.638 15.9514 147.069 16.0793 146.43 16.0793ZM146.515 14.7152C147.055 14.7152 147.524 14.5732 147.922 14.3032C148.32 14.0332 148.618 13.6354 148.831 13.1381C149.044 12.6266 149.144 12.044 149.144 11.362C149.144 10.68 149.044 10.0549 148.831 9.55756C148.618 9.06026 148.32 8.67663 147.922 8.40667C147.524 8.1367 147.041 8.00883 146.487 8.00883C145.748 8.00883 145.165 8.30721 144.725 8.90396C144.284 9.50072 144.071 10.3248 144.071 11.362C144.071 12.3993 144.284 13.2091 144.725 13.8201C145.165 14.4311 145.762 14.7295 146.529 14.7295L146.515 14.7152Z" fill="var(--fill-0, #6B7280)"/>
</g>
<g id="Vector_14" filter="url(#filter0_d_219_896)">
<path d="M21.8467 46.4141C24.9856 46.4141 27.5301 43.8696 27.5301 40.7307C27.5301 37.5919 24.9856 35.0473 21.8467 35.0473C18.7079 35.0473 16.1633 37.5919 16.1633 40.7307C16.1633 43.8696 18.7079 46.4141 21.8467 46.4141Z" fill="var(--fill-0, #22C55E)"/>
</g>
<g id="Group_4">
<path id="Vector_15" d="M40.4617 46.4139V34.3082H45.0511C45.9036 34.3082 46.6424 34.4503 47.2534 34.7487C47.8644 35.0471 48.3475 35.4733 48.6743 36.0132C49.0153 36.5674 49.1716 37.221 49.1716 37.9598C49.1716 38.4997 49.0437 38.997 48.7879 39.4233C48.5322 39.8495 48.2054 40.1905 47.8075 40.4321C47.4097 40.6878 46.9977 40.8157 46.5572 40.8441L46.4577 40.6878C47.1966 40.6878 47.7791 40.8583 48.2054 41.1993C48.6316 41.5403 48.8732 42.0803 48.9442 42.8333L49.2852 46.3997H47.8075L47.495 42.9896C47.4523 42.4923 47.2676 42.1229 46.955 41.8813C46.6424 41.6398 46.1309 41.5261 45.4347 41.5261H41.9252V46.3997H40.4617V46.4139ZM41.9394 40.1053H45.25C45.9889 40.1053 46.5714 39.9206 47.0119 39.5369C47.4381 39.1675 47.6655 38.6276 47.6655 37.9314C47.6655 37.2352 47.4381 36.681 46.9977 36.2974C46.5572 35.9138 45.9178 35.7291 45.0653 35.7291H41.9394V40.0911V40.1053Z" fill="var(--fill-0, #9CA3AF)"/>
<path id="Vector_16" d="M54.5145 46.6132C53.6193 46.6132 52.8947 46.3148 52.3548 45.7039C51.8148 45.0929 51.5449 44.2546 51.5449 43.189V37.3777H52.9799V42.8053C52.9799 43.6863 53.1362 44.3257 53.4488 44.7377C53.7614 45.1497 54.2445 45.3629 54.8839 45.3629C55.5943 45.3629 56.1626 45.1355 56.5747 44.6667C56.9867 44.212 57.1857 43.5726 57.1857 42.7627V37.3777H58.6207V46.4143H57.2567V44.1836L57.484 44.2972C57.2993 45.0361 56.9583 45.6044 56.4468 46.0165C55.9353 46.4143 55.2959 46.6274 54.5145 46.6274V46.6132Z" fill="var(--fill-0, #9CA3AF)"/>
<path id="Vector_17" d="M61.3458 46.4134V37.3768H62.653L62.7098 39.6786L62.5393 39.5223C62.653 38.9824 62.8519 38.5419 63.1361 38.2009C63.4203 37.8599 63.7613 37.5899 64.1733 37.4194C64.5712 37.2489 65.0116 37.1637 65.4805 37.1637C66.1767 37.1637 66.7451 37.32 67.1997 37.6184C67.6544 37.931 67.9812 38.343 68.2085 38.8545C68.4359 39.366 68.5353 39.9486 68.5353 40.5879V46.3992H67.1003V41C67.1003 40.4459 67.0292 39.977 66.9014 39.5933C66.7735 39.2097 66.5603 38.9256 66.2762 38.7266C65.992 38.5277 65.6226 38.4282 65.1679 38.4282C64.4717 38.4282 63.9034 38.6414 63.4487 39.0818C62.994 39.5223 62.7809 40.1617 62.7809 41V46.3992H61.3458V46.4134Z" fill="var(--fill-0, #9CA3AF)"/>
<path id="Vector_18" d="M70.9234 46.4134V37.3768H72.2306L72.2874 39.6786L72.1169 39.5223C72.2306 38.9824 72.4295 38.5419 72.7136 38.2009C72.9978 37.8599 73.3388 37.5899 73.7509 37.4194C74.1487 37.2489 74.5892 37.1637 75.058 37.1637C75.7543 37.1637 76.3226 37.32 76.7773 37.6184C77.2319 37.931 77.5587 38.343 77.7861 38.8545C78.0134 39.366 78.1129 39.9486 78.1129 40.5879V46.3992H76.6778V41C76.6778 40.4459 76.6068 39.977 76.4789 39.5933C76.351 39.2097 76.1379 38.9256 75.8537 38.7266C75.5696 38.5277 75.2001 38.4282 74.7455 38.4282C74.0492 38.4282 73.4809 38.6414 73.0262 39.0818C72.5716 39.5223 72.3584 40.1617 72.3584 41V46.3992H70.9234V46.4134Z" fill="var(--fill-0, #9CA3AF)"/>
<path id="Vector_19" d="M80.6175 35.9566V34.28H82.1236V35.9566H80.6175ZM80.6601 46.4141V37.3774H82.0952V46.4141H80.6601Z" fill="var(--fill-0, #9CA3AF)"/>
<path id="Vector_20" d="M84.9934 46.4134V37.3768H86.3006L86.3574 39.6786L86.1869 39.5223C86.3006 38.9824 86.4995 38.5419 86.7837 38.2009C87.0679 37.8599 87.4089 37.5899 87.8209 37.4194C88.2188 37.2489 88.6592 37.1637 89.1281 37.1637C89.8243 37.1637 90.3927 37.32 90.8473 37.6184C91.302 37.931 91.6288 38.343 91.8561 38.8545C92.0835 39.366 92.1829 39.9486 92.1829 40.5879V46.3992H90.7479V41C90.7479 40.4459 90.6768 39.977 90.5489 39.5933C90.4211 39.2097 90.2079 38.9256 89.9238 38.7266C89.6396 38.5277 89.2702 38.4282 88.8155 38.4282C88.1193 38.4282 87.5509 38.6414 87.0963 39.0818C86.6416 39.5223 86.4285 40.1617 86.4285 41V46.3992H84.9934V46.4134Z" fill="var(--fill-0, #9CA3AF)"/>
<path id="Vector_21" d="M98.1212 49.1704C97.4676 49.1704 96.8851 49.0568 96.3594 48.8436C95.8336 48.6305 95.3932 48.3179 95.0522 47.9201C94.697 47.5222 94.4554 47.0676 94.3417 46.5419L95.8479 46.4424C95.9899 46.8686 96.2315 47.1954 96.5725 47.437C96.9135 47.6785 97.4392 47.8064 98.1354 47.8064C98.9595 47.8064 99.5847 47.6359 100.025 47.3091C100.466 46.9823 100.679 46.485 100.679 45.8314V44.3679C100.466 44.851 100.11 45.2205 99.6415 45.5046C99.1726 45.7888 98.6327 45.9309 98.036 45.9309C97.2687 45.9309 96.6009 45.7462 96.0041 45.3625C95.4074 44.9931 94.9385 44.4674 94.6117 43.8138C94.2707 43.1602 94.1144 42.393 94.1144 41.5405C94.1144 40.6879 94.2849 39.9207 94.6117 39.2671C94.9385 38.6135 95.3932 38.102 95.9899 37.7184C96.5725 37.3489 97.2403 37.15 97.9933 37.15C98.6327 37.15 99.2011 37.2921 99.7126 37.5905C100.224 37.8889 100.579 38.2867 100.778 38.784V37.3489H102.142V45.7746C102.142 46.485 101.986 47.0818 101.659 47.5933C101.347 48.1048 100.892 48.4884 100.295 48.7584C99.6984 49.0283 98.9879 49.1562 98.1638 49.1562L98.1212 49.1704ZM98.0786 44.5669C98.8458 44.5669 99.471 44.2969 99.9399 43.757C100.409 43.2171 100.65 42.4782 100.65 41.5547C100.65 40.9295 100.565 40.3896 100.352 39.9491C100.139 39.4944 99.8404 39.1534 99.4426 38.9119C99.0448 38.6703 98.5901 38.5425 98.0644 38.5425C97.2687 38.5425 96.6577 38.8124 96.2173 39.3523C95.7768 39.8923 95.5637 40.6311 95.5637 41.5547C95.5637 42.4782 95.791 43.2171 96.2315 43.757C96.6719 44.2969 97.2971 44.5669 98.0644 44.5669H98.0786Z" fill="var(--fill-0, #9CA3AF)"/>
</g>
</g>
<defs>
<filter id="filter0_d_219_896" x="-2.65776e-07" y="18.884" width="43.6934" height="43.6934" filterUnits="userSpaceOnUse" color-interpolation-filters="sRGB">
<feFlood flood-opacity="0" result="BackgroundImageFix"/>
<feColorMatrix in="SourceAlpha" type="matrix" values="0 0 0 0 0 0 0 0 0 0 0 0 0 0 0 0 0 0 127 0" result="hardAlpha"/>
<feOffset/>
<feGaussianBlur stdDeviation="8.08166"/>
<feComposite in2="hardAlpha" operator="out"/>
<feColorMatrix type="matrix" values="0 0 0 0 0.631373 0 0 0 0 0.819608 0 0 0 0 0.658824 0 0 0 1 0"/>
<feBlend mode="normal" in2="BackgroundImageFix" result="effect1_dropShadow_219_896"/>
<feBlend mode="normal" in="SourceGraphic" in2="effect1_dropShadow_219_896" result="shape"/>
</filter>
</defs>
</svg>
