<svg preserveAspectRatio="none" width="100%" height="100%" overflow="visible" style="display: block;" viewBox="0 0 19.077 18.2245" fill="none" xmlns="http://www.w3.org/2000/svg">
<path id="Vector" d="M8.06674 13.3209C5.60759 13.027 3.87501 11.2815 3.87501 9.02148C3.87501 8.10281 4.21036 7.11062 4.76926 6.44917C4.52706 5.84284 4.56432 4.55668 4.84377 4.02384C5.58897 3.93198 6.59498 4.31781 7.19114 4.85065C7.89907 4.63018 8.64426 4.51994 9.55714 4.51994C10.47 4.51994 11.2152 4.63018 11.8859 4.83228C12.4634 4.31781 13.488 3.93198 14.2332 4.02384C14.494 4.51994 14.5313 5.80609 14.2891 6.4308C14.8853 7.129 15.202 8.06606 15.202 9.02148C15.202 11.2815 13.4694 12.9902 10.973 13.3026C11.6064 13.7068 12.0349 14.5887 12.0349 15.5993V17.5101C12.0349 18.0614 12.5006 18.3737 13.0595 18.1532C16.4316 16.8854 19.077 13.5598 19.077 9.44408C19.077 4.24432 14.7921 4.58155e-08 9.51986 0C4.24762 -4.58155e-08 0 4.24432 0 9.44408C0 13.523 2.62681 16.9038 6.16649 18.1716C6.6695 18.3553 7.15388 18.0246 7.15388 17.5285V16.0586C6.89305 16.1689 6.55773 16.2424 6.25964 16.2424C5.03007 16.2424 4.30351 15.5809 3.78187 14.3499C3.57695 13.8538 3.35337 13.5598 2.92488 13.5047C2.70133 13.4863 2.62681 13.3944 2.62681 13.2842C2.62681 13.0637 2.99942 12.8983 3.372 12.8983C3.91227 12.8983 4.37802 13.2291 4.8624 13.9089C5.23499 14.4417 5.62622 14.6806 6.09197 14.6806C6.55773 14.6806 6.85579 14.5152 7.28429 14.0926C7.60098 13.7803 7.84318 13.5047 8.06674 13.3209Z" fill="var(--fill-0, white)"/>
</svg>
