<svg preserveAspectRatio="none" width="100%" height="100%" overflow="visible" style="display: block;" viewBox="0 0 27.9709 21.6522" fill="none" xmlns="http://www.w3.org/2000/svg">
<g id="Group">
<path id="Vector" d="M23.694 1.81336C21.8834 0.966227 19.9474 0.350564 17.9234 1.02914e-08C17.6748 0.449411 17.3844 1.05388 17.1842 1.53473C15.0326 1.21116 12.9008 1.21116 10.7888 1.53473C10.5886 1.05388 10.2916 0.449411 10.0408 1.02914e-08C8.01459 0.350564 6.07638 0.968489 4.26578 1.81785C0.613777 7.3365 -0.376221 12.7181 0.118779 18.0232C2.54098 19.8321 4.88838 20.9309 7.19617 21.6499C7.76598 20.8657 8.27417 20.0321 8.71196 19.1535C7.87817 18.8367 7.07957 18.4457 6.32499 17.9918C6.52518 17.8435 6.72099 17.6884 6.91017 17.5289C11.5126 19.6816 16.5132 19.6816 21.0606 17.5289C21.252 17.6884 21.4478 17.8435 21.6458 17.9918C20.889 18.4479 20.0882 18.8389 19.2544 19.1558C19.6922 20.0321 20.1982 20.868 20.7702 21.6522C23.0802 20.9331 25.4298 19.8343 27.852 18.0232C28.4328 11.8732 26.8598 6.54105 23.694 1.81336ZM9.33897 14.7606C7.95738 14.7606 6.82436 13.4708 6.82436 11.9002C6.82436 10.3295 7.93319 9.03748 9.33897 9.03748C10.7448 9.03748 11.8778 10.3272 11.8536 11.9002C11.8558 13.4708 10.7448 14.7606 9.33897 14.7606ZM18.6318 14.7606C17.2502 14.7606 16.1172 13.4708 16.1172 11.9002C16.1172 10.3295 17.226 9.03748 18.6318 9.03748C20.0376 9.03748 21.1706 10.3272 21.1464 11.9002C21.1464 13.4708 20.0376 14.7606 18.6318 14.7606Z" fill="var(--fill-0, white)"/>
</g>
</svg>
