<svg preserveAspectRatio="none" width="100%" height="100%" overflow="visible" style="display: block;" viewBox="0 0 26.564 25.3769" fill="none" xmlns="http://www.w3.org/2000/svg">
<path id="Vector" d="M11.2326 18.5489C7.80836 18.1395 5.39581 15.709 5.39581 12.5621C5.39581 11.2828 5.86276 9.90127 6.64101 8.98022C6.30375 8.13593 6.35563 6.34501 6.74477 5.60305C7.78241 5.47513 9.18326 6.01239 10.0134 6.75435C10.9991 6.44734 12.0368 6.29384 13.3079 6.29384C14.579 6.29384 15.6167 6.44734 16.5506 6.72876C17.3548 6.01239 18.7816 5.47513 19.8192 5.60305C20.1824 6.29384 20.2343 8.08476 19.897 8.95464C20.7271 9.92685 21.1682 11.2317 21.1682 12.5621C21.1682 15.709 18.7556 18.0884 15.2795 18.5233C16.1615 19.0862 16.7581 20.3142 16.7581 21.7214V24.3822C16.7581 25.1497 17.4066 25.5847 18.1849 25.2777C22.8803 23.5123 26.564 18.8815 26.564 13.1505C26.564 5.91005 20.5974 6.37962e-08 13.256 0C5.91464 -6.37962e-08 0 5.91005 0 13.1505C0 18.8303 3.65774 23.5379 8.5866 25.3032C9.28702 25.5591 9.9615 25.0986 9.9615 24.4078V22.361C9.59831 22.5145 9.13138 22.6169 8.7163 22.6169C7.00417 22.6169 5.99246 21.6958 5.2661 19.9816C4.98076 19.2909 4.66944 18.8815 4.07278 18.8047C3.7615 18.7791 3.65774 18.6512 3.65774 18.4977C3.65774 18.1907 4.17657 17.9604 4.69538 17.9604C5.44769 17.9604 6.09623 18.421 6.77071 19.3676C7.28952 20.1096 7.8343 20.4422 8.48284 20.4422C9.13138 20.4422 9.54642 20.2119 10.1431 19.6234C10.5841 19.1885 10.9213 18.8047 11.2326 18.5489Z" fill="var(--fill-0, white)"/>
</svg>
