<svg viewBox="0 0 100.785 33.595" fill="none" xmlns="http://www.w3.org/2000/svg">
<g transform="translate(1.935, 2.583)">
<path d="M96.869 5.19274V5.19784C96.409 7.04511 95.0858 8.38329 94.1342 9.22762L94.1109 9.24803C93.963 9.37692 93.8073 9.49734 93.6458 9.60879C93.7156 9.75247 93.775 9.90126 93.8222 10.054L93.8299 10.0822C94.0115 10.6907 94.0573 11.3318 93.9656 11.9602C93.7924 13.0106 93.5082 14.0398 93.1186 15.0304C92.9468 15.5114 92.7833 15.9669 92.658 16.4146C92.3123 17.612 91.9182 19.0294 91.601 20.4776C91.3755 21.5338 91.2961 22.616 91.3659 23.6937C91.4072 24.1699 91.3219 24.6485 91.1184 25.0809C90.9149 25.5133 90.6003 25.8839 90.2068 26.1551C89.4425 26.7448 88.5859 27.2039 87.6711 27.5137C86.1645 27.9717 85.1127 27.5725 84.4963 27.1555C84.3949 27.0873 84.2986 27.013 84.2069 26.9329C83.4452 27.4096 82.5937 27.7233 81.7047 27.854C81.3494 27.9069 80.9915 27.9342 80.6323 27.9358C79.9352 27.9557 79.242 27.8278 78.5978 27.5605C77.9531 27.2933 77.3729 26.8928 76.8942 26.3854C76.7682 26.2529 76.65 26.1137 76.5389 25.9683C76.2049 26.2091 75.8534 26.4246 75.4871 26.613C74.4553 27.1597 73.2763 27.364 72.1205 27.1964C71.1443 27.0889 70.2211 26.7005 69.462 26.0783C68.5904 25.3054 68.02 24.2499 67.8501 23.0976C67.7958 22.8109 67.759 22.5213 67.7402 22.2303C67.226 22.9646 66.6704 23.6528 66.1354 24.3001C65.1437 25.5551 63.8852 26.5741 62.4514 27.2834C60.963 28.0101 59.2571 28.1561 57.6669 27.6928C56.7899 27.4761 55.953 27.1212 55.1876 26.6412C54.7813 26.3768 54.4151 26.0554 54.1002 25.6869C53.7881 26.0092 53.4759 26.306 53.1766 26.5926C52.9949 26.7666 52.8107 26.9406 52.6316 27.1171C52.352 27.3936 52.0197 27.6112 51.6545 27.7571C51.2893 27.903 50.8986 27.9742 50.5054 27.9665C50.2963 27.9663 50.0875 27.9492 49.8811 27.9154C48.9714 27.7806 48.0835 27.5259 47.2407 27.1581L47.2151 27.1453C46.3623 26.7658 45.6334 26.154 45.1119 25.3799C44.3219 26.0256 43.4516 26.5666 42.5227 26.9892C41.6 27.4353 40.6072 27.7184 39.588 27.8258C38.692 27.9259 37.7899 27.961 36.8888 27.9307C35.3788 27.8755 33.9127 27.4083 32.6492 26.5798C31.3284 25.6807 30.3856 24.3261 30.0011 22.7752C29.9934 22.7419 29.9831 22.7087 29.9754 22.6755C29.5411 22.877 29.0841 23.0256 28.6143 23.1181C27.3911 23.3874 26.1162 23.2976 24.9428 22.8597C24.3258 22.6256 23.7784 22.2388 23.3519 21.7353C22.9254 21.2318 22.6338 20.6283 22.5044 19.9813C21.5478 21.3489 20.6762 22.7742 19.8947 24.2489C19.8129 24.3999 19.7309 24.5841 19.6414 24.776C19.4659 25.1785 19.2642 25.5691 19.0376 25.9453C18.651 26.5886 18.1011 27.1182 17.4436 27.4804C16.7863 27.8426 16.0448 28.0244 15.2944 28.0075H15.2816C14.4827 28.0306 13.6903 27.8575 12.9738 27.5034C12.8919 27.46 12.8126 27.4139 12.7358 27.3653C12.6258 27.4216 12.5158 27.4753 12.4007 27.529C11.3723 28.0475 10.2615 28.3825 9.11798 28.5192L8.93379 28.5396C8.46049 28.5857 7.94106 28.6369 7.39353 28.6369C7.23744 28.6369 7.07883 28.6318 6.92023 28.6241C5.34495 28.5573 3.83205 27.99 2.60134 27.0046C1.35812 25.9871 0.507793 24.5687 0.196278 22.9927C-0.0260232 21.9271 -0.0597925 20.8308 0.0964949 19.7535C0.325974 18.1842 0.834633 16.6686 1.59837 15.2786C2.18001 14.1678 2.87357 13.1193 3.66826 12.1495C4.53421 11.0943 5.55983 10.1809 6.70787 9.44249C7.63767 8.8363 8.67724 8.41817 9.76791 8.21182C11.2544 7.9355 12.6821 8.29116 14.1431 9.30178C14.8995 9.81934 15.5499 10.4768 16.0594 11.2386C17.0572 9.84421 18.3059 9.03826 19.7719 8.8489C20.5119 8.72815 21.2713 8.83494 21.9493 9.15519C22.6273 9.47551 23.192 9.99416 23.5688 10.6425C23.9902 10.3531 24.4353 10.0998 24.8992 9.88517C25.8734 9.40476 26.9504 9.17025 28.036 9.20203C29.7119 9.2762 30.9861 9.83142 31.9276 10.9009C32.3021 11.3275 32.5867 11.8253 32.7643 12.3644C33.141 11.9077 33.5534 11.4816 33.9975 11.0903C35.1804 9.99377 36.6524 9.25869 38.2397 8.97171C38.8217 8.88824 39.4112 8.86938 39.9974 8.91544C40.1202 8.92055 40.2456 8.92565 40.3684 8.92823C41.2556 8.96215 42.1272 9.17264 42.9321 9.54741C43.9539 9.9866 44.8222 10.7195 45.4267 11.6531C45.5546 11.4407 45.6927 11.231 45.8386 11.0288C46.7085 9.82373 47.7984 9.11242 49.0778 8.91286C49.6446 8.80606 50.2275 8.8175 50.7897 8.94652C51.3519 9.07547 51.8814 9.31929 52.3451 9.66254C52.8923 10.0868 53.3046 10.6607 53.5321 11.3147C53.7597 11.9686 53.7926 12.6746 53.6269 13.3469C53.5782 13.5772 53.5271 13.81 53.4759 14.0403C53.6832 13.5976 53.8955 13.1499 54.1182 12.7073C54.7885 11.3563 55.6737 10.4327 56.8225 9.88769C57.524 9.5383 58.3074 9.38654 59.0885 9.4487C59.8697 9.51091 60.6192 9.78477 61.2566 10.2408C61.8348 10.6348 62.5435 11.405 62.6407 12.8377C62.6726 13.7026 62.5397 14.5657 62.2493 15.381C62.1929 15.5652 62.1367 15.7519 62.0778 15.9387L62.1853 15.6931C62.4028 15.1967 62.6228 14.7004 62.8457 14.2091C63.526 12.6996 64.2244 11.1567 66.0896 10.0028C66.5024 9.73593 66.943 9.51621 67.4049 9.34785C68.8502 8.85659 71.8336 8.97688 72.888 10.8906C73.4494 10.3775 74.0839 9.95074 74.7706 9.62416C75.7068 9.15991 76.7379 8.91906 77.7825 8.92054L77.8794 8.92313C78.6773 8.90116 79.4739 9.00208 80.2414 9.22245C80.7344 9.37401 81.195 9.61609 81.5994 9.93634C82.7462 9.52952 84.2069 9.5551 85.2839 10.402C85.4964 10.5719 85.6857 10.7689 85.8472 10.9879C86.1741 10.4727 86.5456 9.98725 86.9572 9.5372C87.4191 9.02372 87.976 8.60488 88.5975 8.30395C88.3656 7.75235 88.1931 7.17774 88.0832 6.5897C87.9644 6.02893 87.8959 5.45865 87.8784 4.88567V4.83967C87.85 3.76437 88.1705 2.70881 88.792 1.83076C89.1751 1.2823 89.6816 0.831485 90.2708 0.514627C90.86 0.197769 91.5157 0.0237217 92.1844 0.00650428C93.1328 -0.0402249 94.0767 0.165486 94.9198 0.602652C95.7132 1.037 96.3379 1.72629 96.6913 2.55916C97.0453 3.39204 97.108 4.31985 96.869 5.19274Z" fill="#101729"/>
</g>
<g transform="translate(91.72, 4.51)">
<path d="M5.21143 2.81218C4.90456 4.04285 3.98845 5.05348 3.06459 5.87222C2.7364 6.15429 2.3675 6.38468 1.96953 6.55536C1.48887 6.76772 1.16648 6.63211 0.877045 6.19971C0.51913 5.6138 0.278151 4.96381 0.168322 4.2859C0.0714136 3.83398 0.0152142 3.37406 0.00229308 2.912C-0.0235492 2.24281 0.16962 1.58345 0.552085 1.03398C0.765284 0.722508 1.04955 0.466579 1.38162 0.287628C1.71369 0.108671 2.08388 0.0119045 2.46118 0.00543101C3.07429 -0.0290102 3.68545 0.100828 4.23137 0.381545C5.10936 0.837221 5.44208 1.88342 5.21143 2.81218Z" fill="white"/>
</g>
<g transform="translate(71.58, 12.39)">
<path d="M22.352 0.820869C22.1498 0.17869 21.5586 0.0634968 20.9882 0.00980957C20.052 -0.0746299 19.3175 0.396151 18.7263 1.03323C18.2398 1.57798 17.8147 2.17526 17.4601 2.81402C16.7177 4.09708 16.2668 5.51408 15.8346 6.92099C15.5535 7.83594 15.3068 8.64086 14.9566 9.82805C14.7492 10.5304 14.5153 11.6137 13.8648 12.1607C13.7026 12.3106 13.49 12.3954 13.2691 12.3986C12.9978 12.3603 12.9002 12.0737 12.8879 11.8076C12.8724 11.5134 12.8724 11.2191 12.8853 10.9249C12.9596 10.023 13.1483 9.13412 13.4455 8.27933C13.8803 6.87215 14.3487 5.47518 14.7705 4.06284C14.9508 3.57533 14.9592 3.04085 14.7938 2.54816C14.7221 2.37425 14.6077 2.22113 14.4611 2.10297C13.8751 1.64239 12.8136 1.71915 12.1714 2.14645C11.9589 2.29233 11.7489 2.44324 11.5267 2.59675C11.4776 2.51748 11.4395 2.46114 11.4039 2.39976C11.2612 2.12442 11.0654 1.88008 10.8283 1.68109C10.5906 1.48211 10.3153 1.33242 10.0194 1.24074C9.39987 1.07664 8.75898 1.00596 8.11874 1.0309C7.36544 1.03491 6.62377 1.21264 5.95122 1.55033C4.89427 2.08526 3.99367 2.88586 3.33922 3.87348C2.6137 4.86343 1.96829 5.90979 1.4101 7.00259C0.829292 8.10192 0.406125 9.27767 0.153518 10.495C0.0682382 10.9408 0.0165541 11.3924 0.000402691 11.846C-0.0041197 12.2135 0.0294748 12.5804 0.0998948 12.9411C0.191635 13.6583 0.534045 14.3199 1.06704 14.8088C1.55288 15.1946 2.14078 15.4311 2.75841 15.4894C3.51365 15.6001 4.28504 15.4656 4.95888 15.1056C5.68957 14.7211 6.34661 14.211 6.90028 13.5986C7.13351 13.3479 7.37901 13.1074 7.64518 12.831C7.67555 12.9922 7.69881 13.0946 7.71431 13.1969C7.80993 13.9622 8.13554 14.6804 8.64786 15.2565C9.51293 16.1674 10.6209 16.3184 11.7877 16.1469C12.4292 16.0516 13.0436 15.8214 13.5902 15.4717C13.8757 15.2901 14.713 14.3084 15.0399 14.5632C15.4411 14.8759 15.4818 15.4538 15.9308 15.7563C16.1634 15.8887 16.4231 15.9676 16.69 15.9874C16.9574 16.0071 17.2255 15.9671 17.4756 15.8704C18.1895 15.616 18.8581 15.2489 19.4557 14.783C19.5856 14.6978 19.6883 14.577 19.7516 14.4349C19.8149 14.2929 19.8356 14.1357 19.8111 13.9821C19.7355 12.7336 19.8279 11.4805 20.0876 10.2568C20.397 8.85218 20.7763 7.4629 21.1723 6.08125C21.5716 4.67408 22.2292 3.34107 22.4289 1.87497C22.4799 1.52223 22.4541 1.16244 22.352 0.820869ZM9.4438 5.24235C9.03743 6.95737 8.24343 8.55642 7.12317 9.91682C6.7336 10.4351 6.26392 10.8878 5.73157 11.2575C5.41629 11.4674 5.10941 11.5441 4.93562 11.1552C4.88781 11.0481 4.85745 10.9341 4.84582 10.8174C4.77669 10.1497 5.10683 9.45373 5.33488 8.84482C5.58555 8.15909 5.86594 7.48791 6.17669 6.83119C6.62441 5.88194 7.14901 4.97113 7.96756 4.28799C8.23503 4.08591 8.53351 3.92711 8.85007 3.81721C9.0678 3.73019 9.32363 3.92465 9.42313 4.16518C9.54265 4.51327 9.54975 4.88992 9.4438 5.24235Z" fill="white"/>
</g>
<g transform="translate(3.86, 12.63)">
<path d="M29.1687 8.5632C28.7133 9.97806 27.805 10.8966 26.3159 11.1959C25.4497 11.3931 24.5449 11.3344 23.7113 11.0271C23.3382 10.8844 23.016 10.6341 22.7855 10.3079C22.5549 9.98174 22.4266 9.59443 22.4167 9.19517C22.3552 8.12821 22.7825 7.20713 23.2789 6.30653C23.4862 5.93298 23.701 5.56201 23.8725 5.1705C23.9462 4.97475 23.9742 4.76471 23.9544 4.55649C23.9442 4.48717 23.9182 4.42114 23.8786 4.36332C23.839 4.30556 23.7868 4.25756 23.7259 4.22306C23.6649 4.1885 23.5969 4.16834 23.527 4.16401C23.4571 4.15975 23.3871 4.17144 23.3224 4.19825C22.9534 4.36965 22.6091 4.58996 22.299 4.85329C21.0529 5.99694 20.0526 7.34784 19.0879 8.73208C18.0565 10.1966 17.1183 11.7245 16.2786 13.3068C16.0049 13.8287 15.8002 14.3916 15.4906 14.888C15.275 15.2556 14.9635 15.5576 14.5894 15.7617C14.2153 15.9659 13.7928 16.0645 13.367 16.047C12.8766 16.0688 12.3882 15.9704 11.9444 15.7605C11.6016 15.5753 11.3392 15.2701 11.2076 14.9033C10.6984 15.1873 10.1943 15.502 9.66218 15.7528C8.83213 16.1752 7.93541 16.4513 7.01148 16.5689C6.38306 16.651 5.74915 16.6836 5.11563 16.6662C3.94117 16.6238 2.81121 16.2059 1.89181 15.4739C0.986786 14.7312 0.371075 13.6944 0.151984 12.5443C-0.0227932 11.6946 -0.0470461 10.8208 0.0803497 9.96275C0.279212 8.61882 0.717716 7.32154 1.37498 6.13254C1.89697 5.13613 2.51937 4.19567 3.23251 3.32582C3.97211 2.42489 4.84739 1.64459 5.82687 1.01287C6.55039 0.542415 7.35861 0.217385 8.20636 0.0559357C9.30401 -0.148735 10.2507 0.229918 11.1308 0.83889C11.7433 1.25411 12.2604 1.79486 12.6481 2.42515C13.0035 3.06798 13.0978 3.82296 12.9116 4.53343C12.7215 5.30921 12.4425 6.06044 12.08 6.7722C11.7474 7.50903 11.4174 8.24592 11.077 8.98023C11.0208 9.13987 10.9036 9.27063 10.7511 9.34402C10.5986 9.41741 10.4232 9.42736 10.2635 9.37167C9.78913 9.22153 9.36248 8.94973 9.02582 8.58348C8.68916 8.21717 8.45425 7.76913 8.34455 7.28388C8.26476 6.58866 8.37808 5.88491 8.67204 5.24984C8.97646 4.46436 9.32701 3.69678 9.66477 2.92669C9.69597 2.875 9.71632 2.8175 9.72459 2.75774C9.7328 2.69792 9.72879 2.63712 9.71277 2.57891C9.69675 2.52077 9.66897 2.46643 9.63124 2.41934C9.59351 2.37224 9.5466 2.33328 9.49331 2.30492C9.10567 2.39505 8.75435 2.60017 8.48526 2.89341C8.00938 3.36419 7.55901 3.86056 7.12919 4.37482C6.26374 5.45593 5.52549 6.63291 4.92886 7.88258C4.55531 8.60119 4.32253 9.38446 4.24313 10.1904C4.16406 10.8097 4.18395 11.4375 4.30199 12.0505C4.36679 12.4402 4.56364 12.7957 4.85941 13.0575C5.15523 13.3193 5.53201 13.4714 5.92669 13.4884C7.44027 13.5728 8.94261 13.1839 10.2251 12.3754C10.7141 12.0405 11.1838 11.6783 11.6323 11.2907C11.7144 11.2131 11.776 11.1164 11.8114 11.0092C12.2642 9.79897 12.689 8.57851 13.17 7.38111C13.5231 6.4933 13.9427 5.63107 14.3367 4.76116C14.7076 3.90669 15.1618 3.09078 15.6927 2.3254C16.2914 1.48365 17.0462 0.846514 18.0978 0.710907C18.9446 0.600948 19.725 0.88489 20.1293 1.84183C20.4849 2.68357 20.2802 3.49211 20.0065 4.30059C19.9349 4.50784 19.8658 4.7151 19.7762 4.98121C20.27 4.44388 20.6896 3.93221 21.1629 3.48184C21.9251 2.70896 22.8105 2.06827 23.783 1.58599C24.4795 1.23699 25.2504 1.0623 26.0294 1.07683C26.9939 1.12031 27.8945 1.36336 28.57 2.12835C28.864 2.47393 29.0578 2.89335 29.1304 3.34113C29.289 4.17267 29.0127 4.91977 28.7057 5.66687C28.4779 6.21957 28.2451 6.7722 28.0737 7.34273C27.9355 7.80583 28.1811 8.13338 28.6724 8.25871C28.7813 8.28695 28.8927 8.30497 29.005 8.31246C29.1866 8.32015 29.2122 8.42249 29.1687 8.5632Z" fill="white"/>
</g>
<g transform="translate(33.55, 13.34)">
<path d="M39.6249 1.12373C39.2217 0.219772 37.2306 0.124092 36.4088 0.404222C36.0838 0.525874 35.7737 0.683899 35.4843 0.875261C34.1101 1.72521 33.6217 2.81672 32.977 4.24237C32.3374 5.64955 31.7488 7.08237 31.0633 8.46655C30.6078 9.35681 30.0897 10.2135 29.5127 11.0302C29.1847 11.5615 28.6592 11.9406 28.0517 12.0844C27.691 12.156 27.5426 11.9948 27.4147 11.6801C27.2969 11.3912 27.2252 11.0855 27.2023 10.7744C27.1509 9.88076 27.2663 8.98533 27.5426 8.13396C27.9494 6.7702 28.3869 5.41671 28.7988 4.0556C29.016 3.46439 29.1219 2.83804 29.111 2.20827C29.1137 1.98854 29.0655 1.77108 28.97 1.57313C28.8746 1.37511 28.7345 1.20197 28.5609 1.0672C28.1992 0.802773 27.7714 0.643456 27.3249 0.606889C26.8784 0.570322 26.4304 0.657928 26.0305 0.85995C25.1811 1.26419 24.6258 1.9857 24.219 2.80445C23.6433 3.95578 23.124 5.13529 22.561 6.29179C22.1747 7.09258 21.7577 7.88064 21.3534 8.67122C20.8412 9.75833 20.2251 10.7934 19.5138 11.762C19.4012 11.9053 19.2016 12.1049 19.0737 12.0818C18.9202 12.0588 18.7974 11.826 18.6669 11.6801C18.6446 11.6534 18.6288 11.6219 18.6209 11.588C18.4256 10.8831 18.3915 10.1433 18.5211 9.42348C18.6516 8.60984 18.8153 7.79878 19.0021 6.99541C19.3705 5.39113 19.7901 3.79718 20.1356 2.18527C20.225 1.86844 20.2182 1.53224 20.1162 1.21929C20.0141 0.906337 19.8214 0.630729 19.5624 0.427545C19.3043 0.243031 19.0107 0.114077 18.7003 0.0488903C18.3898 -0.0162968 18.0691 -0.0162968 17.7586 0.0488903C16.9066 0.181913 16.2798 0.698758 15.7808 1.38959C15.1698 2.23921 14.7365 3.20339 14.5067 4.22448C14.3097 5.06881 14.1792 5.92845 14.0385 6.78816C13.9745 7.18471 13.9719 7.58894 13.9233 7.99066C13.9095 8.10185 13.8622 8.20625 13.7877 8.29004C13.4475 8.64563 13.102 8.9936 12.7464 9.33394C12.0729 9.98323 11.3011 10.522 10.4595 10.9305C9.91127 11.2242 9.30618 11.3963 8.68538 11.4351C8.06465 11.474 7.44282 11.3786 6.86221 11.1556C6.4866 11.0138 6.15297 10.7792 5.89261 10.4736C5.63219 10.1681 5.45349 9.80149 5.37312 9.40811C5.872 9.40811 6.35306 9.41321 6.83404 9.40811C7.97239 9.39557 9.09007 9.10297 10.0886 8.55609C11.0295 8.07697 11.7944 7.31204 12.2736 6.37106C12.8156 5.32116 12.9461 4.1067 12.6394 2.96564C12.5028 2.42579 12.2416 1.92549 11.8768 1.50471C11.5121 1.084 11.0538 0.754513 10.5389 0.542672C9.96289 0.270101 9.33835 0.115241 8.70179 0.0872663C8.11582 0.036874 7.52636 0.042818 6.94148 0.105162C5.70984 0.334318 4.56923 0.910406 3.65377 1.76566C2.68081 2.64125 1.87692 3.68799 1.28197 4.85387C0.595729 6.14753 0.171402 7.56388 0.0333396 9.02177C-0.0482572 9.85531 0.0202226 10.6967 0.235488 11.5061C0.500436 12.6138 1.16691 13.5838 2.10582 14.2285C3.08182 14.8622 4.21255 15.2169 5.37564 15.2545C6.18637 15.2787 6.99776 15.2454 7.80371 15.1546C8.6076 15.063 9.38984 14.8346 10.1167 14.4792C11.314 13.9319 12.3933 13.1567 13.2944 12.1969C13.5759 11.9027 13.8445 11.5931 14.0851 11.3245C14.3153 11.8848 14.5226 12.4656 14.7861 13.0183C15.1041 13.7366 15.6751 14.313 16.3903 14.6378C17.0829 14.94 17.8125 15.149 18.56 15.2596C18.7529 15.3098 18.9552 15.3115 19.1489 15.2647C19.3427 15.2178 19.5217 15.1238 19.6704 14.9909C20.1642 14.5048 20.6784 14.0366 21.1595 13.5376C21.4287 13.2397 21.6823 12.9279 21.9194 12.6038C22.2699 12.156 22.6153 11.7006 22.9812 11.2247C23.0221 11.4575 23.0502 11.6545 23.0937 11.849C23.3215 12.8392 23.7436 13.6988 24.6264 14.2796C25.2256 14.6477 25.8793 14.9189 26.5632 15.083C27.7069 15.4209 28.9357 15.3178 30.007 14.7939C31.188 14.203 32.223 13.3581 33.039 12.3198C33.6934 11.5487 34.3039 10.7415 34.8686 9.90189C35.7253 8.58684 36.5341 7.23335 37.3172 5.8696C37.7151 5.17573 38.1028 4.47573 38.4872 3.77437C38.8018 3.20177 39.643 2.19218 39.694 1.54845C39.7076 1.40335 39.6837 1.25714 39.6249 1.12373ZM5.71592 6.13571C5.97957 5.41516 6.37715 4.75108 6.8878 4.17842C7.19513 3.79362 7.62029 3.52034 8.09799 3.40056C8.25647 3.37459 8.41895 3.38906 8.57032 3.44275C8.72163 3.49637 8.85697 3.58747 8.9637 3.70744C9.07043 3.82748 9.14512 3.97252 9.18072 4.12912C9.21631 4.28573 9.21179 4.44879 9.16747 4.60313C8.80161 6.15871 7.7705 7.03889 6.27114 7.42265C5.94378 7.47769 5.61287 7.50928 5.28099 7.51736C5.4396 7.00562 5.56241 6.56553 5.71592 6.13571Z" fill="white"/>
</g>
</svg>
