<svg preserveAspectRatio="none" width="100%" height="100%" overflow="visible" style="display: block;" viewBox="0 0 137.146 84.0232" fill="none" xmlns="http://www.w3.org/2000/svg">
<g id="Group 2147203577">
<g id="Group">
<path id="Vector" d="M44.5931 5.06751H29.3308C27.2235 5.06751 25.5152 6.7758 25.5152 8.88309V18.4221C25.5152 20.5293 27.2235 22.2376 29.3308 22.2376H44.5931C46.7004 22.2376 48.4087 20.5293 48.4087 18.4221V8.88309C48.4087 6.7758 46.7004 5.06751 44.5931 5.06751Z" stroke="var(--stroke-0, #9CA3AF)" stroke-width="2.50415" stroke-linecap="round" stroke-linejoin="round"/>
<path id="Vector_2" d="M31.2417 5.06766V1.25208H42.6885V5.06766" stroke="var(--stroke-0, #9CA3AF)" stroke-width="2.50415" stroke-linecap="round" stroke-linejoin="round"/>
<path id="Vector_3" d="M33.1443 15.9416C34.4087 15.9416 35.4337 14.9166 35.4337 13.6523C35.4337 12.3879 34.4087 11.3629 33.1443 11.3629C31.88 11.3629 30.855 12.3879 30.855 13.6523C30.855 14.9166 31.88 15.9416 33.1443 15.9416Z" fill="var(--fill-0, #9CA3AF)"/>
<path id="Vector_4" d="M40.7811 15.9416C42.0454 15.9416 43.0704 14.9166 43.0704 13.6523C43.0704 12.3879 42.0454 11.3629 40.7811 11.3629C39.5167 11.3629 38.4917 12.3879 38.4917 13.6523C38.4917 14.9166 39.5167 15.9416 40.7811 15.9416Z" fill="var(--fill-0, #9CA3AF)"/>
<path id="Vector_5" d="M23.6089 10.7907H25.5167" stroke="var(--stroke-0, #9CA3AF)" stroke-width="2.50415" stroke-linecap="round" stroke-linejoin="round"/>
<path id="Vector_6" d="M48.4097 10.7907H50.3175" stroke="var(--stroke-0, #9CA3AF)" stroke-width="2.50415" stroke-linecap="round" stroke-linejoin="round"/>
</g>
<g id="Vector_7" filter="url(#filter0_d_219_965)">
<path d="M29.3338 62.3206C33.5484 62.3206 36.965 58.904 36.965 54.6894C36.965 50.4748 33.5484 47.0582 29.3338 47.0582C25.1193 47.0582 21.7027 50.4748 21.7027 54.6894C21.7027 58.904 25.1193 62.3206 29.3338 62.3206Z" fill="var(--fill-0, #22C55E)"/>
</g>
<g id="Group_2">
<path id="Vector_8" d="M54.3238 62.3204V46.066H60.4859C61.6306 46.066 62.6227 46.2568 63.443 46.6575C64.2634 47.0581 64.912 47.6304 65.3508 48.3554C65.8087 49.0994 66.0185 49.977 66.0185 50.9691C66.0185 51.694 65.8468 52.3618 65.5034 52.9341C65.16 53.5064 64.7212 53.9643 64.1871 54.2886C63.6529 54.632 63.0996 54.8037 62.5082 54.8419L62.3747 54.632C63.3667 54.632 64.1489 54.861 64.7212 55.3188C65.2936 55.7767 65.6179 56.5017 65.7133 57.5128L66.1712 62.3014H64.1871L63.7673 57.7227C63.7101 57.0549 63.4621 56.5589 63.0424 56.2346C62.6227 55.9103 61.9359 55.7576 61.001 55.7576H56.2888V62.3014H54.3238V62.3204ZM56.3079 53.8498H60.753C61.7451 53.8498 62.5273 53.6018 63.1187 53.0867C63.691 52.5907 63.9963 51.8657 63.9963 50.9309C63.9963 49.9961 63.691 49.2521 63.0996 48.7369C62.5082 48.2218 61.6497 47.9738 60.505 47.9738H56.3079V53.8308V53.8498Z" fill="var(--fill-0, #9CA3AF)"/>
<path id="Vector_9" d="M73.1939 62.5883C71.992 62.5883 71.019 62.1876 70.294 61.3673C69.5691 60.5469 69.2066 59.4213 69.2066 57.9905V50.1876H71.1335V57.4754C71.1335 58.6582 71.3433 59.5167 71.763 60.07C72.1827 60.6233 72.8314 60.9094 73.6899 60.9094C74.6438 60.9094 75.4069 60.6042 75.9602 59.9746C76.5134 59.3641 76.7805 58.5056 76.7805 57.4182V50.1876H78.7074V62.3212H76.8759V59.326L77.1812 59.4786C76.9331 60.4706 76.4753 61.2337 75.7885 61.787C75.1017 62.3212 74.2432 62.6074 73.1939 62.6074V62.5883Z" fill="var(--fill-0, #9CA3AF)"/>
<path id="Vector_10" d="M82.3667 62.3203V50.1867H84.1219L84.1982 53.2773L83.9693 53.0675C84.1219 52.3425 84.389 51.7511 84.7706 51.2932C85.1521 50.8353 85.61 50.4729 86.1632 50.2439C86.6974 50.015 87.2888 49.9005 87.9184 49.9005C88.8532 49.9005 89.6163 50.1104 90.2268 50.511C90.8373 50.9307 91.2761 51.484 91.5814 52.1708C91.8866 52.8576 92.0202 53.6398 92.0202 54.4983V62.3012H90.0933V55.0516C90.0933 54.3075 89.9979 53.6779 89.8262 53.1628C89.6545 52.6477 89.3683 52.2662 88.9868 51.9991C88.6052 51.732 88.1092 51.5984 87.4987 51.5984C86.5639 51.5984 85.8008 51.8846 85.1903 52.476C84.5798 53.0675 84.2936 53.926 84.2936 55.0516V62.3012H82.3667V62.3203Z" fill="var(--fill-0, #9CA3AF)"/>
<path id="Vector_11" d="M95.2261 62.3203V50.1867H96.9813L97.0576 53.2773L96.8287 53.0675C96.9813 52.3425 97.2484 51.7511 97.6299 51.2932C98.0115 50.8353 98.4694 50.4729 99.0226 50.2439C99.5568 50.015 100.148 49.9005 100.778 49.9005C101.713 49.9005 102.476 50.1104 103.086 50.511C103.697 50.9307 104.136 51.484 104.441 52.1708C104.746 52.8576 104.88 53.6398 104.88 54.4983V62.3012H102.953V55.0516C102.953 54.3075 102.857 53.6779 102.686 53.1628C102.514 52.6477 102.228 52.2662 101.846 51.9991C101.465 51.732 100.969 51.5984 100.358 51.5984C99.4233 51.5984 98.6601 51.8846 98.0496 52.476C97.4391 53.0675 97.153 53.926 97.153 55.0516V62.3012H95.2261V62.3203Z" fill="var(--fill-0, #9CA3AF)"/>
<path id="Vector_12" d="M108.242 48.2796V46.0284H110.264V48.2796H108.242ZM108.299 62.321V50.1874H110.226V62.321H108.299Z" fill="var(--fill-0, #9CA3AF)"/>
<path id="Vector_13" d="M114.117 62.3203V50.1867H115.872L115.948 53.2773L115.719 53.0675C115.872 52.3425 116.139 51.7511 116.521 51.2932C116.902 50.8353 117.36 50.4729 117.913 50.2439C118.447 50.015 119.039 49.9005 119.668 49.9005C120.603 49.9005 121.366 50.1104 121.977 50.511C122.587 50.9307 123.026 51.484 123.331 52.1708C123.637 52.8576 123.77 53.6398 123.77 54.4983V62.3012H121.843V55.0516C121.843 54.3075 121.748 53.6779 121.576 53.1628C121.405 52.6477 121.118 52.2662 120.737 51.9991C120.355 51.732 119.859 51.5984 119.249 51.5984C118.314 51.5984 117.551 51.8846 116.94 52.476C116.33 53.0675 116.044 53.926 116.044 55.0516V62.3012H114.117V62.3203Z" fill="var(--fill-0, #9CA3AF)"/>
<path id="Vector_14" d="M131.747 66.0219C130.869 66.0219 130.087 65.8693 129.381 65.5831C128.675 65.2969 128.084 64.8772 127.626 64.343C127.149 63.8088 126.825 63.1984 126.672 62.4925L128.694 62.3589C128.885 62.9313 129.209 63.3701 129.667 63.6944C130.125 64.0187 130.831 64.1904 131.766 64.1904C132.872 64.1904 133.712 63.9615 134.303 63.5227C134.895 63.0839 135.181 62.4162 135.181 61.5386V59.5735C134.895 60.2222 134.418 60.7182 133.788 61.0998C133.158 61.4813 132.434 61.6721 131.632 61.6721C130.602 61.6721 129.705 61.4241 128.904 60.909C128.103 60.413 127.473 59.7071 127.034 58.8295C126.577 57.9519 126.367 56.9217 126.367 55.777C126.367 54.6324 126.596 53.6022 127.034 52.7246C127.473 51.847 128.084 51.1602 128.885 50.6451C129.667 50.149 130.564 49.882 131.575 49.882C132.434 49.882 133.197 50.0727 133.883 50.4734C134.57 50.874 135.047 51.4082 135.314 52.0759V50.149H137.146V61.4623C137.146 62.4162 136.936 63.2174 136.497 63.9042C136.077 64.591 135.467 65.1061 134.666 65.4686C133.864 65.8311 132.91 66.0028 131.804 66.0028L131.747 66.0219ZM131.689 59.8406C132.72 59.8406 133.559 59.4782 134.189 58.7532C134.818 58.0282 135.143 57.0362 135.143 55.7961C135.143 54.9567 135.028 54.2317 134.742 53.6403C134.456 53.0298 134.055 52.5719 133.521 52.2476C132.987 51.9233 132.376 51.7516 131.67 51.7516C130.602 51.7516 129.782 52.1141 129.19 52.839C128.599 53.564 128.313 54.5561 128.313 55.7961C128.313 57.0362 128.618 58.0282 129.209 58.7532C129.801 59.4782 130.64 59.8406 131.67 59.8406H131.689Z" fill="var(--fill-0, #9CA3AF)"/>
</g>
</g>
<defs>
<filter id="filter0_d_219_965" x="0" y="25.3556" width="58.6677" height="58.6677" filterUnits="userSpaceOnUse" color-interpolation-filters="sRGB">
<feFlood flood-opacity="0" result="BackgroundImageFix"/>
<feColorMatrix in="SourceAlpha" type="matrix" values="0 0 0 0 0 0 0 0 0 0 0 0 0 0 0 0 0 0 127 0" result="hardAlpha"/>
<feOffset/>
<feGaussianBlur stdDeviation="10.8513"/>
<feComposite in2="hardAlpha" operator="out"/>
<feColorMatrix type="matrix" values="0 0 0 0 0.631373 0 0 0 0 0.819608 0 0 0 0 0.658824 0 0 0 1 0"/>
<feBlend mode="normal" in2="BackgroundImageFix" result="effect1_dropShadow_219_965"/>
<feBlend mode="normal" in="SourceGraphic" in2="effect1_dropShadow_219_965" result="shape"/>
</filter>
</defs>
</svg>
