<svg preserveAspectRatio="none" width="100%" height="100%" overflow="visible" style="display: block;" viewBox="0 0 211.275 61.8666" fill="none" xmlns="http://www.w3.org/2000/svg">
<g id="Group 2147203576">
<path id="Vector" d="M17.5863 8.03678H21.8489L24.6906 0.932524L27.5323 15.141L30.374 5.19508L33.2157 8.03678H37.4783" stroke="var(--stroke-0, #9CA3AF)" stroke-width="1.865" stroke-linecap="round" stroke-linejoin="round"/>
<g id="Group">
<path id="Vector_2" d="M197.436 16.1361C196.655 16.1361 195.973 15.994 195.376 15.7099C194.793 15.4257 194.325 15.0279 193.984 14.5164C193.643 14.0049 193.429 13.4081 193.373 12.7403L194.907 12.6408C194.992 13.3228 195.262 13.8343 195.717 14.1896C196.172 14.5306 196.74 14.7153 197.436 14.7153C198.218 14.7153 198.843 14.4737 199.326 13.9906C199.809 13.5076 200.036 12.8398 200.036 11.9872C200.036 11.4189 199.937 10.9216 199.724 10.5096C199.525 10.0975 199.227 9.77071 198.843 9.55759C198.459 9.33025 198.005 9.23079 197.465 9.23079C196.982 9.23079 196.527 9.34446 196.086 9.586C195.646 9.82755 195.333 10.1543 195.134 10.5806H193.572L194.367 3.77472H200.818V5.20978H195.717L195.177 9.67126L194.907 9.40129C195.092 9.04608 195.333 8.76191 195.618 8.53457C195.902 8.30724 196.243 8.13674 196.598 8.00886C196.953 7.88098 197.308 7.82415 197.664 7.82415C198.431 7.82415 199.113 8.00886 199.695 8.36407C200.278 8.71929 200.733 9.21658 201.059 9.84176C201.386 10.4669 201.543 11.1774 201.543 11.9872C201.543 12.7971 201.372 13.5076 201.017 14.1469C200.662 14.7721 200.179 15.2694 199.553 15.6246C198.928 15.9798 198.218 16.1503 197.408 16.1503L197.436 16.1361Z" fill="var(--fill-0, #6B7280)"/>
<path id="Vector_3" d="M207.126 16.0653C206.33 16.0653 205.648 15.8664 205.065 15.4828C204.483 15.0991 204.042 14.545 203.73 13.8488C203.417 13.1384 203.261 12.3143 203.261 11.3481C203.261 10.3819 203.417 9.54362 203.73 8.84741C204.042 8.13698 204.483 7.59706 205.065 7.21343C205.648 6.8298 206.33 6.63088 207.126 6.63088C207.765 6.63088 208.319 6.78717 208.802 7.08555C209.285 7.38393 209.626 7.72494 209.84 8.09436V3.76076H211.275V15.8664H209.982L209.925 14.5024C209.669 14.9855 209.3 15.3691 208.817 15.6533C208.333 15.9375 207.765 16.0653 207.126 16.0653ZM207.211 14.7013C207.751 14.7013 208.22 14.5592 208.618 14.2893C209.015 14.0193 209.314 13.6215 209.527 13.1242C209.74 12.6127 209.84 12.0301 209.84 11.3481C209.84 10.6661 209.74 10.0409 209.527 9.54362C209.314 9.04633 209.015 8.6627 208.618 8.39273C208.22 8.12277 207.737 7.9949 207.183 7.9949C206.444 7.9949 205.861 8.29327 205.421 8.89003C204.98 9.48679 204.767 10.3109 204.767 11.3481C204.767 12.3853 204.98 13.1952 205.421 13.8062C205.861 14.4171 206.458 14.7155 207.225 14.7155L207.211 14.7013Z" fill="var(--fill-0, #6B7280)"/>
</g>
<g id="Vector_4" filter="url(#filter0_d_219_834)">
<path d="M21.8467 45.7032C24.9856 45.7032 27.5301 43.1587 27.5301 40.0198C27.5301 36.881 24.9856 34.3364 21.8467 34.3364C18.7079 34.3364 16.1633 36.881 16.1633 40.0198C16.1633 43.1587 18.7079 45.7032 21.8467 45.7032Z" fill="var(--fill-0, #22C55E)"/>
</g>
<g id="Group_2">
<path id="Vector_5" d="M40.4621 45.7035V33.5978H45.0514C45.9039 33.5978 46.6428 33.7399 47.2537 34.0383C47.8647 34.3367 48.3478 34.7629 48.6746 35.3029C49.0156 35.857 49.1719 36.5106 49.1719 37.2494C49.1719 37.7893 49.044 38.2866 48.7883 38.7129C48.5325 39.1392 48.2057 39.4802 47.8079 39.7217C47.41 39.9775 46.998 40.1053 46.5575 40.1337L46.4581 39.9775C47.1969 39.9775 47.7795 40.148 48.2057 40.489C48.632 40.83 48.8735 41.3699 48.9446 42.1229L49.2856 45.6893H47.8079L47.4953 42.2792C47.4527 41.7819 47.268 41.4125 46.9554 41.171C46.6428 40.9294 46.1313 40.8158 45.4351 40.8158H41.9256V45.6893H40.4621V45.7035ZM41.9398 39.3949H45.2503C45.9892 39.3949 46.5717 39.2102 47.0122 38.8266C47.4385 38.4571 47.6658 37.9172 47.6658 37.221C47.6658 36.5248 47.4385 35.9707 46.998 35.587C46.5575 35.2034 45.9182 35.0187 45.0656 35.0187H41.9398V39.3807V39.3949Z" fill="var(--fill-0, #9CA3AF)"/>
<path id="Vector_6" d="M54.5197 45.9025C53.6245 45.9025 52.8999 45.6042 52.36 44.9932C51.82 44.3822 51.5501 43.5439 51.5501 42.4783V36.667H52.9851V42.0947C52.9851 42.9756 53.1414 43.615 53.454 44.027C53.7666 44.4391 54.2497 44.6522 54.8891 44.6522C55.5995 44.6522 56.1678 44.4249 56.5799 43.956C56.9919 43.5013 57.1909 42.8619 57.1909 42.052V36.667H58.6259V45.7036H57.2619V43.4729L57.4892 43.5866C57.3045 44.3254 56.9635 44.8937 56.452 45.3058C55.9405 45.7036 55.3011 45.9167 54.5197 45.9167V45.9025Z" fill="var(--fill-0, #9CA3AF)"/>
<path id="Vector_7" d="M61.3462 45.7031V36.6664H62.6533L62.7102 38.9682L62.5397 38.8119C62.6533 38.272 62.8523 37.8315 63.1364 37.4905C63.4206 37.1495 63.7616 36.8796 64.1737 36.7091C64.5715 36.5386 65.012 36.4533 65.4808 36.4533C66.1771 36.4533 66.7454 36.6096 67.2001 36.908C67.6547 37.2206 67.9815 37.6326 68.2089 38.1441C68.4362 38.6556 68.5357 39.2382 68.5357 39.8776V45.6888H67.1006V40.2896C67.1006 39.7355 67.0296 39.2666 66.9017 38.883C66.7738 38.4993 66.5607 38.2152 66.2765 38.0162C65.9923 37.8173 65.6229 37.7179 65.1683 37.7179C64.472 37.7179 63.9037 37.931 63.449 38.3715C62.9944 38.8119 62.7812 39.4513 62.7812 40.2896V45.6888H61.3462V45.7031Z" fill="var(--fill-0, #9CA3AF)"/>
<path id="Vector_8" d="M70.9237 45.7031V36.6664H72.2309L72.2877 38.9682L72.1172 38.8119C72.2309 38.272 72.4298 37.8315 72.714 37.4905C72.9981 37.1495 73.3392 36.8796 73.7512 36.7091C74.149 36.5386 74.5895 36.4533 75.0584 36.4533C75.7546 36.4533 76.3229 36.6096 76.7776 36.908C77.2323 37.2206 77.5591 37.6326 77.7864 38.1441C78.0137 38.6556 78.1132 39.2382 78.1132 39.8776V45.6888H76.6781V40.2896C76.6781 39.7355 76.6071 39.2666 76.4792 38.883C76.3514 38.4993 76.1382 38.2152 75.8541 38.0162C75.5699 37.8173 75.2005 37.7179 74.7458 37.7179C74.0496 37.7179 73.4812 37.931 73.0266 38.3715C72.5719 38.8119 72.3588 39.4513 72.3588 40.2896V45.6888H70.9237V45.7031Z" fill="var(--fill-0, #9CA3AF)"/>
<path id="Vector_9" d="M80.613 35.2459V33.5693H82.119V35.2459H80.613ZM80.6556 45.7034V36.6668H82.0906V45.7034H80.6556Z" fill="var(--fill-0, #9CA3AF)"/>
<path id="Vector_10" d="M84.9937 45.7031V36.6664H86.3009L86.3578 38.9682L86.1873 38.8119C86.3009 38.272 86.4999 37.8315 86.784 37.4905C87.0682 37.1495 87.4092 36.8796 87.8213 36.7091C88.2191 36.5386 88.6595 36.4533 89.1284 36.4533C89.8246 36.4533 90.393 36.6096 90.8477 36.908C91.3023 37.2206 91.6291 37.6326 91.8565 38.1441C92.0838 38.6556 92.1833 39.2382 92.1833 39.8776V45.6888H90.7482V40.2896C90.7482 39.7355 90.6772 39.2666 90.5493 38.883C90.4214 38.4993 90.2083 38.2152 89.9241 38.0162C89.6399 37.8173 89.2705 37.7179 88.8158 37.7179C88.1196 37.7179 87.5513 37.931 87.0966 38.3715C86.6419 38.8119 86.4288 39.4513 86.4288 40.2896V45.6888H84.9937V45.7031Z" fill="var(--fill-0, #9CA3AF)"/>
<path id="Vector_11" d="M98.1215 48.4597C97.468 48.4597 96.8854 48.3461 96.3597 48.1329C95.834 47.9198 95.3935 47.6072 95.0525 47.2094C94.6973 46.8116 94.4558 46.3569 94.3421 45.8312L95.8482 45.7317C95.9903 46.158 96.2318 46.4848 96.5728 46.7263C96.9138 46.9678 97.4395 47.0957 98.1358 47.0957C98.9598 47.0957 99.585 46.9252 100.025 46.5984C100.466 46.2716 100.679 45.7743 100.679 45.1207V43.6573C100.466 44.1404 100.111 44.5098 99.6419 44.7939C99.173 45.0781 98.633 45.2202 98.0363 45.2202C97.269 45.2202 96.6012 45.0355 96.0045 44.6519C95.4077 44.2824 94.9388 43.7567 94.612 43.1031C94.271 42.4495 94.1148 41.6823 94.1148 40.8298C94.1148 39.9773 94.2853 39.21 94.612 38.5564C94.9388 37.9028 95.3935 37.3913 95.9903 37.0077C96.5728 36.6383 97.2406 36.4393 97.9937 36.4393C98.633 36.4393 99.2014 36.5814 99.7129 36.8798C100.224 37.1782 100.58 37.576 100.779 38.0733V36.6383H102.143V45.0639C102.143 45.7743 101.986 46.3711 101.659 46.8826C101.347 47.3941 100.892 47.7777 100.295 48.0477C99.6987 48.3177 98.9883 48.4455 98.1642 48.4455L98.1215 48.4597ZM98.0789 43.8562C98.8462 43.8562 99.4714 43.5862 99.9402 43.0463C100.409 42.5064 100.651 41.7675 100.651 40.844C100.651 40.2188 100.565 39.6789 100.352 39.2384C100.139 38.7837 99.8408 38.4427 99.4429 38.2012C99.0451 37.9597 98.5904 37.8318 98.0647 37.8318C97.269 37.8318 96.6581 38.1017 96.2176 38.6417C95.7771 39.1816 95.564 39.9204 95.564 40.844C95.564 41.7675 95.7914 42.5064 96.2318 43.0463C96.6723 43.5862 97.2975 43.8562 98.0647 43.8562H98.0789Z" fill="var(--fill-0, #9CA3AF)"/>
</g>
</g>
<defs>
<filter id="filter0_d_219_834" x="4.28408e-07" y="18.1731" width="43.6934" height="43.6934" filterUnits="userSpaceOnUse" color-interpolation-filters="sRGB">
<feFlood flood-opacity="0" result="BackgroundImageFix"/>
<feColorMatrix in="SourceAlpha" type="matrix" values="0 0 0 0 0 0 0 0 0 0 0 0 0 0 0 0 0 0 127 0" result="hardAlpha"/>
<feOffset/>
<feGaussianBlur stdDeviation="8.08166"/>
<feComposite in2="hardAlpha" operator="out"/>
<feColorMatrix type="matrix" values="0 0 0 0 0.631373 0 0 0 0 0.819608 0 0 0 0 0.658824 0 0 0 1 0"/>
<feBlend mode="normal" in2="BackgroundImageFix" result="effect1_dropShadow_219_834"/>
<feBlend mode="normal" in="SourceGraphic" in2="effect1_dropShadow_219_834" result="shape"/>
</filter>
</defs>
</svg>
