<svg preserveAspectRatio="none" width="100%" height="100%" overflow="visible" style="display: block;" viewBox="0 0 282.595 127.545" fill="none" xmlns="http://www.w3.org/2000/svg">
<g id="Group 2147203583">
<g id="Rectangle 1134259173" filter="url(#filter0_dd_219_923)">
<path d="M12 60.394C12 40.4567 12 30.4881 16.5722 23.2099C18.9579 19.4123 22.1689 16.2013 25.9665 13.8156C33.2447 9.24333 43.2134 9.24333 63.1506 9.24333H219.444C239.381 9.24333 249.35 9.24333 256.628 13.8156C260.426 16.2013 263.637 19.4123 266.023 23.2099C270.595 30.4881 270.595 40.4567 270.595 60.394V60.394C270.595 80.3312 270.595 90.2998 266.023 97.578C263.637 101.376 260.426 104.587 256.628 106.972C249.35 111.545 239.381 111.545 219.444 111.545H63.1506C43.2134 111.545 33.2447 111.545 25.9665 106.972C22.1689 104.587 18.9579 101.376 16.5722 97.578C12 90.2998 12 80.3312 12 60.394V60.394Z" fill="var(--fill-0, #101729)"/>
<path d="M12 39.0833C12 21.9165 25.9165 8 43.0833 8H239.512C256.678 8 270.595 21.9165 270.595 39.0833V39.0833C270.595 23.2898 257.235 10.4867 240.755 10.4867H41.84C25.3598 10.4867 12 23.2898 12 39.0833V39.0833ZM12 39.0833M270.595 111.545H12H270.595M270.595 111.545M12 111.545V9.24333V111.545M12 111.545M270.595 9.24333V111.545V9.24333" fill="var(--stroke-0, #4C5774)"/>
</g>
<g id="Group">
<path id="Vector" d="M50.3623 50.4477H61.7291" stroke="var(--stroke-0, #9CA3AF)" stroke-width="1.865" stroke-linecap="round" stroke-linejoin="round"/>
<path id="Vector_2" d="M56.0496 37.6602V47.6061" stroke="var(--stroke-0, #9CA3AF)" stroke-width="1.865" stroke-linecap="round" stroke-linejoin="round"/>
<path id="Vector_3" d="M51.7854 44.7644L56.0479 49.0269L60.3105 44.7644" stroke="var(--stroke-0, #9CA3AF)" stroke-width="1.865" stroke-linecap="round" stroke-linejoin="round"/>
<path id="Vector_4" d="M61.7318 51.8686H50.365C49.5803 51.8686 48.9442 52.5048 48.9442 53.2895V54.7103C48.9442 55.495 49.5803 56.1312 50.365 56.1312H61.7318C62.5165 56.1312 63.1527 55.495 63.1527 54.7103V53.2895C63.1527 52.5048 62.5165 51.8686 61.7318 51.8686Z" stroke="var(--stroke-0, #9CA3AF)" stroke-width="1.865" stroke-linecap="round" stroke-linejoin="round"/>
</g>
<g id="Group_2">
<path id="Vector_5" d="M85.9148 42.6044V40.5015H88.1029V42.6044H85.9148ZM85.9574 54.7242V44.1389H88.0603V54.7242H85.9574Z" fill="var(--fill-0, #E2E8F0)"/>
<path id="Vector_6" d="M91.2281 54.7241V44.1388H93.1604L93.2457 46.9663L92.9899 46.8242C93.1036 46.128 93.3309 45.5738 93.6719 45.1476C93.9987 44.7213 94.4108 44.4087 94.8797 44.1956C95.3628 43.9967 95.8743 43.883 96.4284 43.883C97.2241 43.883 97.8777 44.0535 98.4034 44.4087C98.9291 44.764 99.3269 45.2328 99.5969 45.8438C99.8669 46.4406 100.009 47.1368 100.009 47.904V54.7099H97.9061V48.5434C97.9061 47.9182 97.835 47.3925 97.7072 46.9663C97.5793 46.54 97.3519 46.2132 97.0536 45.9859C96.7552 45.7586 96.3431 45.6449 95.8601 45.6449C95.1212 45.6449 94.5102 45.8864 94.0556 46.3837C93.5867 46.8668 93.3594 47.5915 93.3594 48.5292V54.6957H91.2565L91.2281 54.7241Z" fill="var(--fill-0, #E2E8F0)"/>
<path id="Vector_7" d="M106.999 57.9498C106.161 57.9498 105.422 57.8219 104.797 57.5662C104.157 57.3104 103.632 56.9552 103.22 56.5005C102.808 56.0459 102.523 55.506 102.381 54.895L104.569 54.7529C104.712 55.1934 104.967 55.5344 105.337 55.7901C105.706 56.0459 106.26 56.1738 106.999 56.1738C107.88 56.1738 108.548 55.989 109.017 55.6196C109.486 55.2502 109.727 54.6819 109.727 53.9288V52.3943C109.471 52.9342 109.074 53.3747 108.519 53.6873C107.965 53.9998 107.34 54.1704 106.644 54.1704C105.763 54.1704 104.967 53.9572 104.271 53.5168C103.575 53.0763 103.049 52.4795 102.665 51.7123C102.282 50.945 102.083 50.0499 102.083 49.0411C102.083 48.0323 102.268 47.1229 102.651 46.3557C103.035 45.5884 103.561 44.9774 104.243 44.5512C104.925 44.1107 105.692 43.8976 106.559 43.8976C107.312 43.8976 107.979 44.0681 108.562 44.4091C109.145 44.7501 109.557 45.219 109.812 45.8015V44.1249H111.844V53.872C111.844 54.7529 111.645 55.4917 111.262 56.0885C110.878 56.6853 110.31 57.1541 109.585 57.4667C108.86 57.7793 108.008 57.9356 107.013 57.9356L106.999 57.9498ZM106.985 52.3943C107.809 52.3943 108.463 52.0959 108.96 51.4992C109.457 50.9024 109.713 50.0783 109.727 49.0269C109.727 48.3307 109.628 47.7481 109.415 47.2508C109.187 46.7535 108.875 46.3699 108.448 46.0999C108.036 45.83 107.539 45.6879 106.985 45.6879C106.118 45.6879 105.45 45.9863 104.981 46.5972C104.513 47.2082 104.271 48.0181 104.271 49.0269C104.271 50.0357 104.513 50.874 104.996 51.4849C105.479 52.0817 106.132 52.3943 106.971 52.3943H106.985Z" fill="var(--fill-0, #E2E8F0)"/>
<path id="Vector_8" d="M118.978 54.966C117.941 54.966 117.046 54.7387 116.307 54.284C115.554 53.8293 114.986 53.19 114.574 52.3517C114.161 51.5134 113.963 50.5472 113.963 49.4247C113.963 48.3022 114.161 47.3361 114.574 46.512C114.986 45.6879 115.554 45.0343 116.293 44.5796C117.032 44.1249 117.913 43.8976 118.921 43.8976C119.873 43.8976 120.712 44.1249 121.45 44.5654C122.175 45.0059 122.743 45.6452 123.155 46.4835C123.553 47.3219 123.766 48.3307 123.766 49.51V50.0499H116.165C116.222 51.0871 116.492 51.8544 116.989 52.3801C117.486 52.8916 118.154 53.1615 119.007 53.1615C119.632 53.1615 120.143 53.0195 120.555 52.7211C120.967 52.4227 121.252 52.0391 121.408 51.5418L123.596 51.6839C123.312 52.6642 122.772 53.4599 121.962 54.0567C121.152 54.6534 120.157 54.966 118.992 54.966H118.978ZM116.151 48.4585H121.522C121.45 47.5208 121.181 46.8246 120.712 46.3699C120.243 45.9152 119.646 45.6879 118.907 45.6879C118.168 45.6879 117.529 45.9294 117.046 46.3983C116.563 46.8672 116.264 47.5492 116.136 48.4585H116.151Z" fill="var(--fill-0, #E2E8F0)"/>
<path id="Vector_9" d="M129.962 54.9658C128.967 54.9658 128.129 54.8095 127.447 54.5111C126.765 54.2127 126.239 53.7865 125.87 53.2466C125.5 52.7066 125.287 52.0957 125.23 51.3852L127.404 51.2858C127.518 51.8683 127.759 52.3372 128.157 52.6782C128.555 53.0192 129.166 53.1897 129.962 53.1897C130.63 53.1897 131.141 53.0903 131.539 52.8771C131.937 52.664 132.121 52.323 132.121 51.8683C132.121 51.6126 132.065 51.3994 131.937 51.2147C131.809 51.03 131.567 50.8879 131.212 50.7601C130.857 50.6322 130.317 50.5185 129.621 50.3906C128.569 50.1917 127.745 49.9644 127.148 49.6944C126.552 49.4245 126.125 49.0977 125.87 48.6856C125.614 48.2736 125.486 47.7763 125.486 47.1937C125.486 46.2276 125.841 45.4319 126.566 44.8209C127.291 44.2099 128.328 43.9116 129.692 43.9116C130.601 43.9116 131.383 44.0679 131.994 44.3804C132.619 44.693 133.102 45.1051 133.457 45.6308C133.812 46.1565 134.025 46.7391 134.125 47.3926L131.951 47.5063C131.88 47.1369 131.752 46.8101 131.567 46.5401C131.383 46.2702 131.127 46.0571 130.8 45.9008C130.487 45.7445 130.104 45.6734 129.663 45.6734C128.981 45.6734 128.484 45.8013 128.157 46.0713C127.83 46.3412 127.66 46.6822 127.66 47.1085C127.66 47.4211 127.731 47.691 127.887 47.8899C128.044 48.0889 128.285 48.2452 128.64 48.373C128.981 48.5009 129.436 48.6146 130.019 48.6998C131.113 48.8845 131.979 49.1119 132.605 49.3818C133.23 49.6518 133.67 49.9928 133.912 50.3906C134.167 50.7885 134.295 51.2716 134.295 51.8399C134.295 52.5077 134.111 53.0618 133.741 53.5307C133.372 53.9996 132.86 54.3548 132.207 54.5964C131.553 54.8379 130.8 54.9658 129.962 54.9658Z" fill="var(--fill-0, #E2E8F0)"/>
<path id="Vector_10" d="M135.546 45.8725V44.1391H142.068V45.8725H135.546ZM140.107 54.7244C139.098 54.7244 138.359 54.4971 137.876 54.0282C137.393 53.5593 137.166 52.8489 137.166 51.8543V41.6526H139.269V51.698C139.269 52.1953 139.368 52.5221 139.581 52.7068C139.794 52.8915 140.121 52.991 140.562 52.991H142.068V54.7244H140.093H140.107Z" fill="var(--fill-0, #E2E8F0)"/>
<path id="Vector_11" d="M144.041 42.6044V40.5015H146.229V42.6044H144.041ZM144.083 54.7242V44.1389H146.186V54.7242H144.083Z" fill="var(--fill-0, #E2E8F0)"/>
<path id="Vector_12" d="M153.335 54.966C152.327 54.966 151.446 54.7387 150.693 54.284C149.939 53.8293 149.357 53.19 148.945 52.3517C148.533 51.5134 148.334 50.5472 148.334 49.4247C148.334 48.3022 148.533 47.3219 148.945 46.4978C149.357 45.6737 149.939 45.0343 150.693 44.5796C151.446 44.1249 152.327 43.8976 153.335 43.8976C154.344 43.8976 155.225 44.1249 155.978 44.5796C156.731 45.0343 157.314 45.6737 157.726 46.4978C158.138 47.3219 158.337 48.288 158.337 49.4247C158.337 50.5614 158.138 51.5134 157.726 52.3517C157.314 53.19 156.731 53.8293 155.978 54.284C155.225 54.7387 154.344 54.966 153.335 54.966ZM153.335 53.1331C154.23 53.1331 154.927 52.8063 155.424 52.1527C155.907 51.4992 156.163 50.5898 156.163 49.4389C156.163 48.288 155.921 47.3787 155.424 46.7251C154.927 46.0715 154.23 45.7447 153.335 45.7447C152.44 45.7447 151.758 46.0715 151.261 46.7251C150.764 47.3787 150.522 48.288 150.522 49.4389C150.522 50.5898 150.764 51.4992 151.261 52.1527C151.758 52.8063 152.454 53.1331 153.335 53.1331Z" fill="var(--fill-0, #E2E8F0)"/>
<path id="Vector_13" d="M160.466 54.7241V44.1388H162.398L162.484 46.9663L162.228 46.8242C162.342 46.128 162.569 45.5738 162.91 45.1476C163.237 44.7213 163.649 44.4087 164.118 44.1956C164.601 43.9967 165.112 43.883 165.666 43.883C166.462 43.883 167.116 44.0535 167.641 44.4087C168.167 44.764 168.565 45.2328 168.835 45.8438C169.105 46.4406 169.247 47.1368 169.247 47.904V54.7099H167.144V48.5434C167.144 47.9182 167.073 47.3925 166.945 46.9663C166.817 46.54 166.59 46.2132 166.292 45.9859C165.993 45.7586 165.581 45.6449 165.098 45.6449C164.359 45.6449 163.748 45.8864 163.294 46.3837C162.825 46.8668 162.597 47.5915 162.597 48.5292V54.6957H160.495L160.466 54.7241Z" fill="var(--fill-0, #E2E8F0)"/>
<path id="Vector_14" d="M171.564 49.8505V48.0034H178.228V49.8505H171.564Z" fill="var(--fill-0, #E2E8F0)"/>
<path id="Vector_15" d="M183.516 54.9658C182.422 54.9658 181.541 54.7101 180.874 54.2128C180.22 53.7155 179.893 53.0051 179.893 52.0815C179.893 51.158 180.163 50.4475 180.717 49.9502C181.271 49.4387 182.124 49.0693 183.275 48.842L186.912 48.1458C186.912 47.3217 186.727 46.7107 186.33 46.3129C185.946 45.9008 185.378 45.7019 184.625 45.7019C183.943 45.7019 183.417 45.8582 183.033 46.1566C182.65 46.4549 182.38 46.8954 182.238 47.478L180.064 47.3359C180.263 46.2702 180.76 45.4461 181.541 44.8352C182.323 44.2242 183.36 43.9258 184.61 43.9258C186.045 43.9258 187.14 44.3095 187.878 45.0767C188.631 45.844 189.001 46.9096 189.001 48.2878V52.4083C189.001 52.6641 189.043 52.8346 189.129 52.934C189.214 53.0335 189.356 53.0903 189.555 53.0903H189.939V54.7669C189.939 54.7669 189.768 54.7953 189.626 54.8095C189.484 54.8095 189.328 54.8238 189.171 54.8238C188.717 54.8238 188.333 54.7527 188.006 54.6106C187.679 54.4685 187.438 54.227 187.282 53.886C187.125 53.545 187.04 53.0903 187.04 52.522L187.253 52.6214C187.139 53.0903 186.912 53.5024 186.571 53.8576C186.216 54.2128 185.775 54.497 185.236 54.6959C184.696 54.8948 184.113 55.0085 183.502 55.0085L183.516 54.9658ZM183.843 53.2892C184.483 53.2892 185.022 53.1614 185.477 52.9198C185.932 52.6783 186.273 52.3373 186.529 51.8968C186.784 51.4563 186.912 50.959 186.912 50.4049V49.7229L183.815 50.3197C183.175 50.4333 182.735 50.6323 182.465 50.888C182.209 51.1438 182.081 51.4706 182.081 51.8684C182.081 52.3231 182.238 52.6641 182.55 52.9198C182.863 53.1614 183.289 53.2892 183.857 53.2892H183.843Z" fill="var(--fill-0, #E2E8F0)"/>
<path id="Vector_16" d="M191.724 57.708V44.1389H193.713L193.77 46.4123L193.529 46.2986C193.799 45.5171 194.225 44.9204 194.836 44.5225C195.447 44.1247 196.143 43.9116 196.939 43.9116C197.976 43.9116 198.828 44.1673 199.496 44.6788C200.164 45.1903 200.661 45.8581 200.988 46.6964C201.315 47.5347 201.471 48.4441 201.471 49.4387C201.471 50.4333 201.315 51.3426 200.988 52.1809C200.661 53.0192 200.164 53.687 199.496 54.1985C198.828 54.71 197.976 54.9658 196.939 54.9658C196.413 54.9658 195.916 54.8663 195.447 54.6816C194.978 54.4969 194.594 54.2411 194.268 53.9001C193.941 53.5591 193.713 53.1613 193.586 52.6924L193.827 52.4509V57.708H191.724ZM196.569 53.1329C197.422 53.1329 198.09 52.8061 198.573 52.1525C199.056 51.4989 199.297 50.5896 199.297 49.4245C199.297 48.2594 199.056 47.35 198.573 46.6964C198.09 46.0428 197.422 45.716 196.569 45.716C196.015 45.716 195.532 45.8581 195.12 46.1281C194.708 46.3981 194.395 46.8101 194.168 47.3784C193.941 47.9326 193.827 48.6146 193.827 49.4245C193.827 50.2344 193.941 50.9164 194.154 51.4705C194.367 52.0246 194.694 52.4367 195.106 52.7208C195.518 53.005 196.015 53.1329 196.569 53.1329Z" fill="var(--fill-0, #E2E8F0)"/>
<path id="Vector_17" d="M203.575 42.6044V40.5015H205.763V42.6044H203.575ZM203.617 54.7242V44.1389H205.72V54.7242H203.617Z" fill="var(--fill-0, #E2E8F0)"/>
</g>
<g id="Group_3">
<path id="Vector_18" d="M225.955 54.9943C225.174 54.9943 224.492 54.8522 223.895 54.568C223.313 54.2839 222.844 53.886 222.503 53.3745C222.162 52.863 221.949 52.2663 221.892 51.5985L223.426 51.499C223.512 52.181 223.781 52.6925 224.236 53.0477C224.691 53.3887 225.259 53.5734 225.955 53.5734C226.737 53.5734 227.362 53.3319 227.845 52.8488C228.328 52.3657 228.556 51.6979 228.556 50.8454C228.556 50.2771 228.456 49.7798 228.243 49.3677C228.044 48.9557 227.746 48.6289 227.362 48.4158C226.978 48.1884 226.524 48.089 225.984 48.089C225.501 48.089 225.046 48.2026 224.606 48.4442C224.165 48.6857 223.853 49.0125 223.654 49.4388H222.091L222.886 42.6329H229.337V44.068H224.236L223.696 48.5294L223.426 48.2595C223.611 47.9043 223.853 47.6201 224.137 47.3927C224.421 47.1654 224.762 46.9949 225.117 46.867C225.472 46.7392 225.828 46.6823 226.183 46.6823C226.95 46.6823 227.632 46.867 228.215 47.2222C228.797 47.5775 229.252 48.0748 229.579 48.6999C229.905 49.3251 230.062 50.0355 230.062 50.8454C230.062 51.6553 229.891 52.3657 229.536 53.0051C229.181 53.6303 228.698 54.1276 228.072 54.4828C227.447 54.838 226.737 55.0085 225.927 55.0085L225.955 54.9943Z" fill="var(--fill-0, #6B7280)"/>
<path id="Vector_19" d="M235.65 54.9235C234.854 54.9235 234.172 54.7246 233.589 54.3409C233.007 53.9573 232.566 53.4032 232.254 52.707C231.941 51.9965 231.785 51.1725 231.785 50.2063C231.785 49.2401 231.941 48.4018 232.254 47.7056C232.566 46.9951 233.007 46.4552 233.589 46.0716C234.172 45.688 234.854 45.489 235.65 45.489C236.289 45.489 236.843 45.6453 237.326 45.9437C237.809 46.2421 238.15 46.5831 238.364 46.9525V42.6189H239.799V54.7246H238.506L238.449 53.3606C238.193 53.8437 237.824 54.2273 237.341 54.5114C236.857 54.7956 236.289 54.9235 235.65 54.9235ZM235.735 53.5595C236.275 53.5595 236.744 53.4174 237.142 53.1474C237.539 52.8775 237.838 52.4796 238.051 51.9823C238.264 51.4708 238.364 50.8883 238.364 50.2063C238.364 49.5243 238.264 48.8991 238.051 48.4018C237.838 47.9045 237.539 47.5209 237.142 47.2509C236.744 46.9809 236.261 46.8531 235.707 46.8531C234.968 46.8531 234.385 47.1514 233.945 47.7482C233.504 48.345 233.291 49.1691 233.291 50.2063C233.291 51.2435 233.504 52.0534 233.945 52.6643C234.385 53.2753 234.982 53.5737 235.749 53.5737L235.735 53.5595Z" fill="var(--fill-0, #6B7280)"/>
</g>
<g id="Vector_20" filter="url(#filter1_d_219_923)">
<path d="M50.3646 84.5622C53.5034 84.5622 56.048 82.0176 56.048 78.8788C56.048 75.7399 53.5034 73.1954 50.3646 73.1954C47.2257 73.1954 44.6812 75.7399 44.6812 78.8788C44.6812 82.0176 47.2257 84.5622 50.3646 84.5622Z" fill="var(--fill-0, #22C55E)"/>
</g>
<g id="Group_4">
<path id="Vector_21" d="M68.9756 84.5621V72.4564H73.565C74.4175 72.4564 75.1563 72.5985 75.7673 72.8969C76.3783 73.1953 76.8614 73.6215 77.1882 74.1615C77.5292 74.7156 77.6855 75.3692 77.6855 76.108C77.6855 76.648 77.5576 77.1453 77.3018 77.5715C77.0461 77.9978 76.7193 78.3388 76.3214 78.5803C75.9236 78.8361 75.5116 78.9639 75.0711 78.9924L74.9716 78.8361C75.7105 78.8361 76.293 79.0066 76.7193 79.3476C77.1455 79.6886 77.3871 80.2285 77.4581 80.9816L77.7991 84.5479H76.3214L76.0088 81.1378C75.9662 80.6405 75.7815 80.2711 75.4689 80.0296C75.1563 79.788 74.6448 79.6744 73.9486 79.6744H70.4391V84.5479H68.9756V84.5621ZM70.4533 78.2535H73.7639C74.5027 78.2535 75.0853 78.0688 75.5258 77.6852C75.952 77.3158 76.1793 76.7758 76.1793 76.0796C76.1793 75.3834 75.952 74.8293 75.5115 74.4456C75.0711 74.062 74.4317 73.8773 73.5792 73.8773H70.4533V78.2393V78.2535Z" fill="var(--fill-0, #9CA3AF)"/>
<path id="Vector_22" d="M83.0281 84.7613C82.133 84.7613 81.4083 84.4629 80.8684 83.852C80.3285 83.241 80.0585 82.4027 80.0585 81.3371V75.5258H81.4936V80.9534C81.4936 81.8344 81.6499 82.4738 81.9625 82.8858C82.2751 83.2978 82.7582 83.511 83.3975 83.511C84.108 83.511 84.6763 83.2836 85.0884 82.8148C85.5004 82.3601 85.6993 81.7207 85.6993 80.9108V75.5258H87.1344V84.5624H85.7704V82.3317L85.9977 82.4453C85.813 83.1842 85.472 83.7525 84.9605 84.1646C84.449 84.5624 83.8096 84.7755 83.0281 84.7755V84.7613Z" fill="var(--fill-0, #9CA3AF)"/>
<path id="Vector_23" d="M89.8595 84.5618V75.5252H91.1667L91.2235 77.827L91.053 77.6707C91.1667 77.1308 91.3656 76.6903 91.6498 76.3493C91.9339 76.0083 92.2749 75.7383 92.687 75.5678C93.0848 75.3973 93.5253 75.3121 93.9942 75.3121C94.6904 75.3121 95.2587 75.4684 95.7134 75.7668C96.1681 76.0793 96.4949 76.4914 96.7222 77.0029C96.9495 77.5144 97.049 78.097 97.049 78.7363V84.5476H95.6139V79.1484C95.6139 78.5943 95.5429 78.1254 95.415 77.7417C95.2871 77.3581 95.074 77.0739 94.7898 76.875C94.5057 76.6761 94.1362 76.5766 93.6816 76.5766C92.9854 76.5766 92.417 76.7898 91.9623 77.2302C91.5077 77.6707 91.2945 78.3101 91.2945 79.1484V84.5476H89.8595V84.5618Z" fill="var(--fill-0, #9CA3AF)"/>
<path id="Vector_24" d="M99.437 84.5618V75.5252H100.744L100.801 77.827L100.631 77.6707C100.744 77.1308 100.943 76.6903 101.227 76.3493C101.511 76.0083 101.852 75.7383 102.265 75.5678C102.662 75.3973 103.103 75.3121 103.572 75.3121C104.268 75.3121 104.836 75.4684 105.291 75.7668C105.746 76.0793 106.072 76.4914 106.3 77.0029C106.527 77.5144 106.627 78.097 106.627 78.7363V84.5476H105.191V79.1484C105.191 78.5943 105.12 78.1254 104.993 77.7417C104.865 77.3581 104.652 77.0739 104.367 76.875C104.083 76.6761 103.714 76.5766 103.259 76.5766C102.563 76.5766 101.995 76.7898 101.54 77.2302C101.085 77.6707 100.872 78.3101 100.872 79.1484V84.5476H99.437V84.5618Z" fill="var(--fill-0, #9CA3AF)"/>
<path id="Vector_25" d="M109.131 74.1047V72.4281H110.637V74.1047H109.131ZM109.174 84.5621V75.5255H110.609V84.5621H109.174Z" fill="var(--fill-0, #9CA3AF)"/>
<path id="Vector_26" d="M113.502 84.5618V75.5252H114.809L114.866 77.827L114.696 77.6707C114.809 77.1308 115.008 76.6903 115.292 76.3493C115.577 76.0083 115.918 75.7383 116.33 75.5678C116.728 75.3973 117.168 75.3121 117.637 75.3121C118.333 75.3121 118.901 75.4684 119.356 75.7668C119.811 76.0793 120.138 76.4914 120.365 77.0029C120.592 77.5144 120.692 78.097 120.692 78.7363V84.5476H119.257V79.1484C119.257 78.5943 119.186 78.1254 119.058 77.7417C118.93 77.3581 118.717 77.0739 118.433 76.875C118.148 76.6761 117.779 76.5766 117.324 76.5766C116.628 76.5766 116.06 76.7898 115.605 77.2302C115.15 77.6707 114.937 78.3101 114.937 79.1484V84.5476H113.502V84.5618Z" fill="var(--fill-0, #9CA3AF)"/>
<path id="Vector_27" d="M126.63 87.3185C125.976 87.3185 125.394 87.2049 124.868 86.9917C124.342 86.7786 123.902 86.466 123.561 86.0682C123.206 85.6703 122.964 85.2157 122.851 84.69L124.357 84.5905C124.499 85.0167 124.74 85.3435 125.081 85.5851C125.422 85.8266 125.948 85.9545 126.644 85.9545C127.468 85.9545 128.093 85.784 128.534 85.4572C128.974 85.1304 129.188 84.6331 129.188 83.9795V82.516C128.974 82.9991 128.619 83.3686 128.15 83.6527C127.681 83.9369 127.142 84.079 126.545 84.079C125.777 84.079 125.11 83.8943 124.513 83.5106C123.916 83.1412 123.447 82.6155 123.121 81.9619C122.78 81.3083 122.623 80.5411 122.623 79.6886C122.623 78.836 122.794 78.0688 123.121 77.4152C123.447 76.7616 123.902 76.2501 124.499 75.8665C125.081 75.497 125.749 75.2981 126.502 75.2981C127.142 75.2981 127.71 75.4402 128.221 75.7386C128.733 76.037 129.088 76.4348 129.287 76.9321V75.497H130.651V83.9227C130.651 84.6331 130.495 85.2299 130.168 85.7414C129.855 86.2529 129.401 86.6365 128.804 86.9065C128.207 87.1764 127.497 87.3043 126.673 87.3043L126.63 87.3185ZM126.587 82.715C127.355 82.715 127.98 82.445 128.449 81.9051C128.918 81.3652 129.159 80.6263 129.159 79.7028C129.159 79.0776 129.074 78.5377 128.861 78.0972C128.648 77.6425 128.349 77.3015 127.951 77.06C127.554 76.8184 127.099 76.6906 126.573 76.6906C125.778 76.6906 125.167 76.9605 124.726 77.5004C124.286 78.0404 124.072 78.7792 124.072 79.7028C124.072 80.6263 124.3 81.3652 124.74 81.9051C125.181 82.445 125.806 82.715 126.573 82.715H126.587Z" fill="var(--fill-0, #9CA3AF)"/>
</g>
</g>
<defs>
<filter id="filter0_dd_219_923" x="-4.52506e-07" y="-1.19209e-07" width="282.595" height="127.545" filterUnits="userSpaceOnUse" color-interpolation-filters="sRGB">
<feFlood flood-opacity="0" result="BackgroundImageFix"/>
<feColorMatrix in="SourceAlpha" type="matrix" values="0 0 0 0 0 0 0 0 0 0 0 0 0 0 0 0 0 0 127 0" result="hardAlpha"/>
<feOffset dy="4"/>
<feGaussianBlur stdDeviation="2"/>
<feComposite in2="hardAlpha" operator="out"/>
<feColorMatrix type="matrix" values="0 0 0 0 0 0 0 0 0 0 0 0 0 0 0 0 0 0 0.25 0"/>
<feBlend mode="normal" in2="BackgroundImageFix" result="effect1_dropShadow_219_923"/>
<feColorMatrix in="SourceAlpha" type="matrix" values="0 0 0 0 0 0 0 0 0 0 0 0 0 0 0 0 0 0 127 0" result="hardAlpha"/>
<feOffset dy="4"/>
<feGaussianBlur stdDeviation="6"/>
<feComposite in2="hardAlpha" operator="out"/>
<feColorMatrix type="matrix" values="0 0 0 0 0.596078 0 0 0 0 0.541176 0 0 0 0 0.87451 0 0 0 1 0"/>
<feBlend mode="normal" in2="effect1_dropShadow_219_923" result="effect2_dropShadow_219_923"/>
<feBlend mode="normal" in="SourceGraphic" in2="effect2_dropShadow_219_923" result="shape"/>
</filter>
<filter id="filter1_d_219_923" x="28.5179" y="57.0321" width="43.6934" height="43.6934" filterUnits="userSpaceOnUse" color-interpolation-filters="sRGB">
<feFlood flood-opacity="0" result="BackgroundImageFix"/>
<feColorMatrix in="SourceAlpha" type="matrix" values="0 0 0 0 0 0 0 0 0 0 0 0 0 0 0 0 0 0 127 0" result="hardAlpha"/>
<feOffset/>
<feGaussianBlur stdDeviation="8.08166"/>
<feComposite in2="hardAlpha" operator="out"/>
<feColorMatrix type="matrix" values="0 0 0 0 0.631373 0 0 0 0 0.819608 0 0 0 0 0.658824 0 0 0 1 0"/>
<feBlend mode="normal" in2="BackgroundImageFix" result="effect1_dropShadow_219_923"/>
<feBlend mode="normal" in="SourceGraphic" in2="effect1_dropShadow_219_923" result="shape"/>
</filter>
</defs>
</svg>
