<svg preserveAspectRatio="none" width="100%" height="100%" overflow="visible" style="display: block;" viewBox="0 0 101.696 33.7139" fill="none" xmlns="http://www.w3.org/2000/svg">
<g id="Layer_1" clip-path="url(#clip0_219_990)">
<path id="Vector" d="M43.5197 17.7418C43.5197 22.5923 39.7519 26.1665 35.128 26.1665C30.5041 26.1665 26.7363 22.5923 26.7363 17.7418C26.7363 12.8914 30.5041 9.31714 35.128 9.31714C39.7519 9.31714 43.5197 12.8572 43.5197 17.7418ZM39.8462 17.7418C39.8462 14.7108 37.6625 12.6369 35.128 12.6369C32.5935 12.6369 30.4098 14.7108 30.4098 17.7418C30.4098 20.7729 32.5935 22.8468 35.128 22.8468C37.6625 22.8468 39.8462 20.7387 39.8462 17.7418Z" fill="var(--fill-0, #101729)"/>
<path id="Vector_2" d="M61.6234 17.7419C61.6234 22.5924 57.8556 26.1666 53.2317 26.1666C48.6078 26.1666 44.84 22.5924 44.84 17.7419C44.84 12.8915 48.6078 9.31724 53.2317 9.31724C57.8556 9.31724 61.6234 12.8573 61.6234 17.7419ZM57.9499 17.7419C57.9499 14.7109 55.7662 12.637 53.2317 12.637C50.6972 12.637 48.5135 14.7109 48.5135 17.7419C48.5135 20.773 50.6972 22.8469 53.2317 22.8469C55.7662 22.8469 57.9499 20.7388 57.9499 17.7419Z" fill="var(--fill-0, #101729)"/>
<path id="Vector_3" d="M78.9722 9.82622V24.9512C78.9722 31.1728 75.3289 33.7139 71.0218 33.7139C66.9674 33.7139 64.5272 30.9829 63.6069 28.7495L66.8052 27.4087C67.3747 28.7799 68.7702 30.398 71.018 30.398C73.775 30.398 75.4836 28.6849 75.4836 25.4601V24.2485H75.3553C74.5331 25.2702 72.9491 26.1628 70.9501 26.1628C66.7675 26.1628 62.9356 22.4936 62.9356 17.7723C62.9356 13.051 66.7675 9.31724 70.9501 9.31724C72.9453 9.31724 74.5294 10.2099 75.3553 11.2012H75.4836V9.83002H78.9722V9.82622ZM75.7438 17.7723C75.7438 14.8058 73.7788 12.637 71.2783 12.637C68.7777 12.637 66.6204 14.8058 66.6204 17.7723C66.6204 20.7388 68.7438 22.8469 71.2783 22.8469C73.8128 22.8469 75.7438 20.7084 75.7438 17.7723Z" fill="var(--fill-0, #101729)"/>
<path id="Vector_4" d="M84.7238 0.961017V25.6501H81.1408V0.961017H84.7238Z" fill="var(--fill-0, #101729)"/>
<path id="Vector_5" d="M98.6873 20.5147L101.539 22.4291C100.618 23.8003 98.4007 26.1628 94.5688 26.1628C89.8166 26.1628 86.2676 22.4633 86.2676 17.7382C86.2676 12.7282 89.8468 9.31348 94.1577 9.31348C98.4685 9.31348 100.622 12.7927 101.316 14.6729L101.697 15.6301L90.5143 20.2944C91.3705 21.9847 92.7018 22.8469 94.5688 22.8469C96.4357 22.8469 97.7369 21.9201 98.6873 20.5147ZM89.9109 17.4837L97.3861 14.3577C96.975 13.3055 95.7379 12.5724 94.2821 12.5724C92.4152 12.5724 89.8166 14.2323 89.9109 17.4837Z" fill="var(--fill-0, #101729)"/>
<path id="Vector_6" d="M13.174 15.5502V11.976H25.1336C25.2505 12.5989 25.3109 13.3358 25.3109 14.1335C25.3109 16.8151 24.583 20.131 22.2371 22.4936C19.9553 24.8865 17.0399 26.1628 13.1778 26.1628C6.01939 26.1628 0 20.2906 0 13.0813C0 5.87211 6.01939 -9.97386e-05 13.1778 -9.97386e-05C17.1379 -9.97386e-05 19.959 1.56481 22.0787 3.60451L19.5743 6.1266C18.0544 4.69083 15.9951 3.57412 13.174 3.57412C7.94666 3.57412 3.8583 7.81685 3.8583 13.0813C3.8583 18.3458 7.94666 22.5885 13.174 22.5885C16.5646 22.5885 18.4957 21.2173 19.7327 19.9715C20.736 18.9611 21.396 17.5178 21.6562 15.5464H13.174V15.5502Z" fill="var(--fill-0, #101729)"/>
</g>
<defs>
<clipPath id="clip0_219_990">
<rect width="101.696" height="33.7139" fill="white"/>
</clipPath>
</defs>
</svg>
