<svg viewBox="0 0 183.372 33.595" fill="none" xmlns="http://www.w3.org/2000/svg">
<g transform="translate(0,0)">
<path d="M9.30583 19.7412C11.0505 17.9965 12.0312 15.6277 12.0312 13.1605C12.0312 10.6934 11.0496 8.32454 9.30583 6.57986L2.72534 4.16365e-05C0.981566 1.74472 0 4.1136 0 6.58071C0 9.04782 0.981566 11.4167 2.72534 13.1614L9.30583 19.7412Z" fill="#101729"/>
<path d="M23.0759 20.3501C21.3322 18.6062 18.9625 17.6245 16.4964 17.6245C14.0301 17.6245 11.6605 18.6062 9.91584 20.3501L16.4964 26.9306C18.2401 28.6745 20.6098 29.6561 23.0768 29.6561C25.5439 29.6561 27.9126 28.6745 29.6573 26.9306L23.0759 20.3501Z" fill="#101729"/>
<path d="M2.74172 26.9152C4.48636 28.659 6.85515 29.6407 9.3222 29.6407V20.3346H0.0155213C0.0163682 22.8016 0.997089 25.1706 2.74172 26.9152Z" fill="#101729"/>
<path d="M25.615 10.6204C23.8703 8.87661 21.5016 7.89417 19.0336 7.89502C16.5666 7.89502 14.1977 8.87661 12.4531 10.6213L19.0336 17.202L25.615 10.6204Z" fill="#101729"/>
</g>
<g transform="translate(35.91, 4.99)">
<path d="M61.2189 8.80523H61.1887C60.6284 7.49905 59.0095 6.0979 56.3323 6.0979C51.976 6.0979 48.8633 9.14798 48.8633 14.2523C48.8633 19.3566 52.0061 22.4692 56.3624 22.4692C59.1323 22.4692 60.5634 21.1005 61.1865 19.5767H61.2166V21.5059C61.2166 24.2455 59.8154 25.5518 57.2956 25.5518C55.1789 25.5518 53.78 24.8038 53.4071 23.0622H49.4863C49.9217 26.2373 52.849 28.6018 57.3606 28.6018C61.6242 28.6018 65.42 26.4527 65.42 20.9454V6.53329H61.2212V8.80523H61.2189ZM57.2332 19.3265C54.3383 19.3265 52.8745 16.9295 52.8745 14.2848C52.8745 11.6399 54.3684 9.27536 57.2332 9.27536C60.098 9.27536 61.5895 11.9827 61.5895 14.2848C61.5895 16.5867 60.4059 19.3265 57.2332 19.3265Z" fill="#101729"/>
<path d="M30.22 12.8861C30.22 8.93277 28.3534 6.03784 23.3092 6.03784C19.0757 6.03784 16.8709 8.81233 16.4031 11.4548H20.1688C20.5742 9.96107 21.7575 9.02769 23.3439 9.02769C25.1782 9.02769 26.2992 9.7735 26.2992 11.0495C26.2992 12.4183 25.3032 12.731 23.2189 13.0413C20.977 13.3817 15.6875 13.8171 15.6875 18.2382C15.6875 20.9455 17.8043 23.0622 21.3198 23.0622C24.37 23.0622 25.7086 21.4435 26.3616 20.1697H26.3941V20.978C26.3941 21.506 26.4265 22.0989 26.5191 22.6269H30.5327C30.3126 21.5986 30.2223 19.9497 30.2223 18.706V12.8861H30.22ZM26.3616 15.1603C26.3616 18.8959 24.4649 20.1071 22.4107 20.1071C20.6065 20.1071 19.6709 19.2664 19.6709 18.053C19.6709 16.8393 20.6366 16.1863 22.7836 15.7486C25.1481 15.2831 25.9888 14.5675 26.3616 13.7893V15.1581V15.1603Z" fill="#101729"/>
<path d="M41.4869 6.10004C38.9974 6.10004 37.5684 7.43635 36.6628 9.30527V6.53545H32.742V22.6266H36.7555V15.4055C36.7555 11.4846 38.2193 9.58551 40.3661 9.58551C42.6705 9.58551 43.2911 11.422 43.2911 13.7566V22.6266H47.2745V12.7907C47.2745 8.8398 45.6556 6.10004 41.4847 6.10004H41.4869Z" fill="#101729"/>
<path d="M78.8784 3.54803C81.8961 3.54803 83.9503 4.76157 85.1337 7.37626H89.2422C87.8735 2.8324 84.4482 0 78.8784 0C72.1252 0 67.5488 4.79632 67.5488 11.5473C67.5488 18.2982 72.0927 23.032 78.846 23.0297C84.3555 23.0297 88.1212 20.0745 89.2422 15.6534H85.1036C84.2004 18.0179 82.2712 19.4817 78.8784 19.4817C74.5823 19.4817 71.7198 16.1212 71.7198 11.5473C71.7198 6.97329 74.5523 3.55034 78.8784 3.55034V3.54803Z" fill="#101729"/>
<path d="M140.473 6.10004C137.983 6.10004 136.553 7.43635 135.649 9.30527V6.53545H131.728V22.6266H135.742V15.4055C135.742 11.4846 137.204 9.58551 139.352 9.58551C141.654 9.58551 142.277 11.422 142.277 13.7566V22.6266H146.26V12.7907C146.26 8.8398 144.641 6.10004 140.47 6.10004H140.473Z" fill="#101729"/>
<path d="M129.017 1.78784H124.879V5.52345H129.017V1.78784Z" fill="#101729"/>
<path d="M124.941 9.32161V22.6243H128.955V6.5332H127.727C126.187 6.5332 124.941 7.78149 124.941 9.32161Z" fill="#101729"/>
<path d="M100.259 6.09577C97.7691 6.09577 96.3401 7.43439 95.4345 9.27088V0.403201H91.5137V22.62H95.5272V15.3989C95.5272 11.4781 96.991 9.57898 99.1378 9.57898C101.442 9.57898 102.063 11.4155 102.063 13.7499V22.62H106.046V12.7842C106.046 8.83321 104.427 6.09346 100.256 6.09346L100.259 6.09577Z" fill="#101729"/>
<path d="M122.328 12.8861C122.328 8.93277 120.461 6.03784 115.417 6.03784C111.183 6.03784 108.978 8.81233 108.514 11.4548H112.279C112.684 9.96107 113.868 9.02769 115.454 9.02769C117.287 9.02769 118.409 9.7735 118.409 11.0495C118.409 12.4183 117.413 12.731 115.329 13.0413C113.087 13.3817 107.797 13.8171 107.797 18.2382C107.797 20.9455 109.915 23.0622 113.43 23.0622C116.48 23.0622 117.818 21.4435 118.472 20.1697H118.501V20.978C118.501 21.506 118.532 22.0989 118.627 22.6269H122.64C122.422 21.5986 122.329 19.9497 122.329 18.706L122.328 12.8861ZM118.467 15.1603C118.467 18.8959 116.571 20.1071 114.516 20.1071C112.712 20.1071 111.776 19.2664 111.776 18.053C111.776 16.8393 112.742 16.1863 114.888 15.7486C117.254 15.2831 118.094 14.5675 118.467 13.7893V15.1581V15.1603Z" fill="#101729"/>
<path d="M4.03209 15.246V0.403201H0V18.046H1.23209C2.77914 18.046 4.03209 16.7931 4.03209 15.246Z" fill="#101729"/>
<path d="M14.4307 19.0625H0V22.6266H14.4307V19.0625Z" fill="#101729"/>
</g>
</svg>
